<svg width="24" height="24" viewBox="0 0 24 24" fill="none" xmlns="http://www.w3.org/2000/svg">
<path d="M6.5 16.5V8L5 9.5M6.5 16.5H5M6.5 16.5H7.5M10 14.25C10 13.0074 11.0106 12 12.25 12C13.4894 12 14.4883 13.0074 14.4883 14.25C14.4883 15.4926 13.4835 16.5 12.2441 16.5C11.0047 16.5 10 15.4926 10 14.25ZM10 14.25V10.25C10 9.00736 11.0106 8 12.25 8H12.5C13.75 8 14.5 9 14.5 9M18.25 11V12.25M18.25 12.25V13.5M18.25 12.25H19.5M18.25 12.25H17" stroke="#141414" style="stroke:#141414;stroke:color(display-p3 0.0800 0.0800 0.0800);stroke-opacity:1;" stroke-width="1.5" stroke-linecap="round" stroke-linejoin="round"/>
</svg>
