<svg width="24" height="24" viewBox="0 0 24 24" fill="none" xmlns="http://www.w3.org/2000/svg">
<path d="M12.0058 12C10.7664 12 9.76172 12.7574 9.76172 14C9.76172 15.2426 10.7664 16.25 12.0058 16.25C13.2452 16.25 14.2499 15.2426 14.2499 14C14.2499 12.7574 13.2452 12 12.0058 12ZM12.0058 12C13.75 12 13.75 10.4665 13.75 9.5C13.75 8.5335 12.9665 7.75 12 7.75C11.0335 7.75 10.25 8.5335 10.25 9.5C10.25 10.4665 10.2616 12 12.0058 12ZM18 10.75V12M18 12V13.25M18 12H19.25M18 12H16.75M6.25 16.25V7.75L4.75 9.25M6.25 16.25H4.75M6.25 16.25H7.25" stroke="#141414" style="stroke:#141414;stroke:color(display-p3 0.0800 0.0800 0.0800);stroke-opacity:1;" stroke-width="1.5" stroke-linecap="round" stroke-linejoin="round"/>
</svg>
