<svg width="24" height="24" viewBox="0 0 24 24" fill="none" xmlns="http://www.w3.org/2000/svg">
<path d="M19.5 12V12.25C19.5 16.2541 16.2541 19.5 12.25 19.5C8.24594 19.5 5 16.2541 5 12.25C5 9.41445 6.62785 6.9591 9 5.76749M12.25 5.67647C12.25 5.1648 12.8082 4.75 13.4967 4.75C14.1853 4.75 14.75 4.94945 14.75 5.67647C14.75 6.40349 12.25 8.25 12.25 8.25H14.75M12 10.75V12L14.25 14.25M18.4167 7.375H16.75L18.4167 4.75V7.375ZM18.4167 7.375V8.25M18.4167 7.375H19.25" stroke="#141414" style="stroke:#141414;stroke:color(display-p3 0.0800 0.0800 0.0800);stroke-opacity:1;" stroke-width="1.5" stroke-linecap="round" stroke-linejoin="round"/>
</svg>
