<svg width="24" height="24" viewBox="0 0 24 24" fill="none" xmlns="http://www.w3.org/2000/svg">
<path d="M19.25 7.75H20C20 7.4798 19.8547 7.23048 19.6195 7.09735C19.3844 6.96422 19.0958 6.96786 18.8641 7.10688L19.25 7.75ZM19.25 16.25L18.8641 16.8931C19.0958 17.0321 19.3844 17.0358 19.6195 16.9026C19.8547 16.7695 20 16.5202 20 16.25H19.25ZM15.8859 13.3569C15.5307 13.1438 15.07 13.2589 14.8569 13.6141C14.6438 13.9693 14.7589 14.43 15.1141 14.6431L15.8859 13.3569ZM10.75 9.75C10.75 9.33579 10.4142 9 10 9C9.58579 9 9.25 9.33579 9.25 9.75H10.75ZM9.25 14.25C9.25 14.6642 9.58579 15 10 15C10.4142 15 10.75 14.6642 10.75 14.25H9.25ZM12.25 12.75C12.6642 12.75 13 12.4142 13 12C13 11.5858 12.6642 11.25 12.25 11.25V12.75ZM7.75 11.25C7.33579 11.25 7 11.5858 7 12C7 12.4142 7.33579 12.75 7.75 12.75V11.25ZM15.8859 10.6431L19.6359 8.39312L18.8641 7.10688L15.1141 9.35688L15.8859 10.6431ZM18.5 7.75V16.25H20V7.75H18.5ZM19.6359 15.6069L15.8859 13.3569L15.1141 14.6431L18.8641 16.8931L19.6359 15.6069ZM14.5 8.75V15.25H16V8.75H14.5ZM13.25 16.5H6.75V18H13.25V16.5ZM5.5 15.25V8.75H4V15.25H5.5ZM6.75 7.5H13.25V6H6.75V7.5ZM6.75 16.5C6.05964 16.5 5.5 15.9404 5.5 15.25H4C4 16.7688 5.23122 18 6.75 18V16.5ZM14.5 15.25C14.5 15.9404 13.9404 16.5 13.25 16.5V18C14.7688 18 16 16.7688 16 15.25H14.5ZM16 8.75C16 7.23122 14.7688 6 13.25 6V7.5C13.9404 7.5 14.5 8.05964 14.5 8.75H16ZM5.5 8.75C5.5 8.05964 6.05964 7.5 6.75 7.5V6C5.23122 6 4 7.23122 4 8.75H5.5ZM9.25 9.75V14.25H10.75V9.75H9.25ZM12.25 11.25H7.75V12.75H12.25V11.25Z" fill="#141414" style="fill:#141414;fill:color(display-p3 0.0800 0.0800 0.0800);fill-opacity:1;"/>
</svg>
