<svg width="24" height="24" viewBox="0 0 24 24" fill="none" xmlns="http://www.w3.org/2000/svg">
<path d="M7.25 4.75H6.75C5.64543 4.75 4.75 5.64543 4.75 6.75V9.96922C4.75 10.6198 5.36139 11.0972 5.99254 10.9394L6.75 10.75V17.5C6.75 18.4665 7.5335 19.25 8.5 19.25C9.4665 19.25 10.25 18.4665 10.25 17.5V7.75C10.25 6.09315 8.90685 4.75 7.25 4.75Z" stroke="#141414" style="stroke:#141414;stroke:color(display-p3 0.0800 0.0800 0.0800);stroke-opacity:1;" stroke-width="1.5" stroke-linecap="round" stroke-linejoin="round"/>
<path d="M16.75 4.75H17.25C18.3546 4.75 19.25 5.64543 19.25 6.75V9.96922C19.25 10.6198 18.6386 11.0972 18.0075 10.9394L17.25 10.75V17.5C17.25 18.4665 16.4665 19.25 15.5 19.25C14.5335 19.25 13.75 18.4665 13.75 17.5V7.75C13.75 6.09315 15.0931 4.75 16.75 4.75Z" stroke="#141414" style="stroke:#141414;stroke:color(display-p3 0.0800 0.0800 0.0800);stroke-opacity:1;" stroke-width="1.5" stroke-linecap="round" stroke-linejoin="round"/>
</svg>
