<svg width="24" height="24" viewBox="0 0 24 24" fill="none" xmlns="http://www.w3.org/2000/svg">
<path d="M4.75 10.75V14.75C4.75 16.9591 6.54086 18.75 8.75 18.75H14.75C16.9591 18.75 18.75 16.9591 18.75 14.75V10.75M4.75 10.75V9.25C4.75 7.04086 6.54086 5.25 8.75 5.25H14.75C16.9591 5.25 18.75 7.04086 18.75 9.25V10.75M4.75 10.75H8.75M18.75 10.75H14.75M8.75 10.75H14.75M8.75 10.75C8.75 11.5784 9.42157 12.25 10.25 12.25H13.25C14.0784 12.25 14.75 11.5784 14.75 10.75" stroke="#141414" style="stroke:#141414;stroke:color(display-p3 0.0800 0.0800 0.0800);stroke-opacity:1;" stroke-width="1.5" stroke-linecap="round" stroke-linejoin="round"/>
</svg>
