<svg width="24" height="24" viewBox="0 0 24 24" fill="none" xmlns="http://www.w3.org/2000/svg">
<path d="M18.25 10C18.25 13.5 15.5 19.25 12 19.25C8.5 19.25 5.75 13.5 5.75 10C5.75 6.5 9.10051 4.75 12 4.75C14.8995 4.75 18.25 6.5 18.25 10Z" stroke="#141414" style="stroke:#141414;stroke:color(display-p3 0.0800 0.0800 0.0800);stroke-opacity:1;" stroke-width="1.5" stroke-linecap="round" stroke-linejoin="round"/>
<path d="M10.1095 10.0781C10.3815 10.8934 10.3043 11.9133 9.60526 12.1909C8.90618 12.4685 8.16986 11.7715 7.89783 10.9562C7.62581 10.1409 7.70296 9.12098 8.4783 8.81312C9.17738 8.53554 9.83744 9.26275 10.1095 10.0781Z" stroke="#141414" style="stroke:#141414;stroke:color(display-p3 0.0800 0.0800 0.0800);stroke-opacity:1;" stroke-width="1.5" stroke-linecap="round" stroke-linejoin="round"/>
<path d="M13.9008 10.0781C13.6288 10.8934 13.7059 11.9133 14.405 12.1909C15.1041 12.4685 15.8404 11.7715 16.1124 10.9562C16.3844 10.1409 16.3073 9.12098 15.532 8.81312C14.8329 8.53554 14.1728 9.26275 13.9008 10.0781Z" stroke="#141414" style="stroke:#141414;stroke:color(display-p3 0.0800 0.0800 0.0800);stroke-opacity:1;" stroke-width="1.5" stroke-linecap="round" stroke-linejoin="round"/>
</svg>
