<svg width="24" height="24" viewBox="0 0 24 24" fill="none" xmlns="http://www.w3.org/2000/svg">
<path d="M6.75 8.75C6.75 8.19772 7.19772 7.75 7.75 7.75H9.25C9.80228 7.75 10.25 8.19772 10.25 8.75V15.25C10.25 15.8023 9.80228 16.25 9.25 16.25H7.75C7.19772 16.25 6.75 15.8023 6.75 15.25V8.75Z" stroke="#141414" style="stroke:#141414;stroke:color(display-p3 0.0800 0.0800 0.0800);stroke-opacity:1;" stroke-width="1.5" stroke-linecap="round" stroke-linejoin="round"/>
<path d="M13.75 10.75C13.75 10.1977 14.1977 9.75 14.75 9.75H16.25C16.8023 9.75 17.25 10.1977 17.25 10.75V13.25C17.25 13.8023 16.8023 14.25 16.25 14.25H14.75C14.1977 14.25 13.75 13.8023 13.75 13.25V10.75Z" stroke="#141414" style="stroke:#141414;stroke:color(display-p3 0.0800 0.0800 0.0800);stroke-opacity:1;" stroke-width="1.5" stroke-linecap="round" stroke-linejoin="round"/>
<path d="M17.75 12H19.25" stroke="#141414" style="stroke:#141414;stroke:color(display-p3 0.0800 0.0800 0.0800);stroke-opacity:1;" stroke-width="1.5" stroke-linecap="round" stroke-linejoin="round"/>
<path d="M10.75 12H13.25" stroke="#141414" style="stroke:#141414;stroke:color(display-p3 0.0800 0.0800 0.0800);stroke-opacity:1;" stroke-width="1.5" stroke-linecap="round" stroke-linejoin="round"/>
<path d="M4.75 12H6.25" stroke="#141414" style="stroke:#141414;stroke:color(display-p3 0.0800 0.0800 0.0800);stroke-opacity:1;" stroke-width="1.5" stroke-linecap="round" stroke-linejoin="round"/>
</svg>
