<svg width="24" height="24" viewBox="0 0 24 24" fill="none" xmlns="http://www.w3.org/2000/svg">
<path d="M15.25 6.75C15.8023 6.75 16.25 7.19772 16.25 7.75V9.25C16.25 9.80229 15.8023 10.25 15.25 10.25L8.75 10.25C8.19772 10.25 7.75 9.80228 7.75 9.25L7.75 7.75C7.75 7.19772 8.19772 6.75 8.75 6.75L15.25 6.75Z" stroke="#141414" style="stroke:#141414;stroke:color(display-p3 0.0800 0.0800 0.0800);stroke-opacity:1;" stroke-width="1.5" stroke-linecap="round" stroke-linejoin="round"/>
<path d="M13.25 13.75C13.8023 13.75 14.25 14.1977 14.25 14.75V16.25C14.25 16.8023 13.8023 17.25 13.25 17.25H10.75C10.1977 17.25 9.75 16.8023 9.75 16.25L9.75 14.75C9.75 14.1977 10.1977 13.75 10.75 13.75L13.25 13.75Z" stroke="#141414" style="stroke:#141414;stroke:color(display-p3 0.0800 0.0800 0.0800);stroke-opacity:1;" stroke-width="1.5" stroke-linecap="round" stroke-linejoin="round"/>
<path d="M12 17.75L12 19.25" stroke="#141414" style="stroke:#141414;stroke:color(display-p3 0.0800 0.0800 0.0800);stroke-opacity:1;" stroke-width="1.5" stroke-linecap="round" stroke-linejoin="round"/>
<path d="M12 10.75L12 13.25" stroke="#141414" style="stroke:#141414;stroke:color(display-p3 0.0800 0.0800 0.0800);stroke-opacity:1;" stroke-width="1.5" stroke-linecap="round" stroke-linejoin="round"/>
<path d="M12 4.75L12 6.25" stroke="#141414" style="stroke:#141414;stroke:color(display-p3 0.0800 0.0800 0.0800);stroke-opacity:1;" stroke-width="1.5" stroke-linecap="round" stroke-linejoin="round"/>
</svg>
