<svg width="24" height="24" viewBox="0 0 24 24" fill="none" xmlns="http://www.w3.org/2000/svg">
<path d="M10.75 12.25C10.75 12.25 10.75 10.7812 12.1705 9.63967M12.1705 9.63967C12.7291 9.09834 13.3859 8.75 14.1552 8.75C16.4167 8.75 18.25 11.1005 18.25 14C18.25 16.8995 16.4167 19.25 14.1552 19.25L13.6836 19.0312C12.6159 18.5358 11.3841 18.5358 10.3164 19.0312L9.84483 19.25C7.58332 19.25 5.75 16.8995 5.75 14C5.75 11.1005 7.58332 8.75 9.84483 8.75C10.5385 8.75 11.1919 8.97114 11.7644 9.36143L12.1705 9.63967ZM15.25 4.75C12 4.75 12 9 12 9V9.5" stroke="#141414" style="stroke:#141414;stroke:color(display-p3 0.0800 0.0800 0.0800);stroke-opacity:1;" stroke-width="1.5" stroke-linecap="round" stroke-linejoin="round"/>
</svg>
