<svg width="24" height="24" viewBox="0 0 24 24" fill="none" xmlns="http://www.w3.org/2000/svg">
<path d="M4.75 13.75V16.25C4.75 17.9069 6.09315 19.25 7.75 19.25H16.25C17.9069 19.25 19.25 17.9069 19.25 16.25V13.75M4.75 13.75V8.75C4.75 7.35212 5.70608 6.17755 7 5.84451M4.75 13.75H9.75V14.25C9.75 15.3546 10.6454 16.25 11.75 16.25H12.25C13.3546 16.25 14.25 15.3546 14.25 14.25V13.75H19.25M19.25 13.75V8.75C19.25 7.35212 18.2939 6.17755 17 5.84451M12 10.25V4.75M12 4.75L9.75 7.25M12 4.75L14.25 7.25" stroke="#141414" style="stroke:#141414;stroke:color(display-p3 0.0800 0.0800 0.0800);stroke-opacity:1;" stroke-width="1.5" stroke-linecap="round" stroke-linejoin="round"/>
</svg>
