<svg width="24" height="24" viewBox="0 0 24 24" fill="none" xmlns="http://www.w3.org/2000/svg">
<path d="M12 4.75V10.25M12 10.25L9.75 7.75M12 10.25L14.25 7.75" stroke="#141414" style="stroke:#141414;stroke:color(display-p3 0.0800 0.0800 0.0800);stroke-opacity:1;" stroke-width="1.5" stroke-linecap="round" stroke-linejoin="round"/>
<path d="M4.75 13.75V16.25C4.75 17.9068 6.09315 19.25 7.75 19.25H16.25C17.9069 19.25 19.25 17.9068 19.25 16.25V13.75M4.75 13.75V8.74997C4.75 7.35209 5.70608 6.17751 7 5.84448M4.75 13.75H9.75V14.25C9.75 15.3545 10.6454 16.25 11.75 16.25H12.25C13.3546 16.25 14.25 15.3545 14.25 14.25V13.75H19.25M19.25 13.75V8.74997C19.25 7.35209 18.2939 6.17751 17 5.84448" stroke="#141414" style="stroke:#141414;stroke:color(display-p3 0.0800 0.0800 0.0800);stroke-opacity:1;" stroke-width="1.5" stroke-linecap="round" stroke-linejoin="round"/>
</svg>
