<svg width="24" height="24" viewBox="0 0 24 24" fill="none" xmlns="http://www.w3.org/2000/svg">
<path d="M6 16.071C5.21106 14.9105 4.75 13.5091 4.75 12C4.75 7.99594 7.99594 4.75 12 4.75C12.9517 4.75 13.8606 4.93339 14.6933 5.26676M10.5838 19.1118C11.0418 19.2024 11.5154 19.25 12 19.25C16.0041 19.25 19.25 16.0041 19.25 12C19.25 11.0698 19.0748 10.1805 18.7556 9.36328" stroke="#141414" style="stroke:#141414;stroke:color(display-p3 0.0800 0.0800 0.0800);stroke-opacity:1;" stroke-width="1.5" stroke-linecap="round" stroke-linejoin="round"/>
<path d="M17.5 7C17.5 7.27614 17.2761 7.5 17 7.5C16.7239 7.5 16.5 7.27614 16.5 7C16.5 6.72386 16.7239 6.5 17 6.5C17.2761 6.5 17.5 6.72386 17.5 7Z" stroke="#141414" style="stroke:#141414;stroke:color(display-p3 0.0800 0.0800 0.0800);stroke-opacity:1;"/>
<path d="M8.5 18C8.5 18.2761 8.27614 18.5 8 18.5C7.72386 18.5 7.5 18.2761 7.5 18C7.5 17.7239 7.72386 17.5 8 17.5C8.27614 17.5 8.5 17.7239 8.5 18Z" stroke="#141414" style="stroke:#141414;stroke:color(display-p3 0.0800 0.0800 0.0800);stroke-opacity:1;"/>
<path d="M8.5 12C8.5 12.2761 8.27614 12.5 8 12.5C7.72386 12.5 7.5 12.2761 7.5 12C7.5 11.7239 7.72386 11.5 8 11.5C8.27614 11.5 8.5 11.7239 8.5 12Z" stroke="#141414" style="stroke:#141414;stroke:color(display-p3 0.0800 0.0800 0.0800);stroke-opacity:1;"/>
<path d="M15.5 15C15.5 15.2761 15.2761 15.5 15 15.5C14.7239 15.5 14.5 15.2761 14.5 15C14.5 14.7239 14.7239 14.5 15 14.5C15.2761 14.5 15.5 14.7239 15.5 15Z" stroke="#141414" style="stroke:#141414;stroke:color(display-p3 0.0800 0.0800 0.0800);stroke-opacity:1;"/>
<path d="M8.5 9.5884C9.2667 8.47779 10.5484 7.75 12 7.75C14.3472 7.75 16.25 9.65279 16.25 12C16.25 12.2469 16.2289 12.4889 16.1885 12.7243M8.5 14.4116C9.2667 15.5222 10.5484 16.25 12 16.25C12.2938 16.25 12.5806 16.2202 12.8576 16.1634" stroke="#141414" style="stroke:#141414;stroke:color(display-p3 0.0800 0.0800 0.0800);stroke-opacity:1;" stroke-width="1.5" stroke-linecap="round" stroke-linejoin="round"/>
<path d="M13.25 12C13.25 12.6904 12.6904 13.25 12 13.25C11.3096 13.25 10.75 12.6904 10.75 12C10.75 11.3096 11.3096 10.75 12 10.75C12.6904 10.75 13.25 11.3096 13.25 12Z" stroke="#141414" style="stroke:#141414;stroke:color(display-p3 0.0800 0.0800 0.0800);stroke-opacity:1;" stroke-width="1.5" stroke-linecap="round" stroke-linejoin="round"/>
</svg>
