<svg width="24" height="24" viewBox="0 0 24 24" fill="none" xmlns="http://www.w3.org/2000/svg">
<path d="M6.75 19C6.75 19 7.7882 16.3007 11 15.8221C11.0822 15.8098 11.1658 15.799 11.2509 15.7898M19.25 11.25V7.75C19.25 6.09315 17.9069 4.75 16.25 4.75H7.75C6.09315 4.75 4.75 6.09315 4.75 7.75V16.25C4.75 17.9069 6.09315 19.25 7.75 19.25H11.25M19.25 14.75C19.25 14.75 17.3214 16.8393 16.3571 19.25L14.75 17.3214M14.25 10C14.25 11.2426 13.2426 12.25 12 12.25C10.7574 12.25 9.75 11.2426 9.75 10C9.75 8.75736 10.7574 7.75 12 7.75C13.2426 7.75 14.25 8.75736 14.25 10Z" stroke="#141414" style="stroke:#141414;stroke:color(display-p3 0.0800 0.0800 0.0800);stroke-opacity:1;" stroke-width="1.5" stroke-linecap="round" stroke-linejoin="round"/>
</svg>
