<svg width="24" height="24" viewBox="0 0 24 24" fill="none" xmlns="http://www.w3.org/2000/svg">
<path d="M7.61522 17.653L8.29237 18.4994C8.67191 18.9738 9.24654 19.25 9.85411 19.25H14.1459C14.7535 19.25 15.3281 18.9738 15.7076 18.4994L16.3848 17.653M7.61522 17.653L5.18826 14.6193C4.90456 14.2646 4.75 13.824 4.75 13.3699V9.72128C4.75 9.19085 4.96071 8.68214 5.33579 8.30707L8.30707 5.33579C8.68214 4.96071 9.19085 4.75 9.72128 4.75H14.2787C14.8091 4.75 15.3179 4.96071 15.6929 5.33579L18.6642 8.30707C19.0393 8.68214 19.25 9.19085 19.25 9.72128V13.3699C19.25 13.824 19.0954 14.2646 18.8117 14.6193L16.3848 17.653M7.61522 17.653C8.39587 16.7593 9.77093 15.75 12 15.75C14.2291 15.75 15.6041 16.7593 16.3848 17.653M14.25 10C14.25 11.2426 13.2426 12.25 12 12.25C10.7574 12.25 9.75 11.2426 9.75 10C9.75 8.75736 10.7574 7.75 12 7.75C13.2426 7.75 14.25 8.75736 14.25 10Z" stroke="#141414" style="stroke:#141414;stroke:color(display-p3 0.0800 0.0800 0.0800);stroke-opacity:1;" stroke-width="1.5" stroke-linecap="round" stroke-linejoin="round"/>
</svg>
