<svg width="24" height="24" viewBox="0 0 24 24" fill="none" xmlns="http://www.w3.org/2000/svg">
<path d="M19.25 18.75V19.25M4.75 16.75V17.25M13.75 5.14524C13.75 5.14524 14.5 4.75 15.5 4.75C17.5711 4.75 19.25 6.87665 19.25 9.5C19.25 12.1234 17.5711 14.25 15.5 14.25C14.5 14.25 13.75 13.75 13.75 13.75M15.5 14.5C15.5 14.5 14.75 16.0044 14.75 17C14.75 18 16.25 19.25 16.25 19.25M8.5 14.5C8.5 14.5 9.25 16.0044 9.25 17C9.25 18 7.75 19.25 7.75 19.25M12.25 9.5C12.25 12.1234 10.5711 14.25 8.5 14.25C6.42893 14.25 4.75 12.1234 4.75 9.5C4.75 6.87665 6.42893 4.75 8.5 4.75C10.5711 4.75 12.25 6.87665 12.25 9.5Z" stroke="#141414" style="stroke:#141414;stroke:color(display-p3 0.0800 0.0800 0.0800);stroke-opacity:1;" stroke-width="1.5" stroke-linecap="round" stroke-linejoin="round"/>
</svg>
