<svg width="24" height="24" viewBox="0 0 24 24" fill="none" xmlns="http://www.w3.org/2000/svg">
<path d="M12 19.25C16.0041 19.25 19.25 16.0041 19.25 12C19.25 7.99594 16.0041 4.75 12 4.75M12 19.25C7.99594 19.25 4.75 16.0041 4.75 12C4.75 7.99594 7.99594 4.75 12 4.75M12 19.25V4.75M6.75 7.75C8.21846 8.4459 9.25 10.0867 9.25 12C9.25 13.9133 8.21846 15.5541 6.75 16.25M17.25 7.75C15.7815 8.4459 14.75 10.0867 14.75 12C14.75 13.9133 15.7815 15.5541 17.25 16.25" stroke="#141414" style="stroke:#141414;stroke:color(display-p3 0.0800 0.0800 0.0800);stroke-opacity:1;" stroke-width="1.5" stroke-linecap="round" stroke-linejoin="round"/>
</svg>
