<svg width="24" height="24" viewBox="0 0 24 24" fill="none" xmlns="http://www.w3.org/2000/svg">
<path d="M11.75 11.25C11.75 11.25 12.8729 8.67143 13.5322 6.68747C13.8805 5.63926 14.8954 4.75 16 4.75C17.1046 4.75 18.0129 5.64809 17.894 6.74625C17.7255 8.30315 17.3 10.2 16.25 11.25M11.75 11.25H16.25M11.75 11.25C11.75 11.25 9.97173 15.0041 6.23954 15.8375C5.43102 16.018 4.75 16.5 4.75 18C4.75 19.25 6.25 19.25 6.25 19.25C6.25 19.25 6.25 19.25 6.25 19.25C12.6875 19.25 14.5 14 14.5 14M11.75 11.25L14.5 14M16.25 11.25C16.8333 11.5833 18.25 12 18.25 14C18.25 16 17 17.25 17 17.25L14.5 14M12 10.75C10.8 9.55 9.99979 6.75 9.99979 6.75C7.4999 9 10 13.5 10 13.5" stroke="#141414" style="stroke:#141414;stroke:color(display-p3 0.0800 0.0800 0.0800);stroke-opacity:1;" stroke-width="1.5" stroke-linecap="round" stroke-linejoin="round"/>
</svg>
