<svg width="24" height="24" viewBox="0 0 24 24" fill="none" xmlns="http://www.w3.org/2000/svg">
<path d="M5.75 5.75L8.25 4.75V10.25M8.25 10.25H5.75M8.25 10.25H10.25M13.75 14.75L16.25 13.75V19.25M16.25 19.25H13.75M16.25 19.25H18.25M13.75 6.75V8.25C13.75 9.35457 14.6454 10.25 15.75 10.25H16.25C17.3546 10.25 18.25 9.35457 18.25 8.25V6.75C18.25 5.64543 17.3546 4.75 16.25 4.75H15.75C14.6454 4.75 13.75 5.64543 13.75 6.75ZM5.75 15.75V17.25C5.75 18.3546 6.64543 19.25 7.75 19.25H8.25C9.35457 19.25 10.25 18.3546 10.25 17.25V15.75C10.25 14.6454 9.35457 13.75 8.25 13.75H7.75C6.64543 13.75 5.75 14.6454 5.75 15.75Z" stroke="#141414" style="stroke:#141414;stroke:color(display-p3 0.0800 0.0800 0.0800);stroke-opacity:1;" stroke-width="1.5" stroke-linecap="round" stroke-linejoin="round"/>
</svg>
