<svg width="24" height="24" viewBox="0 0 24 24" fill="none" xmlns="http://www.w3.org/2000/svg">
<path d="M13.5 9C13.5 9.27614 13.2761 9.5 13 9.5C12.7239 9.5 12.5 9.27614 12.5 9C12.5 8.72386 12.7239 8.5 13 8.5C13.2761 8.5 13.5 8.72386 13.5 9Z" stroke="#141414" style="stroke:#141414;stroke:color(display-p3 0.0800 0.0800 0.0800);stroke-opacity:1;" stroke-linecap="round" stroke-linejoin="round"/>
<path d="M16.2428 8.75C16.2428 8.75 19.25 8.75004 19.25 11.25H16.25M16.25 9V14.837C16.25 17.2742 14.2742 19.25 11.837 19.25H10.6165C8.84945 19.25 7.22353 18.2848 6.37737 16.7335L4.75 13.75H6.75C7.30228 13.75 7.75 13.3023 7.75 12.75V9C7.75 6.65279 9.65279 4.75 12 4.75C14.3472 4.75 16.25 6.65279 16.25 9Z" stroke="#141414" style="stroke:#141414;stroke:color(display-p3 0.0800 0.0800 0.0800);stroke-opacity:1;" stroke-width="1.5" stroke-linecap="round" stroke-linejoin="round"/>
</svg>
