<svg width="24" height="24" viewBox="0 0 24 24" fill="none" xmlns="http://www.w3.org/2000/svg">
<path d="M4.75 11.75V17.25C4.75 18.3546 5.64543 19.25 6.75 19.25H17.25C18.3546 19.25 19.25 18.3546 19.25 17.25V11.75M12 9.25V4.75M12 4.75L9.75 7.25M12 4.75L14.25 7.25M14.25 15.75H9.75C9.19772 15.75 8.75 15.3023 8.75 14.75V13.25C8.75 12.6977 9.19772 12.25 9.75 12.25H14.25C14.8023 12.25 15.25 12.6977 15.25 13.25V14.75C15.25 15.3023 14.8023 15.75 14.25 15.75Z" stroke="#141414" style="stroke:#141414;stroke:color(display-p3 0.0800 0.0800 0.0800);stroke-opacity:1;" stroke-width="1.5" stroke-linecap="round" stroke-linejoin="round"/>
</svg>
