<svg width="24" height="24" viewBox="0 0 24 24" fill="none" xmlns="http://www.w3.org/2000/svg">
<path d="M4.75 11.75V17.25C4.75 18.3546 5.64543 19.25 6.75 19.25H17.25C18.3546 19.25 19.25 18.3546 19.25 17.25V11.75M12 10.75V16.25M12 16.25L9.75 13.75M12 16.25L14.25 13.75M14.25 8.25H9.75C9.19772 8.25 8.75 7.80228 8.75 7.25V5.75C8.75 5.19772 9.19772 4.75 9.75 4.75H14.25C14.8023 4.75 15.25 5.19772 15.25 5.75V7.25C15.25 7.80228 14.8023 8.25 14.25 8.25Z" stroke="#141414" style="stroke:#141414;stroke:color(display-p3 0.0800 0.0800 0.0800);stroke-opacity:1;" stroke-width="1.5" stroke-linecap="round" stroke-linejoin="round"/>
</svg>
