<svg width="24" height="24" viewBox="0 0 24 24" fill="none" xmlns="http://www.w3.org/2000/svg">
<path d="M12 5.75C12 5.75 10.5 4.75 8.5 4.75C6.5 4.75 4.75 5.75 4.75 5.75V19.25C4.75 19.25 6.5 18.25 8.5 18.25C10.5 18.25 12 19.25 12 19.25M12 5.75C12 5.75 13.5 4.75 15.5 4.75C15.7551 4.75 16.0061 4.76627 16.25 4.79466M12 5.75V19.25M12 19.25C12 19.25 13.5 18.25 15.5 18.25C17.5 18.25 19.25 19.25 19.25 19.25V5.75C19.25 5.75 17.918 4.98884 16.25 4.79466M16.25 4.79466V9.25" stroke="#141414" style="stroke:#141414;stroke:color(display-p3 0.0800 0.0800 0.0800);stroke-opacity:1;" stroke-width="1.5" stroke-linecap="round" stroke-linejoin="round"/>
</svg>
