<svg width="24" height="24" viewBox="0 0 24 24" fill="none" xmlns="http://www.w3.org/2000/svg">
<path d="M15 18.7719C17.4903 17.7784 19.25 15.3447 19.25 12.5C19.25 9.6553 17.4903 7.2216 15 6.2281M14.25 9.25V9.26M15.25 11.25V11.26M7.44125 10.25H10.5587M11.2888 19.25L12.1773 18.147C13.6383 16.3332 13.6037 13.8343 12.093 12.056L10.3464 10L10.9125 6.84609C11.1095 5.74884 10.1981 4.75 9 4.75C7.80187 4.75 6.89049 5.74884 7.08746 6.84609L7.65364 10L5.90698 12.056C4.39628 13.8343 4.36169 16.3332 5.82267 18.147L6.71119 19.25H11.2888Z" stroke="#141414" style="stroke:#141414;stroke:color(display-p3 0.0800 0.0800 0.0800);stroke-opacity:1;" stroke-width="1.5" stroke-linecap="round" stroke-linejoin="round"/>
</svg>
