<svg width="24" height="24" viewBox="0 0 24 24" fill="none" xmlns="http://www.w3.org/2000/svg">
<path d="M9.25 4.75H8.92565C8.06762 4.75 7.32887 5.44695 7.1606 6.41519L6.65688 9.31357C6.58719 9.71458 6.41591 10.0829 6.16463 10.3721L4.75 12L6.16463 13.6279C6.41591 13.9171 6.58719 14.2854 6.65688 14.6864L7.1606 17.5848C7.32887 18.553 8.06762 19.25 8.92565 19.25H9.25M14.75 4.75H15.0744C15.9324 4.75 16.6711 5.44695 16.8394 6.41519L17.3431 9.31357C17.4128 9.71458 17.5841 10.0829 17.8354 10.3721L19.25 12L17.8354 13.6279C17.5841 13.9171 17.4128 14.2854 17.3431 14.6864L16.8394 17.5848C16.6711 18.553 15.9324 19.25 15.0744 19.25H14.75M9 12H9.01M12 12H12.01M15 12H15.01" stroke="#141414" style="stroke:#141414;stroke:color(display-p3 0.0800 0.0800 0.0800);stroke-opacity:1;" stroke-width="1.5" stroke-linecap="round" stroke-linejoin="round"/>
</svg>
