<svg width="24" height="24" viewBox="0 0 24 24" fill="none" xmlns="http://www.w3.org/2000/svg">
<path d="M5.75 10.25V9.66667C5.75 8.05584 7.05584 6.75 8.66667 6.75H8.80001C9.03164 5.60888 10.0405 4.75 11.25 4.75H12M7.25 9.75C5.86929 9.75 4.75 10.9812 4.75 12.5C4.75 13.288 5.05131 13.9986 5.53412 14.5C5.61024 14.579 5.69087 14.6529 5.77554 14.721M7.75 15.25H7.25C6.69861 15.25 6.18891 15.0536 5.77554 14.721M5.77554 14.721C5.96514 16.1486 7.18728 17.25 8.66667 17.25H8.80001C9.03164 18.3911 10.0405 19.25 11.25 19.25H12M12 4.75H12.75C13.9595 4.75 14.9684 5.60888 15.2 6.75H15.3333C16.9442 6.75 18.25 8.05584 18.25 9.66667V10.25M12 4.75V8M12 19.25H12.75C13.9595 19.25 14.9684 18.3911 15.2 17.25H15.3333C16.8127 17.25 18.0349 16.1486 18.2245 14.721M12 19.25V15M16.75 9.75C18.1307 9.75 19.25 10.9812 19.25 12.5C19.25 13.288 18.9487 13.9986 18.4659 14.5C18.3898 14.579 18.3091 14.6529 18.2245 14.721M16.25 15.25H16.75C17.3014 15.25 17.8111 15.0536 18.2245 14.721M12 15C12 13.4 13.3333 12.75 14 12.75H14.25M12 15V8M12 8C12 9.2 11 11 9.75 11.25" stroke="#141414" style="stroke:#141414;stroke:color(display-p3 0.0800 0.0800 0.0800);stroke-opacity:1;" stroke-width="1.5" stroke-linecap="round" stroke-linejoin="round"/>
</svg>
