<svg width="24" height="24" viewBox="0 0 24 24" fill="none" xmlns="http://www.w3.org/2000/svg">
<path d="M5.27361 5.8961L5.12153 6.14733C4.46154 7.23758 4.62391 8.63643 5.51609 9.54651C5.64396 9.67694 5.71558 9.85231 5.71558 10.035V18.25C5.71558 18.8023 6.16329 19.25 6.71558 19.25H17.2923C17.8446 19.25 18.2923 18.8023 18.2923 18.25V10.0346C18.2923 9.85212 18.3636 9.67691 18.491 9.54634C19.3798 8.63556 19.5415 7.23952 18.8844 6.14971L18.7343 5.90076C18.3037 5.1866 17.5307 4.75 16.6967 4.75H7.30714C6.47548 4.75 5.70429 5.18464 5.27361 5.8961Z" stroke="#141414" style="stroke:#141414;stroke:color(display-p3 0.0800 0.0800 0.0800);stroke-opacity:1;" stroke-width="1.5" stroke-linecap="round" stroke-linejoin="round"/>
</svg>
