<svg width="24" height="24" viewBox="0 0 24 24" fill="none" xmlns="http://www.w3.org/2000/svg">
<path d="M10 5.75V7.25M5.75 10H7.25M17.2292 6.77083C17.2429 6.68256 17.25 6.59211 17.25 6.5C17.25 5.5335 16.4665 4.75 15.5 4.75C14.5335 4.75 13.75 5.5335 13.75 6.5C13.75 7.01985 13.9767 7.48676 14.3366 7.80728L12 10L12.9281 12.9281L10 12L7.80728 14.3366C7.48676 13.9767 7.01985 13.75 6.5 13.75C5.5335 13.75 4.75 14.5335 4.75 15.5C4.75 16.4665 5.5335 17.25 6.5 17.25C6.59211 17.25 6.68256 17.2429 6.77083 17.2292C6.75712 17.3174 6.75 17.4079 6.75 17.5C6.75 18.4665 7.5335 19.25 8.5 19.25C9.4665 19.25 10.25 18.4665 10.25 17.5C10.25 16.9802 10.0233 16.5132 9.66344 16.1927L16.1927 9.66344C16.5132 10.0233 16.9802 10.25 17.5 10.25C18.4665 10.25 19.25 9.4665 19.25 8.5C19.25 7.5335 18.4665 6.75 17.5 6.75C17.4079 6.75 17.3174 6.75712 17.2292 6.77083Z" stroke="#141414" style="stroke:#141414;stroke:color(display-p3 0.0800 0.0800 0.0800);stroke-opacity:1;" stroke-width="1.5" stroke-linecap="round" stroke-linejoin="round"/>
</svg>
