<svg width="24" height="24" viewBox="0 0 24 24" fill="none" xmlns="http://www.w3.org/2000/svg">
<path d="M9.75 4.75H7.75C6.09315 4.75 4.75 6.09315 4.75 7.75V16.25C4.75 17.9069 6.09315 19.25 7.75 19.25H10.25M9.75 4.75V7.25C9.75 7.80228 10.1977 8.25 10.75 8.25H14.25M9.75 4.75H14.25M19.25 8.25V7.75C19.25 6.09315 17.9069 4.75 16.25 4.75H14.25M19.25 8.25H14.25M19.25 8.25V10.25M14.25 8.25V4.75" stroke="#141414" style="stroke:#141414;stroke:color(display-p3 0.0800 0.0800 0.0800);stroke-opacity:1;" stroke-width="1.5" stroke-linecap="round" stroke-linejoin="round"/>
<path d="M14.6125 14.5C15.105 14.035 15.7692 13.75 16.5 13.75C18.0188 13.75 19.25 14.9812 19.25 16.5C19.25 17.2308 18.965 17.895 18.5 18.3875M14.6125 14.5C14.0814 15.0014 13.75 15.712 13.75 16.5C13.75 18.0188 14.9812 19.25 16.5 19.25C17.288 19.25 17.9986 18.9186 18.5 18.3875M14.6125 14.5L18.5 18.3875" stroke="#141414" style="stroke:#141414;stroke:color(display-p3 0.0800 0.0800 0.0800);stroke-opacity:1;" stroke-width="1.5" stroke-linecap="round" stroke-linejoin="round"/>
</svg>
