<svg width="24" height="24" viewBox="0 0 24 24" fill="none" xmlns="http://www.w3.org/2000/svg">
<path d="M12 19.25V15.75M12 19.25C9.68399 19.25 7.80067 17.3975 7.75101 15.0934M12 19.25C14.316 19.25 16.1993 17.3975 16.249 15.0934M4.75 7.75V9.07649C4.75 9.81762 5.15985 10.498 5.81501 10.8445L7.88365 11.9385M19.25 7.75V9.07649C19.25 9.81762 18.8402 10.498 18.185 10.8445L16.1164 11.9385M4.75 19.25V17.6048C4.75 16.7711 5.26715 16.0248 6.04775 15.7321L7.75101 15.0934M19.25 19.25V17.6048C19.25 16.7711 18.7329 16.0248 17.9522 15.7321L16.249 15.0934M9.75 7.25V6.75C9.75 5.64543 10.6454 4.75 11.75 4.75H12.25C13.3546 4.75 14.25 5.64543 14.25 6.75V7.25M9.75 7.25V9.25M9.75 7.25L8.85557 6.80279C8.178 6.464 7.75 5.77148 7.75 5.01393V4.75M14.25 9.25V7.25M14.25 7.25L15.1444 6.80279C15.822 6.464 16.25 5.77148 16.25 5.01393V4.75M7.75101 15.0934C7.75034 15.0623 7.75 15.0312 7.75 15V13C7.75 12.6335 7.7964 12.2778 7.88365 11.9385M7.88365 11.9385C8.35511 10.1049 10.0193 8.75 12 8.75C13.9807 8.75 15.6449 10.1049 16.1164 11.9385M16.1164 11.9385C16.2036 12.2778 16.25 12.6335 16.25 13V15C16.25 15.0312 16.2497 15.0623 16.249 15.0934" stroke="#141414" style="stroke:#141414;stroke:color(display-p3 0.0800 0.0800 0.0800);stroke-opacity:1;" stroke-width="1.5" stroke-linecap="round" stroke-linejoin="round"/>
</svg>
