<svg width="24" height="24" viewBox="0 0 24 24" fill="none" xmlns="http://www.w3.org/2000/svg">
<path d="M7.75 16.75V16C7.75 14.5 4.75 14 4.75 10C4.75 7.5 6.5 4.75 10 4.75C10.8542 4.75 11.6042 4.91382 12.25 5.19784M7.75 16.75V18.2505C7.75 18.8028 8.19772 19.25 8.75 19.25H11.25C11.8023 19.25 12.25 18.8028 12.25 18.2505V16.75M7.75 16.75H12.25M12.25 16.75V16C12.25 14.7971 14.1792 14.2373 14.9435 12M15.75 4.75L17.5 6.5M17.5 6.5L19.25 8.25M17.5 6.5L19.25 4.75M17.5 6.5L15.75 8.25" stroke="#141414" style="stroke:#141414;stroke:color(display-p3 0.0800 0.0800 0.0800);stroke-opacity:1;" stroke-width="1.5" stroke-linecap="round" stroke-linejoin="round"/>
</svg>
