<svg width="24" height="24" viewBox="0 0 24 24" fill="none" xmlns="http://www.w3.org/2000/svg">
<path d="M12 7C12 7 10.183 4.75 8.25 4.75C6.317 4.75 4.75 6.317 4.75 8.25C4.75 10.183 6.317 11.75 8.25 11.75C6.17893 11.75 4.75 13.4289 4.75 15.5C4.75 17.5711 6.42893 19.25 8.5 19.25C10.0955 19.25 11.4583 18.1545 12 16.75C12.5417 18.1545 13.9045 19.25 15.5 19.25C17.5711 19.25 19.25 17.5711 19.25 15.5C19.25 13.4289 17.8211 11.75 15.75 11.75C17.683 11.75 19.25 10.183 19.25 8.25C19.25 6.317 17.683 4.75 15.75 4.75C13.817 4.75 12 7 12 7ZM12 7V13.25M12 7V4.75" stroke="#141414" style="stroke:#141414;stroke:color(display-p3 0.0800 0.0800 0.0800);stroke-opacity:1;" stroke-width="1.5" stroke-linecap="round" stroke-linejoin="round"/>
</svg>
