<svg width="24" height="24" viewBox="0 0 24 24" fill="none" xmlns="http://www.w3.org/2000/svg">
<path d="M4.75 6.25L19.25 4.75M12 6V8.5M5.75 14.25C5.75 16.0513 6.04513 17.3712 6.31473 18.201C6.53282 18.8723 7.18266 19.25 7.88847 19.25H16.1115C16.8173 19.25 17.4672 18.8723 17.6853 18.201C17.9549 17.3712 18.25 16.0513 18.25 14.25M5.75 14.25C5.75 12.414 6.05662 10.9249 6.33028 9.96145C6.54405 9.20891 7.25167 8.75 8.03398 8.75H12M5.75 14.25H12M18.25 14.25C18.25 12.414 17.9434 10.9249 17.6697 9.96145C17.4559 9.20891 16.7483 8.75 15.966 8.75H12M18.25 14.25H12M12 8.75V14.25" stroke="#141414" style="stroke:#141414;stroke:color(display-p3 0.0800 0.0800 0.0800);stroke-opacity:1;" stroke-width="1.5" stroke-linecap="round" stroke-linejoin="round"/>
</svg>
