<svg width="24" height="24" viewBox="0 0 24 24" fill="none" xmlns="http://www.w3.org/2000/svg">
<path d="M5.75 7.25H18.25M8.75 13.25H9.25M8.75 10.25H9.25M8.75 16.25H9.25M11.75 13.25H12.25M11.75 10.25H12.25M11.75 16.25H12.25M14.75 13.25H15.25M14.75 10.25H15.25M14.75 16.25H15.25M7.75 19.25H16.25C17.3546 19.25 18.25 18.3546 18.25 17.25V6.75C18.25 5.64543 17.3546 4.75 16.25 4.75H7.75C6.64543 4.75 5.75 5.64543 5.75 6.75V17.25C5.75 18.3546 6.64543 19.25 7.75 19.25Z" stroke="#141414" style="stroke:#141414;stroke:color(display-p3 0.0800 0.0800 0.0800);stroke-opacity:1;" stroke-width="1.5" stroke-linecap="round" stroke-linejoin="round"/>
</svg>
