<svg width="24" height="24" viewBox="0 0 24 24" fill="none" xmlns="http://www.w3.org/2000/svg">
<path d="M19.25 9.25V8.75C19.25 7.64543 18.3546 6.75 17.25 6.75H6.75C5.64543 6.75 4.75 7.64543 4.75 8.75V17.25C4.75 18.3546 5.64543 19.25 6.75 19.25H9.25M15 13.75V15L16.25 16.25M8 4.75V8.25M16 4.75V8.25M15 19.25C12.6528 19.25 10.75 17.3472 10.75 15C10.75 12.6528 12.6528 10.75 15 10.75C17.3472 10.75 19.25 12.6528 19.25 15C19.25 17.3472 17.3472 19.25 15 19.25Z" stroke="#141414" style="stroke:#141414;stroke:color(display-p3 0.0800 0.0800 0.0800);stroke-opacity:1;" stroke-width="1.5" stroke-linecap="round" stroke-linejoin="round"/>
</svg>
