<svg width="24" height="24" viewBox="0 0 24 24" fill="none" xmlns="http://www.w3.org/2000/svg">
<path d="M4.75 16.75V17.25C4.75 18.3546 5.64543 19.25 6.75 19.25H7.25M4.75 7.25V6.75C4.75 5.64543 5.64543 4.75 6.75 4.75H7.25M19.25 16.75V17.25C19.25 18.3546 18.3546 19.25 17.25 19.25H16.75M19.25 7.25V6.75C19.25 5.64543 18.3546 4.75 17.25 4.75H16.75M7.75 8.75V14.75C7.75 15.3023 8.19772 15.75 8.75 15.75H15.25C15.8023 15.75 16.25 15.3023 16.25 14.75V8.75H14L13 7.25H11L10 8.75H7.75ZM13.25 12C13.25 12.6904 12.6904 13.25 12 13.25C11.3096 13.25 10.75 12.6904 10.75 12C10.75 11.3096 11.3096 10.75 12 10.75C12.6904 10.75 13.25 11.3096 13.25 12Z" stroke="#141414" style="stroke:#141414;stroke:color(display-p3 0.0800 0.0800 0.0800);stroke-opacity:1;" stroke-width="1.5" stroke-linecap="round" stroke-linejoin="round"/>
</svg>
