<svg width="24" height="24" viewBox="0 0 24 24" fill="none" xmlns="http://www.w3.org/2000/svg">
<path d="M8.75 7.75L9.47361 6.30279C9.643 5.964 9.98926 5.75 10.368 5.75H13.632C14.0107 5.75 14.357 5.964 14.5264 6.30279L15.25 7.75M8.75 7.75H15.25M8.75 7.75H7M15.25 7.75H17M17 7.75H18.25C18.8023 7.75 19.25 8.19772 19.25 8.75V18.25C19.25 18.8023 18.8023 19.25 18.25 19.25H5.75C5.19772 19.25 4.75 18.8023 4.75 18.25V8.75C4.75 8.19772 5.19772 7.75 5.75 7.75H7M17 7.75V6.75M7 7.75V6.75" stroke="#141414" style="stroke:#141414;stroke:color(display-p3 0.0800 0.0800 0.0800);stroke-opacity:1;" stroke-width="1.5" stroke-linecap="round" stroke-linejoin="round"/>
<path d="M12.25 10.75L10.75 13.25H13.25L11.75 16.25" stroke="#141414" style="stroke:#141414;stroke:color(display-p3 0.0800 0.0800 0.0800);stroke-opacity:1;" stroke-width="1.5" stroke-linecap="round" stroke-linejoin="round"/>
</svg>
