<svg width="24" height="24" viewBox="0 0 24 24" fill="none" xmlns="http://www.w3.org/2000/svg">
<path d="M15.1439 8.75L14.4188 6.20713C14.1198 5.15871 12.9728 4.53653 11.857 4.81745L6.30084 6.21626C5.18499 6.49719 4.5228 7.57484 4.82179 8.62326L6.58124 14.7929C6.88023 15.8413 8.02718 16.4635 9.14302 16.1825L9.75 16.0297M15.1439 8.75H11.75C10.6454 8.75 9.75 9.64543 9.75 10.75V16.0297M15.1439 8.75H17.25C18.3546 8.75 19.25 9.64543 19.25 10.75V17.25C19.25 18.3546 18.3546 19.25 17.25 19.25H11.75C10.6454 19.25 9.75 18.3546 9.75 17.25V16.0297" stroke="#141414" style="stroke:#141414;stroke:color(display-p3 0.0800 0.0800 0.0800);stroke-opacity:1;" stroke-width="1.5" stroke-linecap="round" stroke-linejoin="round"/>
</svg>
