<svg width="24" height="24" viewBox="0 0 24 24" fill="none" xmlns="http://www.w3.org/2000/svg">
<path d="M14.6248 13.3301C14.6249 13.3201 14.625 13.31 14.625 13.3C14.625 11.8917 13.4497 10.75 12 10.75C10.5503 10.75 9.375 11.8917 9.375 13.3L9.37518 13.3301C7.89096 13.5362 6.75 14.7762 6.75 16.275C6.75 17.918 8.12113 19.25 9.8125 19.25C10.6694 19.25 11.4442 18.9081 12 18.3571C12.5559 18.9081 13.3306 19.25 14.1875 19.25C15.8789 19.25 17.25 17.918 17.25 16.275C17.25 14.7762 16.109 13.5363 14.6248 13.3301Z" stroke="#141414" style="stroke:#141414;stroke:color(display-p3 0.0800 0.0800 0.0800);stroke-opacity:1;" stroke-width="1.5" stroke-linecap="round" stroke-linejoin="round"/>
<circle cx="6" cy="10" r="1.25" stroke="#141414" style="stroke:#141414;stroke:color(display-p3 0.0800 0.0800 0.0800);stroke-opacity:1;" stroke-width="1.5" stroke-linecap="round" stroke-linejoin="round"/>
<circle cx="12" cy="6" r="1.25" stroke="#141414" style="stroke:#141414;stroke:color(display-p3 0.0800 0.0800 0.0800);stroke-opacity:1;" stroke-width="1.5" stroke-linecap="round" stroke-linejoin="round"/>
<circle cx="18" cy="10" r="1.25" stroke="#141414" style="stroke:#141414;stroke:color(display-p3 0.0800 0.0800 0.0800);stroke-opacity:1;" stroke-width="1.5" stroke-linecap="round" stroke-linejoin="round"/>
</svg>
