<svg width="24" height="24" viewBox="0 0 24 24" fill="none" xmlns="http://www.w3.org/2000/svg">
<path d="M16.75 4.75H17.25C18.3546 4.75 19.25 5.64543 19.25 6.75V7.25M16.75 19.25H17.25C18.3546 19.25 19.25 18.3546 19.25 17.25V16.75M7.25 4.75H6.75C5.64543 4.75 4.75 5.64543 4.75 6.75V7.25M7.25 19.25H6.75C5.64543 19.25 4.75 18.3546 4.75 17.25V16.75M12 4.75V12M12 4.75H10.75M12 4.75H13.25M12 12V19.25M12 12H19.25M12 12L4.75 12M12 19.25H10.75M12 19.25H13.25M19.25 12V10.75M19.25 12V13.25M4.75 12V10.75M4.75 12V13.25" stroke="#141414" style="stroke:#141414;stroke:color(display-p3 0.0800 0.0800 0.0800);stroke-opacity:1;" stroke-width="1.5" stroke-linecap="round" stroke-linejoin="round"/>
</svg>
