<svg width="24" height="24" viewBox="0 0 24 24" fill="none" xmlns="http://www.w3.org/2000/svg">
<path d="M14.75 13.25C17.0972 13.25 19 11.3472 19 9C19 6.65279 17.0972 4.75 14.75 4.75C13.7554 4.75 12.7059 5.33354 11.8267 6.0061M9 13.25C6.65279 13.25 4.75 11.3472 4.75 9C4.75 6.65279 6.65279 4.75 9 4.75C9.9946 4.75 10.9992 5.33354 11.8267 6.0061M11.8267 6.0061C10.6309 6.92074 9.75 8 9.75 8M10.75 15.75V16.25M13.25 15.75V16.25M7.79167 13.25L6.75 19.25H17.25L16.2083 13.25H7.79167Z" stroke="#141414" style="stroke:#141414;stroke:color(display-p3 0.0800 0.0800 0.0800);stroke-opacity:1;" stroke-width="1.5" stroke-linecap="round" stroke-linejoin="round"/>
</svg>
