<svg width="24" height="24" viewBox="0 0 24 24" fill="none" xmlns="http://www.w3.org/2000/svg">
<path d="M11.75 11.75L12.25 12.25M9.75 9.75L10.25 10.25M13.75 13.75L14.25 14.25M19.25 12C19.25 16.0041 16.0041 19.25 12 19.25C7.99594 19.25 4.75 16.0041 4.75 12C4.75 7.99594 7.99594 4.75 12 4.75C16.0041 4.75 19.25 7.99594 19.25 12ZM7.75 6.75C7.75 7.30228 7.30228 7.75 6.75 7.75C6.19772 7.75 5.75 7.30228 5.75 6.75C5.75 6.19772 6.19772 5.75 6.75 5.75C7.30228 5.75 7.75 6.19772 7.75 6.75ZM18.25 17.25C18.25 17.8023 17.8023 18.25 17.25 18.25C16.6977 18.25 16.25 17.8023 16.25 17.25C16.25 16.6977 16.6977 16.25 17.25 16.25C17.8023 16.25 18.25 16.6977 18.25 17.25Z" stroke="#141414" style="stroke:#141414;stroke:color(display-p3 0.0800 0.0800 0.0800);stroke-opacity:1;" stroke-width="1.5" stroke-linecap="round" stroke-linejoin="round"/>
</svg>
