<svg width="24" height="24" viewBox="0 0 24 24" fill="none" xmlns="http://www.w3.org/2000/svg">
<path d="M17.3021 14.8143L19.25 16.7622C15.9329 20.0793 10.5549 20.0793 7.23781 16.7622C3.92073 13.4451 3.92073 8.06708 7.23781 4.75L9.18573 6.69792M17.3021 14.8143L13.2439 10.7561M17.3021 14.8143C16.1814 15.9349 14.7127 16.4952 13.2439 16.4952M9.18573 14.8143L13.2439 10.7561M9.18573 14.8143C8.0651 13.6936 7.50478 12.2249 7.50478 10.7561M9.18573 14.8143C10.3064 15.9349 11.7751 16.4952 13.2439 16.4952M9.18573 6.69792L13.2439 10.7561M9.18573 6.69792C8.0651 7.81856 7.50478 9.28733 7.50478 10.7561M13.2439 10.7561H7.50478M13.2439 10.7561V16.4952" stroke="#141414" style="stroke:#141414;stroke:color(display-p3 0.0800 0.0800 0.0800);stroke-opacity:1;" stroke-width="1.5" stroke-linecap="round" stroke-linejoin="round"/>
</svg>
