<svg width="24" height="24" viewBox="0 0 24 24" fill="none" xmlns="http://www.w3.org/2000/svg">
<path d="M16 11.0583L19.25 4.75M11.361 12.8571C11.6257 12.4902 11.8529 12.1459 12.0424 11.841C12.5042 11.0981 13.3214 10.643 14.1514 10.7717L17.5997 11.3063C18.7496 11.4846 19.4908 12.6934 19.1782 13.8808L19.0438 14.3914M11.361 12.8571C10.3609 14.2428 8.82391 15.951 6.75 17.0764C6.75 17.0764 7.47204 17.8601 10 18.4863M11.361 12.8571L19.0438 14.3914M19.0438 14.3914L17.7648 19.25C14.164 19.25 11.6822 18.903 10 18.4863M10 18.4863C10 18.4863 11.7076 17.25 12.25 15.75M13.8047 19.0877C13.8047 19.0877 14.7076 18.25 15.25 16.75M7 4.75C7 4.75 6.99997 8 4.75 8C7.00003 8 7 11.25 7 11.25C7 11.25 7 8 9.25 8C7 8 7 4.75 7 4.75Z" stroke="#141414" style="stroke:#141414;stroke:color(display-p3 0.0800 0.0800 0.0800);stroke-opacity:1;" stroke-width="1.5" stroke-linecap="round" stroke-linejoin="round"/>
</svg>
