<svg width="24" height="24" viewBox="0 0 24 24" fill="none" xmlns="http://www.w3.org/2000/svg">
<path d="M16.25 8.75H15.75C14.0931 8.75 12.75 10.0931 12.75 11.75V12.25C12.75 13.9069 14.0931 15.25 15.75 15.25H16.25M11.25 8.75H10.75C9.09315 8.75 7.75 10.0931 7.75 11.75V12.25C7.75 13.9069 9.09315 15.25 10.75 15.25H11.25M19.25 7.75V16.25C19.25 17.3546 18.3546 18.25 17.25 18.25H6.75C5.64543 18.25 4.75 17.3546 4.75 16.25V7.75C4.75 6.64543 5.64543 5.75 6.75 5.75H17.25C18.3546 5.75 19.25 6.64543 19.25 7.75Z" stroke="#141414" style="stroke:#141414;stroke:color(display-p3 0.0800 0.0800 0.0800);stroke-opacity:1;" stroke-width="1.5" stroke-linecap="round" stroke-linejoin="round"/>
</svg>
