<svg width="24" height="24" viewBox="0 0 24 24" fill="none" xmlns="http://www.w3.org/2000/svg">
<path d="M5.75 5.75H17.25C18.3546 5.75 19.25 6.64543 19.25 7.75V19.25L5.75 5.75ZM5.75 5.75L4.75 4.75M4.75 10.75V16.25C4.75 17.3546 5.64543 18.25 6.75 18.25H12.25M16.25 8.75H15.75C14.0931 8.75 12.75 10.0931 12.75 11.75V12.5M15.5 15.25H16.25M11.25 8.75H10.75C10.3039 8.75 9.88053 8.84737 9.5 9.02202M7.75 11.75V12.25C7.75 13.9069 9.09315 15.25 10.75 15.25H11.25" stroke="#141414" style="stroke:#141414;stroke:color(display-p3 0.0800 0.0800 0.0800);stroke-opacity:1;" stroke-width="1.5" stroke-linecap="round" stroke-linejoin="round"/>
</svg>
