<svg width="24" height="24" viewBox="0 0 24 24" fill="none" xmlns="http://www.w3.org/2000/svg">
<path d="M10.0227 12.75L10.25 11.75H4.75L5.60071 16.4289C5.68716 16.9044 6.10129 17.25 6.58458 17.25H8.45177C8.91867 17.25 9.32343 16.9269 9.4269 16.4716L9.47727 16.25M10.0227 12.75H10.5C11.4665 12.75 12.25 13.5335 12.25 14.5C12.25 15.4665 11.4665 16.25 10.5 16.25H9.47727M10.0227 12.75L9.47727 16.25M14.75 19.25H19.25V5.75C19.25 5.19771 18.8023 4.75 18.25 4.75H5.75C5.19771 4.75 4.75 5.19771 4.75 5.75V7.25H11.75C13.4069 7.25 14.75 8.59315 14.75 10.25V19.25ZM14.75 19.25H4.75" stroke="#141414" style="stroke:#141414;stroke:color(display-p3 0.0800 0.0800 0.0800);stroke-opacity:1;" stroke-width="1.5" stroke-linecap="round" stroke-linejoin="round"/>
</svg>
