<svg width="24" height="24" viewBox="0 0 24 24" fill="none" xmlns="http://www.w3.org/2000/svg">
<path d="M12 5.5V4.75M15.25 6.37083L15.625 5.72132M17.629 8.75038L18.2785 8.37538M13.5 12L19.25 12M17.6292 15.25L18.2787 15.625M15.2499 17.6292L15.6249 18.2787M12 19.25V18.75M8.375 18.2787L8.625 17.8457L11.2344 13.0625M5.72128 15.6251L6.1543 15.3751M4.75 12H5.25M5.72132 8.375L6.15433 8.625M8.37496 5.72136L8.62496 6.15437L11.245 10.5704M18.25 12C18.25 15.4518 15.4518 18.25 12 18.25C8.54822 18.25 5.75 15.4518 5.75 12C5.75 8.54822 8.54822 5.75 12 5.75C15.4518 5.75 18.25 8.54822 18.25 12ZM13.25 12C13.25 12.6904 12.6904 13.25 12 13.25C11.3096 13.25 10.75 12.6904 10.75 12C10.75 11.3096 11.3096 10.75 12 10.75C12.6904 10.75 13.25 11.3096 13.25 12Z" stroke="#141414" style="stroke:#141414;stroke:color(display-p3 0.0800 0.0800 0.0800);stroke-opacity:1;" stroke-width="1.5" stroke-linecap="round" stroke-linejoin="round"/>
</svg>
