<svg width="24" height="24" viewBox="0 0 24 24" fill="none" xmlns="http://www.w3.org/2000/svg">
<path d="M12.25 4.75H12C8.13401 4.75 4.75 6.84483 4.75 11.5C4.75 13.2675 5.23783 14.6659 6.05464 15.7206C6.29358 16.0292 6.38851 16.4392 6.2231 16.7926C6.12235 17.0079 6.01633 17.2134 5.90792 17.4082C5.45369 18.2242 6.07951 19.4131 6.99526 19.2297C8.0113 19.0263 9.14752 18.722 10.0954 18.2738C10.2933 18.1803 10.5134 18.1439 10.7305 18.1714C11.145 18.224 11.5695 18.25 12 18.25C15.7248 18.25 19.0021 16.3055 19.2366 12L19.25 11.75M19.25 4.75C19.25 4.75 17.3214 6.83929 16.3571 9.25L14.75 7.32143" stroke="#141414" style="stroke:#141414;stroke:color(display-p3 0.0800 0.0800 0.0800);stroke-opacity:1;" stroke-width="1.5" stroke-linecap="round" stroke-linejoin="round"/>
</svg>
