<svg width="24" height="24" viewBox="0 0 24 24" fill="none" xmlns="http://www.w3.org/2000/svg">
<path d="M16.7499 4.74991L18.25 4.74988C18.8023 4.74987 19.25 5.19758 19.25 5.74988V8.24986M16.7499 4.74991L7.74998 4.74995C6.09313 4.74996 4.75 6.09309 4.74999 7.74993L4.74994 16.2499C4.74993 17.9068 6.09308 19.25 7.74994 19.25H16.7499M16.7499 4.74991V8.24986M16.7499 19.25H18.25C18.8023 19.25 19.25 18.8022 19.25 18.25V15.7499M16.7499 19.25V15.7499M16.7499 8.24986H19.25M16.7499 8.24986V11.9999M19.25 8.24986V11.9999M16.7499 15.7499H19.25M16.7499 15.7499V11.9999M19.25 15.7499V11.9999M16.7499 11.9999H19.25M8.75001 15.25C8.75001 15.25 9.42501 13.75 11 13.75C12.575 13.75 13.25 15.25 13.25 15.25M12.25 9.99996C12.25 10.6903 11.6904 11.25 11 11.25C10.3097 11.25 9.75001 10.6903 9.75001 9.99996C9.75001 9.30961 10.3097 8.74996 11 8.74996C11.6904 8.74996 12.25 9.30961 12.25 9.99996Z" stroke="#141414" style="stroke:#141414;stroke:color(display-p3 0.0800 0.0800 0.0800);stroke-opacity:1;" stroke-width="1.5" stroke-linecap="round" stroke-linejoin="round"/>
</svg>
