<svg width="24" height="24" viewBox="0 0 24 24" fill="none" xmlns="http://www.w3.org/2000/svg">
<path d="M11.75 7.75V7C11.3358 7 11 7.33579 11 7.75H11.75ZM11.75 16.25H11C11 16.6642 11.3358 17 11.75 17V16.25ZM18.5 12C18.5 15.5898 15.5898 18.5 12 18.5V20C16.4182 20 20 16.4182 20 12H18.5ZM12 18.5C8.41021 18.5 5.5 15.5898 5.5 12H4C4 16.4182 7.58178 20 12 20V18.5ZM5.5 12C5.5 8.41021 8.41021 5.5 12 5.5V4C7.58178 4 4 7.58178 4 12H5.5ZM12 5.5C15.5898 5.5 18.5 8.41021 18.5 12H20C20 7.58178 16.4182 4 12 4V5.5ZM15.5 12C15.5 13.945 13.953 15.5 12.0714 15.5V17C14.8053 17 17 14.7494 17 12H15.5ZM12.0714 8.5C13.953 8.5 15.5 10.055 15.5 12H17C17 9.25064 14.8053 7 12.0714 7V8.5ZM12.0714 7H11.75V8.5H12.0714V7ZM12.0714 15.5H11.75V17H12.0714V15.5ZM12.5 16.25V7.75H11V16.25H12.5Z" fill="#141414" style="fill:#141414;fill:color(display-p3 0.0800 0.0800 0.0800);fill-opacity:1;"/>
</svg>
