<svg width="24" height="24" viewBox="0 0 24 24" fill="none" xmlns="http://www.w3.org/2000/svg">
<path d="M9 11H9.01M12 12H12.01M13 15H13.01M14.1255 8.79666C14.1047 8.79666 14.0839 8.79716 14.063 8.79765C14.042 8.79815 14.021 8.79865 14 8.79865C11.8006 8.79865 10.0159 6.98861 10.0001 4.75C6.96865 5.63517 4.75 8.48219 4.75 11.8576C4.75 15.9403 7.99594 19.25 12 19.25C16.0041 19.25 19.25 15.9403 19.25 11.8576C19.25 11.79 19.2491 11.7225 19.2473 11.6554C18.8548 11.7866 18.4355 11.8576 18 11.8576C16.1354 11.8576 14.5689 10.5571 14.1255 8.79666Z" stroke="#141414" style="stroke:#141414;stroke:color(display-p3 0.0800 0.0800 0.0800);stroke-opacity:1;" stroke-width="1.5" stroke-linecap="round" stroke-linejoin="round"/>
</svg>
