<svg width="24" height="24" viewBox="0 0 24 24" fill="none" xmlns="http://www.w3.org/2000/svg">
<path d="M8.25 8.75H7.75C6.64543 8.75 5.75 9.64543 5.75 10.75V13.25C5.75 14.3546 6.64543 15.25 7.75 15.25H8.25M13.25 8.75H11.75C11.1977 8.75 10.75 9.19772 10.75 9.75V10.573C10.75 10.9819 10.999 11.3496 11.3786 11.5014L12.6214 11.9986C13.001 12.1504 13.25 12.5181 13.25 12.927V14.25C13.25 14.8023 12.8023 15.25 12.25 15.25H10.75M18.25 8.75H16.75C16.1977 8.75 15.75 9.19772 15.75 9.75V10.573C15.75 10.9819 15.999 11.3496 16.3786 11.5014L17.6214 11.9986C18.001 12.1504 18.25 12.5181 18.25 12.927V14.25C18.25 14.8023 17.8023 15.25 17.25 15.25H15.75" stroke="#141414" style="stroke:#141414;stroke:color(display-p3 0.0800 0.0800 0.0800);stroke-opacity:1;" stroke-width="1.5" stroke-linecap="round" stroke-linejoin="round"/>
</svg>
