<svg width="24" height="24" viewBox="0 0 24 24" fill="none" xmlns="http://www.w3.org/2000/svg">
<path d="M19.25 7C19.25 8.10457 15.866 9.25 12 9.25C8.13401 9.25 4.75 8.10457 4.75 7M19.25 7C19.25 5.89543 15.866 4.75 12 4.75C8.13401 4.75 4.75 5.89543 4.75 7M19.25 7V12.25M4.75 7V17C4.75 18.1046 8.13401 19.25 12 19.25H12.25M4.75 12C4.75 13.1046 8.13401 14.25 12 14.25H12.25M15.75 15.75L17.5 17.5M17.5 17.5L19.25 19.25M17.5 17.5L19.25 15.75M17.5 17.5L15.75 19.25" stroke="#141414" style="stroke:#141414;stroke:color(display-p3 0.0800 0.0800 0.0800);stroke-opacity:1;" stroke-width="1.5" stroke-linecap="round" stroke-linejoin="round"/>
</svg>
