<svg width="24" height="24" viewBox="0 0 24 24" fill="none" xmlns="http://www.w3.org/2000/svg">
<path d="M8.25 17.25H6.75C5.64543 17.25 4.75 16.3546 4.75 15.25V6.75C4.75 5.64543 5.64543 4.75 6.75 4.75H17.25C17.6667 4.75 18.0536 4.87741 18.3739 5.0954C18.4172 5.12486 18.4592 5.15598 18.5 5.18866C18.5807 5.25333 18.6562 5.32412 18.726 5.40033M13.75 19.25H17.25C18.3546 19.25 19.25 18.3546 19.25 17.25V10.75C19.25 9.64543 18.3546 8.75 17.25 8.75H13.75C12.6454 8.75 11.75 9.64543 11.75 10.75V17.25C11.75 18.3546 12.6454 19.25 13.75 19.25Z" stroke="#141414" style="stroke:#141414;stroke:color(display-p3 0.0800 0.0800 0.0800);stroke-opacity:1;" stroke-width="1.5" stroke-linecap="round" stroke-linejoin="round"/>
</svg>
