<svg width="24" height="24" viewBox="0 0 24 24" fill="none" xmlns="http://www.w3.org/2000/svg">
<path d="M14.7122 17.7121C12.662 19.7624 9.33786 19.7624 7.28761 17.7121C5.74334 16.1678 5.36223 13.9009 6.14428 11.9999M13.0001 8.99976L11.51 12.7884C11.1639 13.4541 11.6469 14.2498 12.3972 14.2498H16.2501L19.2501 19.2498M12.2135 10.9998L7.00012 7.74976L4.75012 10.2498M16.2501 6.99976C16.2501 8.2424 15.2428 9.24976 14.0001 9.24976C12.7575 9.24976 11.7501 8.2424 11.7501 6.99976C11.7501 5.75711 12.7575 4.74976 14.0001 4.74976C15.2428 4.74976 16.2501 5.75711 16.2501 6.99976Z" stroke="#141414" style="stroke:#141414;stroke:color(display-p3 0.0800 0.0800 0.0800);stroke-opacity:1;" stroke-width="1.5" stroke-linecap="round" stroke-linejoin="round"/>
</svg>
