<svg width="24" height="24" viewBox="0 0 24 24" fill="none" xmlns="http://www.w3.org/2000/svg">
<path d="M5.91436 7.38375L4.93685 14.6173C4.8246 15.448 5.24225 16.2606 5.98306 16.6528L9.00001 18.25L10 15.75C10 15.75 10.6563 16.25 12 16.25C13.3438 16.25 14 15.75 14 15.75L15 18.25L18.017 16.6528C18.7578 16.2606 19.1754 15.448 19.0632 14.6173L18.0857 7.38375C18.0334 6.99736 17.7614 6.67655 17.3887 6.56189L14.75 5.75V6.25C14.75 6.80228 14.3023 7.25 13.75 7.25H10.25C9.69772 7.25 9.25001 6.80228 9.25001 6.25V5.75L6.61128 6.56189C6.23861 6.67655 5.96658 6.99736 5.91436 7.38375Z" stroke="#141414" style="stroke:#141414;stroke:color(display-p3 0.0800 0.0800 0.0800);stroke-opacity:1;" stroke-width="1.5" stroke-linecap="round" stroke-linejoin="round"/>
<path d="M10.5 12C10.5 12.2761 10.2761 12.5 10 12.5C9.72386 12.5 9.5 12.2761 9.5 12C9.5 11.7239 9.72386 11.5 10 11.5C10.2761 11.5 10.5 11.7239 10.5 12Z" stroke="#141414" style="stroke:#141414;stroke:color(display-p3 0.0800 0.0800 0.0800);stroke-opacity:1;" stroke-linecap="round" stroke-linejoin="round"/>
<path d="M14.5 12C14.5 12.2761 14.2761 12.5 14 12.5C13.7239 12.5 13.5 12.2761 13.5 12C13.5 11.7239 13.7239 11.5 14 11.5C14.2761 11.5 14.5 11.7239 14.5 12Z" stroke="#141414" style="stroke:#141414;stroke:color(display-p3 0.0800 0.0800 0.0800);stroke-opacity:1;" stroke-linecap="round" stroke-linejoin="round"/>
</svg>
