<svg width="24" height="24" viewBox="0 0 24 24" fill="none" xmlns="http://www.w3.org/2000/svg">
<path d="M5.75 12.0176V5.75C5.75 5.19772 6.19772 4.75 6.75 4.75H17.25C17.8023 4.75 18.25 5.19772 18.25 5.75V12.0176M17.25 17.25V18.25M6.75 17.25V18.25M16.25 11.75V10.75C16.25 10.1977 15.8023 9.75 15.25 9.75H8.75C8.19772 9.75 7.75 10.1977 7.75 10.75V11.75M17.25 11.75H6.75C5.64543 11.75 4.75 12.6454 4.75 13.75V17.25H19.25V13.75C19.25 12.6454 18.3546 11.75 17.25 11.75Z" stroke="#141414" style="stroke:#141414;stroke:color(display-p3 0.0800 0.0800 0.0800);stroke-opacity:1;" stroke-width="1.5" stroke-linecap="round" stroke-linejoin="round"/>
</svg>
