<svg width="24" height="24" viewBox="0 0 24 24" fill="none" xmlns="http://www.w3.org/2000/svg">
<path d="M7.25 13.25H6.5C5.5335 13.25 4.75 12.4665 4.75 11.5C4.75 10.5335 5.5335 9.75 6.5 9.75H8C8 9.75 10 11.25 12 11.25C14 11.25 16 9.75 16 9.75H17.5C18.4665 9.75 19.25 10.5335 19.25 11.5C19.25 12.4665 18.4665 13.25 17.5 13.25H16.75M7.25 13.25H9C10.6 13.25 9.5 16.25 12 16.25C14.5 16.25 13.4 13.25 15 13.25H16.75M7.25 13.25C7.25 13.25 7.25 16.25 4.75 16.25M16.75 13.25C16.75 13.25 16.75 16.25 19.25 16.25M4.75 6.75H9.25M14.75 6.75H19.25" stroke="#141414" style="stroke:#141414;stroke:color(display-p3 0.0800 0.0800 0.0800);stroke-opacity:1;" stroke-width="1.5" stroke-linecap="round" stroke-linejoin="round"/>
</svg>
