<svg width="24" height="24" viewBox="0 0 24 24" fill="none" xmlns="http://www.w3.org/2000/svg">
<path d="M4.75 4.75L19.25 19.25M8.75 16.75V17.25C8.75 18.3546 9.64543 19.25 10.75 19.25H12C12.7932 19.25 13.385 18.7216 13.8234 18M7.5 7.4074C8.44245 5.85405 10.1607 4.75 12 4.75C14.7614 4.75 17.25 7.23858 17.25 10C17.25 11.0673 16.9139 11.9071 16.5014 12.5359C15.9848 13.3235 15.4197 14.1365 15.0106 15M14.2499 10.25V10C14.2499 8.75736 13.2426 7.75 11.9999 7.75C10.9291 7.75 10.033 8.49801 9.80566 9.5" stroke="#141414" style="stroke:#141414;stroke:color(display-p3 0.0800 0.0800 0.0800);stroke-opacity:1;" stroke-width="1.5" stroke-linecap="round" stroke-linejoin="round"/>
</svg>
