<svg width="24" height="24" viewBox="0 0 24 24" fill="none" xmlns="http://www.w3.org/2000/svg">
<path d="M13.75 9.75H15.75L16.25 14.75L15.25 15.25H10M8.5 15.25H10M10 15.25L8.75 12.75H10.25M6 4.75L4.75 7.25H7.25L6 10.25M9.25 17C9.25 18.2426 8.24264 19.25 7 19.25C5.75736 19.25 4.75 18.2426 4.75 17C4.75 15.7574 5.75736 14.75 7 14.75C8.24264 14.75 9.25 15.7574 9.25 17ZM19.25 17C19.25 18.2426 18.2426 19.25 17 19.25C15.7574 19.25 14.75 18.2426 14.75 17C14.75 15.7574 15.7574 14.75 17 14.75C18.2426 14.75 19.25 15.7574 19.25 17Z" stroke="#141414" style="stroke:#141414;stroke:color(display-p3 0.0800 0.0800 0.0800);stroke-opacity:1;" stroke-width="1.5" stroke-linecap="round" stroke-linejoin="round"/>
</svg>
