<svg width="24" height="24" viewBox="0 0 24 24" fill="none" xmlns="http://www.w3.org/2000/svg">
<path d="M12.25 18.25H6.75C5.64543 18.25 4.75 17.3546 4.75 16.25V7.75C4.75 6.64543 5.64543 5.75 6.75 5.75H17.25C18.3546 5.75 19.25 6.64543 19.25 7.75V10.25" stroke="#141414" style="stroke:#141414;stroke:color(display-p3 0.0800 0.0800 0.0800);stroke-opacity:1;" stroke-width="1.5" stroke-linecap="round" stroke-linejoin="round"/>
<path d="M5.5 6.5L12 12.25L18.5 6.5" stroke="#141414" style="stroke:#141414;stroke:color(display-p3 0.0800 0.0800 0.0800);stroke-opacity:1;" stroke-width="1.5" stroke-linecap="round" stroke-linejoin="round"/>
<path d="M18 13.75V16.25" stroke="#141414" style="stroke:#141414;stroke:color(display-p3 0.0800 0.0800 0.0800);stroke-opacity:1;" stroke-width="1.5" stroke-linecap="round" stroke-linejoin="round"/>
<path d="M18.5 19C18.5 19.2761 18.2761 19.5 18 19.5C17.7239 19.5 17.5 19.2761 17.5 19C17.5 18.7239 17.7239 18.5 18 18.5C18.2761 18.5 18.5 18.7239 18.5 19Z" stroke="#141414" style="stroke:#141414;stroke:color(display-p3 0.0800 0.0800 0.0800);stroke-opacity:1;"/>
</svg>
