<svg width="24" height="24" viewBox="0 0 24 24" fill="none" xmlns="http://www.w3.org/2000/svg">
<path d="M7.25 15.25H5.75C5.19772 15.25 4.75 14.8023 4.75 14.25V12M7.25 8.75H5.75C5.19772 8.75 4.75 9.19772 4.75 9.75V12M4.75 12H7.25M13.25 8.75H12.375C11.4775 8.75 10.75 9.47754 10.75 10.375V10.75C10.75 11.4404 11.3096 12 12 12C12.6904 12 13.25 12.5596 13.25 13.25V13.625C13.25 14.5225 12.5225 15.25 11.625 15.25H10.75M19.25 8.75H18.75C17.6454 8.75 16.75 9.64543 16.75 10.75V13.25C16.75 14.3546 17.6454 15.25 18.75 15.25H19.25" stroke="#141414" style="stroke:#141414;stroke:color(display-p3 0.0800 0.0800 0.0800);stroke-opacity:1;" stroke-width="1.5" stroke-linecap="round" stroke-linejoin="round"/>
</svg>
