<svg width="24" height="24" viewBox="0 0 24 24" fill="none" xmlns="http://www.w3.org/2000/svg">
<path d="M10.25 18.0781L10 17.9938C6.0655 16.9288 4.75 12.867 4.75 12C4.75 11 6.5 5.75 12 5.75C15.0668 5.75 16.9677 7.38234 18.0493 9L18.25 9.25M15 14.75V13.4286C15 12.6396 15.6716 12 16.5 12C17.3284 12 18 12.6396 18 13.4286V14.75M10.3932 13.575C9.99532 13.1692 9.75 12.6132 9.75 12C9.75 10.7574 10.7574 9.75 12 9.75C12.6253 9.75 13.191 10.0051 13.5987 10.4168M13.75 14.75V18.25C13.75 18.8023 14.1977 19.25 14.75 19.25H18.25C18.8023 19.25 19.25 18.8023 19.25 18.25V14.75H13.75Z" stroke="#141414" style="stroke:#141414;stroke:color(display-p3 0.0800 0.0800 0.0800);stroke-opacity:1;" stroke-width="1.5" stroke-linecap="round" stroke-linejoin="round"/>
</svg>
