<svg width="24" height="24" viewBox="0 0 24 24" fill="none" xmlns="http://www.w3.org/2000/svg">
<path d="M18.9706 10C18.1025 6.9686 15.3103 4.75 12 4.75C7.99594 4.75 4.75 7.99594 4.75 12C4.75 16.0041 7.99594 19.25 12 19.25C13.2693 19.25 14.4623 18.9238 15.5 18.3507" stroke="#141414" style="stroke:#141414;stroke:color(display-p3 0.0800 0.0800 0.0800);stroke-opacity:1;" stroke-width="1.5" stroke-linecap="round" stroke-linejoin="round"/>
<path d="M9.75 14.75C9.75 14.75 10.5 13.75 12 13.75C13.5 13.75 14.25 14.75 14.25 14.75" stroke="#141414" style="stroke:#141414;stroke:color(display-p3 0.0800 0.0800 0.0800);stroke-opacity:1;" stroke-width="1.5" stroke-linecap="round" stroke-linejoin="round"/>
<path d="M19.25 15C19.25 15.6904 18.6904 16.25 18 16.25C17.3096 16.25 16.75 15.6904 16.75 15C16.75 14.3096 18 12.75 18 12.75C18 12.75 19.25 14.3096 19.25 15Z" stroke="#141414" style="stroke:#141414;stroke:color(display-p3 0.0800 0.0800 0.0800);stroke-opacity:1;" stroke-width="1.5" stroke-linecap="round" stroke-linejoin="round"/>
<path d="M10.5 10C10.5 10.2761 10.2761 10.5 10 10.5C9.72386 10.5 9.5 10.2761 9.5 10C9.5 9.72386 9.72386 9.5 10 9.5C10.2761 9.5 10.5 9.72386 10.5 10Z" stroke="#141414" style="stroke:#141414;stroke:color(display-p3 0.0800 0.0800 0.0800);stroke-opacity:1;" stroke-linecap="round" stroke-linejoin="round"/>
<path d="M14.5 10C14.5 10.2761 14.2761 10.5 14 10.5C13.7239 10.5 13.5 10.2761 13.5 10C13.5 9.72386 13.7239 9.5 14 9.5C14.2761 9.5 14.5 9.72386 14.5 10Z" stroke="#141414" style="stroke:#141414;stroke:color(display-p3 0.0800 0.0800 0.0800);stroke-opacity:1;" stroke-linecap="round" stroke-linejoin="round"/>
</svg>
