<svg width="24" height="24" viewBox="0 0 24 24" fill="none" xmlns="http://www.w3.org/2000/svg">
<path d="M5.02937 10C4.84744 10.6353 4.75 11.3063 4.75 12C4.75 16.0041 7.99594 19.25 12 19.25C16.0041 19.25 19.25 16.0041 19.25 12C19.25 11.3063 19.1526 10.6353 18.9706 10" stroke="#141414" style="stroke:#141414;stroke:color(display-p3 0.0800 0.0800 0.0800);stroke-opacity:1;" stroke-width="1.5" stroke-linecap="round" stroke-linejoin="round"/>
<path d="M19.25 6.5C19.25 7.4665 16.0041 8.25 12 8.25C7.99594 8.25 4.75 7.4665 4.75 6.5C4.75 5.5335 7.99594 4.75 12 4.75C16.0041 4.75 19.25 5.5335 19.25 6.5Z" stroke="#141414" style="stroke:#141414;stroke:color(display-p3 0.0800 0.0800 0.0800);stroke-opacity:1;" stroke-width="1.5" stroke-linecap="round" stroke-linejoin="round"/>
<path d="M9.75 15.75C9.75 15.75 10.5 16.75 12 16.75C13.5 16.75 14.25 15.75 14.25 15.75" stroke="#141414" style="stroke:#141414;stroke:color(display-p3 0.0800 0.0800 0.0800);stroke-opacity:1;" stroke-width="1.5" stroke-linecap="round" stroke-linejoin="round"/>
<path d="M10.5 12C10.5 12.2761 10.2761 12.5 10 12.5C9.72386 12.5 9.5 12.2761 9.5 12C9.5 11.7239 9.72386 11.5 10 11.5C10.2761 11.5 10.5 11.7239 10.5 12Z" stroke="#141414" style="stroke:#141414;stroke:color(display-p3 0.0800 0.0800 0.0800);stroke-opacity:1;"/>
<path d="M14.5 12C14.5 12.2761 14.2761 12.5 14 12.5C13.7239 12.5 13.5 12.2761 13.5 12C13.5 11.7239 13.7239 11.5 14 11.5C14.2761 11.5 14.5 11.7239 14.5 12Z" stroke="#141414" style="stroke:#141414;stroke:color(display-p3 0.0800 0.0800 0.0800);stroke-opacity:1;"/>
</svg>
