<svg width="24" height="24" viewBox="0 0 24 24" fill="none" xmlns="http://www.w3.org/2000/svg">
<path d="M9.75 5.50325C9.75 5.08724 10.1163 4.75 10.5682 4.75C12.6016 4.75 14.25 6.26758 14.25 8.13961V8.75C14.25 9.30229 14.6977 9.75 15.25 9.75H18.4968C18.9128 9.75 19.25 10.1163 19.25 10.5682C19.25 12.6016 17.7324 14.25 15.8604 14.25H15.25C14.6977 14.25 14.25 14.6977 14.25 15.25V18.4968C14.25 18.9128 13.8837 19.25 13.4318 19.25C11.3984 19.25 9.75 17.7324 9.75 15.8604V15.25C9.75 14.6977 9.30228 14.25 8.75 14.25H5.50325C5.08724 14.25 4.75 13.8837 4.75 13.4318C4.75 11.3984 6.26758 9.75 8.13961 9.75H8.75C9.30229 9.75 9.75 9.30228 9.75 8.75V5.50325Z" stroke="#141414" style="stroke:#141414;stroke:color(display-p3 0.0800 0.0800 0.0800);stroke-opacity:1;" stroke-width="1.5" stroke-linecap="round" stroke-linejoin="round"/>
<path d="M13.25 12C13.25 12.6904 12.6904 13.25 12 13.25C11.3096 13.25 10.75 12.6904 10.75 12C10.75 11.3096 11.3096 10.75 12 10.75C12.6904 10.75 13.25 11.3096 13.25 12Z" stroke="#141414" style="stroke:#141414;stroke:color(display-p3 0.0800 0.0800 0.0800);stroke-opacity:1;" stroke-width="1.5" stroke-linecap="round" stroke-linejoin="round"/>
</svg>
