<svg width="24" height="24" viewBox="0 0 24 24" fill="none" xmlns="http://www.w3.org/2000/svg">
<path d="M8.75946 11.75C8.79606 11.2688 8.93742 10.817 9.16079 10.4172C9.0531 9.97668 8.99999 9.499 8.99999 8.99999C8.99999 7.14951 9.73031 5.41711 11.2658 4.90336C11.7896 4.72812 12.25 5.1977 12.25 5.74999V8.75946C12.7311 8.79606 13.183 8.93742 13.5828 9.16079C14.0233 9.0531 14.501 8.99999 15 8.99999C16.8505 8.99999 18.5829 9.73031 19.0966 11.2658C19.2718 11.7896 18.8023 12.25 18.25 12.25H15.2405C15.2039 12.7311 15.0626 13.183 14.8392 13.5828C14.9469 14.0233 15 14.501 15 15C15 16.8505 14.2697 18.5829 12.7341 19.0966C12.2104 19.2718 11.75 18.8023 11.75 18.25V15.2405C11.2688 15.2039 10.817 15.0626 10.4172 14.8392C9.97668 14.9469 9.499 15 8.99999 15C7.14951 15 5.41711 14.2697 4.90336 12.7341C4.72812 12.2104 5.1977 11.75 5.74999 11.75H8.75946Z" stroke="#141414" style="stroke:#141414;stroke:color(display-p3 0.0800 0.0800 0.0800);stroke-opacity:1;" stroke-width="1.5" stroke-linecap="round" stroke-linejoin="round"/>
<path d="M12.5 12C12.5 12.2761 12.2761 12.5 12 12.5C11.7239 12.5 11.5 12.2761 11.5 12C11.5 11.7239 11.7239 11.5 12 11.5C12.2761 11.5 12.5 11.7239 12.5 12Z" stroke="#141414" style="stroke:#141414;stroke:color(display-p3 0.0800 0.0800 0.0800);stroke-opacity:1;" stroke-linecap="round" stroke-linejoin="round"/>
</svg>
