<svg width="24" height="24" viewBox="0 0 24 24" fill="none" xmlns="http://www.w3.org/2000/svg">
<path d="M9.25 6.75L4.75 7.75V19.25H7.25C8.35457 19.25 9.25 18.3546 9.25 17.25V13.25M9.25 6.75L16.25 4.75M9.25 6.75V8.75M9.25 8.75H19.25V11.25C14.25 11.25 9.25 13.25 9.25 13.25M9.25 8.75V13.25M19.25 18C19.25 18.6904 18.6904 19.25 18 19.25C17.3096 19.25 16.75 18.6904 16.75 18C16.75 17.3096 18 15.75 18 15.75C18 15.75 19.25 17.3096 19.25 18Z" stroke="#141414" style="stroke:#141414;stroke:color(display-p3 0.0800 0.0800 0.0800);stroke-opacity:1;" stroke-width="1.5" stroke-linecap="round" stroke-linejoin="round"/>
</svg>
