<svg width="24" height="24" viewBox="0 0 24 24" fill="none" xmlns="http://www.w3.org/2000/svg">
<path d="M12 9.66667H9.33333C8.04467 9.66667 7 8.622 7 7.33333C7 6.04467 8.04467 5 9.33333 5H12V9.66667Z" stroke="#141414" style="stroke:#141414;stroke:color(display-p3 0.0800 0.0800 0.0800);stroke-opacity:1;" stroke-width="1.5" stroke-linecap="round" stroke-linejoin="round"/>
<path d="M12 14.3334H9.33333C8.04467 14.3334 7 13.2887 7 12C7 10.7114 8.04467 9.66669 9.33333 9.66669H12V14.3334Z" stroke="#141414" style="stroke:#141414;stroke:color(display-p3 0.0800 0.0800 0.0800);stroke-opacity:1;" stroke-width="1.5" stroke-linecap="round" stroke-linejoin="round"/>
<path d="M10 19H9.33333C8.04467 19 7 17.9553 7 16.6666C7 15.378 8.04467 14.3333 9.33333 14.3333H12V17C12 18.1045 11.1046 19 10 19Z" stroke="#141414" style="stroke:#141414;stroke:color(display-p3 0.0800 0.0800 0.0800);stroke-opacity:1;" stroke-width="1.5" stroke-linecap="round" stroke-linejoin="round"/>
<path d="M12 9.66667H14.6667C15.9553 9.66667 17 8.622 17 7.33333C17 6.04467 15.9553 5 14.6667 5H12V9.66667Z" stroke="#141414" style="stroke:#141414;stroke:color(display-p3 0.0800 0.0800 0.0800);stroke-opacity:1;" stroke-width="1.5" stroke-linecap="round" stroke-linejoin="round"/>
<path d="M14.3333 14.3334H14.6667C15.9553 14.3334 17 13.2887 17 12C17 10.7114 15.9553 9.66669 14.6667 9.66669H14.3333C13.0447 9.66669 12 10.7114 12 12C12 13.2887 13.0447 14.3334 14.3333 14.3334Z" stroke="#141414" style="stroke:#141414;stroke:color(display-p3 0.0800 0.0800 0.0800);stroke-opacity:1;" stroke-width="1.5" stroke-linecap="round" stroke-linejoin="round"/>
</svg>
