<svg width="24" height="24" viewBox="0 0 24 24" fill="none" xmlns="http://www.w3.org/2000/svg">
<path d="M12.75 4.75L17.25 9.25H13.75C13.1977 9.25 12.75 8.80228 12.75 8.25V4.75ZM12.75 4.75H6.75C5.64543 4.75 4.75 5.64543 4.75 6.75V17.25C4.75 18.3546 5.64543 19.25 6.75 19.25H9.25M13.6125 14.5C14.105 14.035 14.7692 13.75 15.5 13.75C17.0188 13.75 18.25 14.9812 18.25 16.5C18.25 17.2308 17.965 17.895 17.5 18.3875M13.6125 14.5C13.0814 15.0014 12.75 15.712 12.75 16.5C12.75 18.0188 13.9812 19.25 15.5 19.25C16.288 19.25 16.9986 18.9186 17.5 18.3875M13.6125 14.5L17.5 18.3875" stroke="#141414" style="stroke:#141414;stroke:color(display-p3 0.0800 0.0800 0.0800);stroke-opacity:1;" stroke-width="1.5" stroke-linecap="round" stroke-linejoin="round"/>
</svg>
