<svg width="24" height="24" viewBox="0 0 24 24" fill="none" xmlns="http://www.w3.org/2000/svg">
<path d="M12.75 4.75H7.75C6.64543 4.75 5.75 5.64543 5.75 6.75V9.25M12.75 4.75V8.25C12.75 9.35457 13.6454 10.25 14.75 10.25H18.25M12.75 4.75L18.25 10.25M13.75 19.25H16.25C17.3546 19.25 18.25 18.3546 18.25 17.25V10.25M4.75 19.25C4.75 19.25 6 17.75 7.5 17.75C9 17.75 10.25 19.25 10.25 19.25M7.5 15.25C8.4665 15.25 9.25 14.4665 9.25 13.5C9.25 12.5335 8.4665 11.75 7.5 11.75C6.5335 11.75 5.75 12.5335 5.75 13.5C5.75 14.4665 6.5335 15.25 7.5 15.25Z" stroke="#141414" style="stroke:#141414;stroke:color(display-p3 0.0800 0.0800 0.0800);stroke-opacity:1;" stroke-width="1.5" stroke-linecap="round" stroke-linejoin="round"/>
</svg>
