<svg width="24" height="24" viewBox="0 0 24 24" fill="none" xmlns="http://www.w3.org/2000/svg">
<path d="M4.75 14.75V16C4.75 16.5523 5.19772 17 5.75 17H11.25M11.25 17L8.75 14.75M11.25 17L8.75 19.25M19.25 9.25V8C19.25 7.44772 18.8023 7 18.25 7H12.75M12.75 7L15.25 9.25M12.75 7L15.25 4.75M8 4.75H5.75C5.19772 4.75 4.75 5.19772 4.75 5.75V11.25C4.75 11.8023 5.19772 12.25 5.75 12.25H9.25C9.80228 12.25 10.25 11.8023 10.25 11.25V7.5L8 4.75ZM18.25 19.25H14.75C14.1977 19.25 13.75 18.8023 13.75 18.25V12.75C13.75 12.1977 14.1977 11.75 14.75 11.75H17L19.25 14.5V18.25C19.25 18.8023 18.8023 19.25 18.25 19.25Z" stroke="#141414" style="stroke:#141414;stroke:color(display-p3 0.0800 0.0800 0.0800);stroke-opacity:1;" stroke-width="1.5" stroke-linecap="round" stroke-linejoin="round"/>
</svg>
