<svg width="24" height="24" viewBox="0 0 24 24" fill="none" xmlns="http://www.w3.org/2000/svg">
<path d="M9.25 4.75H7.75C6.09315 4.75 4.75 6.09315 4.75 7.75V16.25C4.75 17.9069 6.09315 19.25 7.75 19.25H16.25C17.9069 19.25 19.25 17.9069 19.25 16.25V7.75C19.25 6.09315 17.9069 4.75 16.25 4.75H14.2866C13.3805 4.75 12.5876 5.35917 12.3541 6.23467L11.0854 10.9923C10.9161 11.6272 11.3946 12.25 12.0516 12.25H13.25M15.25 8.75V10.25M8.75 8.75V10.25M8.75 15C8.75 15 9.5 16.25 12 16.25C14.5 16.25 15.25 15 15.25 15" stroke="#141414" style="stroke:#141414;stroke:color(display-p3 0.0800 0.0800 0.0800);stroke-opacity:1;" stroke-width="1.5" stroke-linecap="round" stroke-linejoin="round"/>
</svg>
