<svg width="24" height="24" viewBox="0 0 24 24" fill="none" xmlns="http://www.w3.org/2000/svg">
<path d="M11.8125 11.25L12.1583 6.11199C12.2079 5.37505 11.6235 4.75 10.8849 4.75C10.2377 4.75 9.69298 5.23441 9.61736 5.87716L8.74997 13.25L7.14621 11.3273C6.53432 10.5937 5.42104 10.5538 4.7581 11.2416C4.75315 11.2467 4.7517 11.2543 4.75438 11.2609L6.73323 16.1319C7.49906 18.017 9.33084 19.25 11.3656 19.25H15.25C17.4591 19.25 19.25 17.4591 19.25 15.25V14.25C19.25 12.5931 17.9068 11.25 16.25 11.25H11.8125Z" stroke="#141414" style="stroke:#141414;stroke:color(display-p3 0.0800 0.0800 0.0800);stroke-opacity:1;" stroke-width="1.5" stroke-linecap="round" stroke-linejoin="round"/>
<path d="M5.25 8.25H4.75" stroke="#141414" style="stroke:#141414;stroke:color(display-p3 0.0800 0.0800 0.0800);stroke-opacity:1;" stroke-width="1.5" stroke-linecap="round" stroke-linejoin="round"/>
<path d="M15.75 8.25H16.25" stroke="#141414" style="stroke:#141414;stroke:color(display-p3 0.0800 0.0800 0.0800);stroke-opacity:1;" stroke-width="1.5" stroke-linecap="round" stroke-linejoin="round"/>
<path d="M7.25 5.25L6.75 4.75" stroke="#141414" style="stroke:#141414;stroke:color(display-p3 0.0800 0.0800 0.0800);stroke-opacity:1;" stroke-width="1.5" stroke-linecap="round" stroke-linejoin="round"/>
<path d="M14.75 5.25L15.25 4.75" stroke="#141414" style="stroke:#141414;stroke:color(display-p3 0.0800 0.0800 0.0800);stroke-opacity:1;" stroke-width="1.5" stroke-linecap="round" stroke-linejoin="round"/>
</svg>
