<svg width="24" height="24" viewBox="0 0 24 24" fill="none" xmlns="http://www.w3.org/2000/svg">
<path d="M12 7.75C13.5188 7.75 14.75 8.98122 14.75 10.5V19.25M12 7.75C10.4812 7.75 9.25 8.98122 9.25 10.5V19.25M12 7.75C12.6849 7.75 13.3113 8.00036 13.7927 8.41455C14.9646 9.42287 14.3091 11.1928 13.4791 12.4971C13.1807 12.966 12.6634 13.25 12.1075 13.25H11.8925C11.3366 13.25 10.8193 12.966 10.5209 12.4971C9.69086 11.1928 9.03542 9.42286 10.2073 8.41455C10.6887 8.00036 11.3151 7.75 12 7.75ZM17.75 8.75L19.25 10L18.8713 11.5149C18.7916 11.8334 18.7916 12.1666 18.8713 12.4851L19.25 14L17.75 15.25M6.25 8.75L4.75 10L5.12873 11.5149C5.20835 11.8334 5.20835 12.1666 5.12873 12.4851L4.75 14L6.25 15.25" stroke="#141414" style="stroke:#141414;stroke:color(display-p3 0.0800 0.0800 0.0800);stroke-opacity:1;" stroke-width="1.5" stroke-linecap="round" stroke-linejoin="round"/>
</svg>
