<svg width="24" height="24" viewBox="0 0 24 24" fill="none" xmlns="http://www.w3.org/2000/svg">
<path d="M17.25 15.5C17.25 15.0363 17.1352 14.5994 16.9326 14.2162C18.2458 14.0087 19.25 12.8716 19.25 11.5C19.25 10.1284 18.2458 8.99131 16.9326 8.78383C17.1352 8.40059 17.25 7.9637 17.25 7.5C17.25 5.98122 16.0188 4.75 14.5 4.75C13.3907 4.75 12.4348 5.40681 12 6.35276C11.5652 5.40681 10.6093 4.75 9.5 4.75C7.98122 4.75 6.75 5.98122 6.75 7.5C6.75 7.9637 6.86477 8.40059 7.06744 8.78382C5.75417 8.99131 4.75 10.1284 4.75 11.5C4.75 12.8716 5.75417 14.0087 7.06745 14.2162C6.86477 14.5994 6.75 15.0363 6.75 15.5C6.75 17.0188 7.98122 18.25 9.5 18.25C10.6093 18.25 11.5652 17.5932 12 16.6472C12.4348 17.5932 13.3907 18.25 14.5 18.25C16.0188 18.25 17.25 17.0188 17.25 15.5Z" stroke="#141414" style="stroke:#141414;stroke:color(display-p3 0.0800 0.0800 0.0800);stroke-opacity:1;" stroke-width="1.5" stroke-linecap="round" stroke-linejoin="round"/>
<path d="M14.25 11.75C14.25 12.9926 13.2426 14 12 14C10.7574 14 9.75 12.9926 9.75 11.75C9.75 10.5074 10.7574 9.5 12 9.5C13.2426 9.5 14.25 10.5074 14.25 11.75Z" stroke="#141414" style="stroke:#141414;stroke:color(display-p3 0.0800 0.0800 0.0800);stroke-opacity:1;" stroke-width="1.5" stroke-linecap="round" stroke-linejoin="round"/>
</svg>
