<svg width="24" height="24" viewBox="0 0 24 24" fill="none" xmlns="http://www.w3.org/2000/svg">
<path d="M10 10L8.75 8.75M14 10L15.25 8.75M8.75 15.25L10 14M15.25 15.25L14 14M8.25 12C6.317 12 4.75 10.183 4.75 8.25C4.75 6.317 6.317 4.75 8.25 4.75C10.183 4.75 12 6.317 12 8.25M8.25 12H9.5M8.25 12C6.317 12 4.75 13.817 4.75 15.75C4.75 17.683 6.317 19.25 8.25 19.25C10.183 19.25 12 17.683 12 15.75M12 8.25V9.5M12 8.25C12 6.317 13.817 4.75 15.75 4.75C17.683 4.75 19.25 6.317 19.25 8.25C19.25 10.183 17.683 12 15.75 12M15.75 12H14.5M15.75 12C17.683 12 19.25 13.817 19.25 15.75C19.25 17.683 17.683 19.25 15.75 19.25C13.817 19.25 12 17.683 12 15.75M12 15.75V14.5M14.25 12C14.25 13.2426 13.2426 14.25 12 14.25C10.7574 14.25 9.75 13.2426 9.75 12C9.75 10.7574 10.7574 9.75 12 9.75C13.2426 9.75 14.25 10.7574 14.25 12Z" stroke="#141414" style="stroke:#141414;stroke:color(display-p3 0.0800 0.0800 0.0800);stroke-opacity:1;" stroke-width="1.5" stroke-linecap="round" stroke-linejoin="round"/>
</svg>
