<svg width="24" height="24" viewBox="0 0 24 24" fill="none" xmlns="http://www.w3.org/2000/svg">
<path d="M4.75 17.25V6.75C4.75 5.64543 5.64543 4.75 6.75 4.75H8.06107C8.59349 4.75 9.10393 4.96229 9.47933 5.33984L10.3778 6.24349C10.7532 6.62104 11.2637 6.83333 11.7961 6.83333H16.896C17.5688 6.83333 18.0497 7.48437 17.8518 8.12742L17.0449 10.75M4.75 17.25H11.25M4.75 17.25L6.5328 11.4559C6.6619 11.0363 7.04957 10.75 7.48857 10.75H17.0449M17.0449 10.75H19.25M19.25 14.75C19.25 14.75 17.3214 16.8393 16.3571 19.25L14.75 17.3214" stroke="#141414" style="stroke:#141414;stroke:color(display-p3 0.0800 0.0800 0.0800);stroke-opacity:1;" stroke-width="1.5" stroke-linecap="round" stroke-linejoin="round"/>
</svg>
