<svg width="24" height="24" viewBox="0 0 24 24" fill="none" xmlns="http://www.w3.org/2000/svg">
<path d="M12.25 19.25H6.75C5.64543 19.25 4.75 18.3546 4.75 17.25V7.75H17.25C18.3546 7.75 19.25 8.64543 19.25 9.75V10.25M13.5 7.75L12.5685 5.7923C12.2181 5.14977 11.5446 4.75 10.8127 4.75H6.75C5.64543 4.75 4.75 5.64543 4.75 6.75V11M17 12.75C17 14 16 16 14.75 16C16 16 17 18 17 19.25C17 18 18 16 19.25 16C18 16 17 14 17 12.75Z" stroke="#141414" style="stroke:#141414;stroke:color(display-p3 0.0800 0.0800 0.0800);stroke-opacity:1;" stroke-width="1.5" stroke-linecap="round" stroke-linejoin="round"/>
</svg>
