<svg width="24" height="24" viewBox="0 0 24 24" fill="none" xmlns="http://www.w3.org/2000/svg">
<path d="M10.25 19.25H6.75C5.64543 19.25 4.75 18.3546 4.75 17.25V7.75H17.25C18.3546 7.75 19.25 8.64543 19.25 9.75V10.25M13.5 7.75L12.5685 5.7923C12.2181 5.14977 11.5446 4.75 10.8127 4.75H6.75C5.64543 4.75 4.75 5.64543 4.75 6.75V11M17.4445 17.4445L19.25 19.25M15.5 18.25C17.0188 18.25 18.25 17.0188 18.25 15.5C18.25 13.9812 17.0188 12.75 15.5 12.75C13.9812 12.75 12.75 13.9812 12.75 15.5C12.75 17.0188 13.9812 18.25 15.5 18.25Z" stroke="#141414" style="stroke:#141414;stroke:color(display-p3 0.0800 0.0800 0.0800);stroke-opacity:1;" stroke-width="1.5" stroke-linecap="round" stroke-linejoin="round"/>
</svg>
