<svg width="24" height="24" viewBox="0 0 24 24" fill="none" xmlns="http://www.w3.org/2000/svg">
<path d="M4.75 18.25V7.75C4.75 6.64543 5.66779 5.75 6.79994 5.75H8.16819C8.69942 5.75 9.2099 5.9512 9.59207 6.3112L10.5237 7.1888C10.9059 7.5488 11.4164 7.75 11.9476 7.75H17.25C17.8023 7.75 18.25 8.19772 18.25 8.75V11.7503M4.75 18.25H17.5622L19.204 13.0441C19.4043 12.409 18.9261 11.7662 18.25 11.7503M4.75 18.25L6.57732 12.4559C6.70965 12.0363 7.107 11.75 7.55696 11.75H18.2243C18.2329 11.75 18.2415 11.7501 18.25 11.7503" stroke="#141414" style="stroke:#141414;stroke:color(display-p3 0.0800 0.0800 0.0800);stroke-opacity:1;" stroke-width="1.5" stroke-linecap="round" stroke-linejoin="round"/>
</svg>
