<svg width="24" height="24" viewBox="0 0 24 24" fill="none" xmlns="http://www.w3.org/2000/svg">
<path d="M10.75 7.75C10.75 6.64543 11.6454 5.75 12.75 5.75H17.25C18.3546 5.75 19.25 6.64543 19.25 7.75V16.25C19.25 17.3546 18.3546 18.25 17.25 18.25H12.75C11.6454 18.25 10.75 17.3546 10.75 16.25V7.75Z" stroke="#141414" style="stroke:#141414;stroke:color(display-p3 0.0800 0.0800 0.0800);stroke-opacity:1;" stroke-width="1.5" stroke-linecap="round" stroke-linejoin="round"/>
<path d="M10.25 7.75H9.75C8.64543 7.75 7.75 8.64543 7.75 9.75V15.25C7.75 16.3546 8.64543 17.25 9.75 17.25H10.25" stroke="#141414" style="stroke:#141414;stroke:color(display-p3 0.0800 0.0800 0.0800);stroke-opacity:1;" stroke-width="1.5" stroke-linecap="round" stroke-linejoin="round"/>
<path d="M7.25 8.75H6.75C5.64543 8.75 4.75 9.64543 4.75 10.75V14.25C4.75 15.3546 5.64543 16.25 6.75 16.25H7.25" stroke="#141414" style="stroke:#141414;stroke:color(display-p3 0.0800 0.0800 0.0800);stroke-opacity:1;" stroke-width="1.5" stroke-linecap="round" stroke-linejoin="round"/>
</svg>
