<svg width="24" height="24" viewBox="0 0 24 24" fill="none" xmlns="http://www.w3.org/2000/svg">
<path d="M9.75 5.75V7.6L12 9.25L14.25 7.6V5.75C14.25 5.19772 13.8023 4.75 13.25 4.75H10.75C10.1977 4.75 9.75 5.19772 9.75 5.75Z" stroke="#141414" style="stroke:#141414;stroke:color(display-p3 0.0800 0.0800 0.0800);stroke-opacity:1;" stroke-width="1.5" stroke-linecap="round" stroke-linejoin="round"/>
<path d="M18.25 9.75H16.4L14.75 12L16.4 14.25H18.25C18.8023 14.25 19.25 13.8023 19.25 13.25V10.75C19.25 10.1977 18.8023 9.75 18.25 9.75Z" stroke="#141414" style="stroke:#141414;stroke:color(display-p3 0.0800 0.0800 0.0800);stroke-opacity:1;" stroke-width="1.5" stroke-linecap="round" stroke-linejoin="round"/>
<path d="M9.75 18.25V16.4L12 14.75L14.25 16.4V18.25C14.25 18.8023 13.8023 19.25 13.25 19.25H10.75C10.1977 19.25 9.75 18.8023 9.75 18.25Z" stroke="#141414" style="stroke:#141414;stroke:color(display-p3 0.0800 0.0800 0.0800);stroke-opacity:1;" stroke-width="1.5" stroke-linecap="round" stroke-linejoin="round"/>
<path d="M5.75 9.75H7.6L9.25 12L7.6 14.25H5.75C5.19772 14.25 4.75 13.8023 4.75 13.25L4.75 10.75C4.75 10.1977 5.19772 9.75 5.75 9.75Z" stroke="#141414" style="stroke:#141414;stroke:color(display-p3 0.0800 0.0800 0.0800);stroke-opacity:1;" stroke-width="1.5" stroke-linecap="round" stroke-linejoin="round"/>
</svg>
