<svg width="24" height="24" viewBox="0 0 24 24" fill="none" xmlns="http://www.w3.org/2000/svg">
<path d="M14.25 5.75V4.75H11C9.75736 4.75 8.75 5.75736 8.75 7M14.25 5.75V8.25M14.25 5.75L19.25 6.25V7.75L14.25 8.25M14.25 8.25V9.25H11C9.75736 9.25 8.75 8.24264 8.75 7M8.75 7H7.75C6.09315 7 4.75 8.34315 4.75 10V10.25C4.75 11.9069 6.09315 13.25 7.75 13.25H16.25C17.9069 13.25 19.25 14.5931 19.25 16.25C19.25 17.9069 17.9069 19.25 16.25 19.25H4.75" stroke="#141414" style="stroke:#141414;stroke:color(display-p3 0.0800 0.0800 0.0800);stroke-opacity:1;" stroke-width="1.5" stroke-linecap="round" stroke-linejoin="round"/>
</svg>
