<svg width="24" height="24" viewBox="0 0 24 24" fill="none" xmlns="http://www.w3.org/2000/svg">
<path d="M7.25 19.25H4.75V12.75H7.25V14.75M7.25 19.25V14.75M7.25 19.25C14 19.25 19.25 16 19.25 16V13.75H13.25M7.25 14.75L10.7794 12.8676C10.9242 12.7904 11.0859 12.75 11.25 12.75H12.25C12.8023 12.75 13.25 13.1977 13.25 13.75M10.75 16.25L13.25 15V13.75M18 10.25H18.125C18.7463 10.25 19.25 9.74632 19.25 9.125C19.25 8.50368 18.7463 8 18.125 8H17.875C17.2537 8 16.75 7.49632 16.75 6.875C16.75 6.25368 17.2537 5.75 17.875 5.75H18M18 10.25H16.75M18 10.25V11.25M18 5.75H19.25M18 5.75V4.75" stroke="#141414" style="stroke:#141414;stroke:color(display-p3 0.0800 0.0800 0.0800);stroke-opacity:1;" stroke-width="1.5" stroke-linecap="round" stroke-linejoin="round"/>
</svg>
