<svg width="24" height="24" viewBox="0 0 24 24" fill="none" xmlns="http://www.w3.org/2000/svg">
<path d="M11.8869 14.1474C12.9345 14.6357 14.576 13.3338 15.553 11.2397C16.5301 9.14547 16.4729 7.05197 15.4252 6.56371M11.8869 14.1474C10.8392 13.6592 10.7819 11.5657 11.759 9.47148C12.7361 7.37729 14.3775 6.07544 15.4252 6.56371M11.8869 14.1474L5.53789 9.3297C4.79066 8.76268 4.54036 7.75155 4.93686 6.90174L5.40417 5.90015C5.80067 5.05033 6.73657 4.59202 7.65149 4.79964L15.4252 6.56371M19.25 17.8889C19.25 18.6406 18.6904 19.25 18 19.25C17.3096 19.25 16.75 18.6406 16.75 17.8889C16.75 17.1372 18 15.75 18 15.75C18 15.75 19.25 17.1372 19.25 17.8889Z" stroke="#141414" style="stroke:#141414;stroke:color(display-p3 0.0800 0.0800 0.0800);stroke-opacity:1;" stroke-width="1.5" stroke-linecap="round" stroke-linejoin="round"/>
</svg>
