<svg width="24" height="24" viewBox="0 0 24 24" fill="none" xmlns="http://www.w3.org/2000/svg">
<path d="M9 12H9.01M6 12H6.01M9 16H9.01M6 16H6.01M12 12H12.01M12 16H12.01M15 12H15.01M18 12H18.01M15 16H15.01M18 16H18.01M13.5 14H13.51M13.5 18H13.51M10.5 14H10.51M10.5 18H10.51M7.5 14H7.51M7.5 18H7.51M17 14H17.01M17 18H17.01M5.75 19.25H18.25C18.8023 19.25 19.25 18.8023 19.25 18.25V5.75C19.25 5.19772 18.8023 4.75 18.25 4.75H5.75C5.19772 4.75 4.75 5.19771 4.75 5.75V18.25C4.75 18.8023 5.19771 19.25 5.75 19.25Z" stroke="#141414" style="stroke:#141414;stroke:color(display-p3 0.0800 0.0800 0.0800);stroke-opacity:1;" stroke-width="1.5" stroke-linecap="round" stroke-linejoin="round"/>
</svg>
