<svg width="24" height="24" viewBox="0 0 24 24" fill="none" xmlns="http://www.w3.org/2000/svg">
<path d="M8.89092 18.2199C8.49021 18.8397 7.79302 19.25 7 19.25C5.75736 19.25 4.75 18.2426 4.75 17C4.75 16.2552 5.11187 15.5949 5.66939 15.1854M7.80575 15.5C7.76927 15.6608 7.75 15.8282 7.75 16C7.75 17.2426 8.75736 18.25 10 18.25C11.2426 18.25 12.25 17.2426 12.25 16C12.25 14.7574 11.2426 13.75 10 13.75C9.82815 13.75 9.66081 13.7693 9.5 13.8058M7.34452 10.7762C7.23221 10.759 7.11715 10.75 7 10.75C5.75736 10.75 4.75 11.7574 4.75 13C4.75 14.2426 5.75736 15.25 7 15.25C8.13903 15.25 9.08038 14.4036 9.22944 13.3055M16.1942 13.5C15.9669 14.502 15.0708 15.25 14 15.25C12.7574 15.25 11.75 14.2426 11.75 13V12.5M14 9C14 9 16 5 19.25 4.75M9.75 8C9.75 6.75736 10.7574 5.75 12 5.75C13.2426 5.75 14.25 6.75736 14.25 8C14.25 9.13614 13.4079 10.0756 12.3138 10.2283M12.25 11C12.25 12.2426 11.2426 13.25 10 13.25C8.75736 13.25 7.75 12.2426 7.75 11C7.75 9.75736 8.75736 8.75 10 8.75C11.2426 8.75 12.25 9.75736 12.25 11ZM18.25 11C18.25 12.2426 17.2426 13.25 16 13.25C14.7574 13.25 13.75 12.2426 13.75 11C13.75 9.75736 14.7574 8.75 16 8.75C17.2426 8.75 18.25 9.75736 18.25 11Z" stroke="#141414" style="stroke:#141414;stroke:color(display-p3 0.0800 0.0800 0.0800);stroke-opacity:1;" stroke-width="1.5" stroke-linecap="round" stroke-linejoin="round"/>
</svg>
