<svg width="24" height="24" viewBox="0 0 24 24" fill="none" xmlns="http://www.w3.org/2000/svg">
<path d="M11.2167 18.5116C10.0101 19.7183 7.74955 19.4141 6.16771 17.8323C4.58587 16.2504 4.28172 13.9899 5.48839 12.7833C6.69505 11.5766 8.51414 11.1896 9.01353 10.6902C9.27572 10.428 9.40937 9.89963 9.47717 9.45683C9.54189 9.0342 9.85183 8.70551 10.292 8.75493C11.1231 8.84823 12.502 9.18472 13.6586 10.3414C14.8153 11.498 15.1518 12.8769 15.2451 13.708C15.2945 14.1482 14.9658 14.4581 14.5432 14.5228C14.1004 14.5906 13.572 14.7243 13.3098 14.9865C12.8104 15.4859 12.4234 17.305 11.2167 18.5116Z" stroke="#141414" style="stroke:#141414;stroke:color(display-p3 0.0800 0.0800 0.0800);stroke-opacity:1;" stroke-width="1.5" stroke-linecap="round" stroke-linejoin="round"/>
<path d="M9.75 14.25L19.1591 4.75" stroke="#141414" style="stroke:#141414;stroke:color(display-p3 0.0800 0.0800 0.0800);stroke-opacity:1;" stroke-width="1.5" stroke-linecap="round" stroke-linejoin="round"/>
</svg>
