<svg width="24" height="24" viewBox="0 0 24 24" fill="none" xmlns="http://www.w3.org/2000/svg">
<path d="M7.75 6.75V8.75C7.75 10.6229 8.07417 12.1392 8.33535 13.0569C8.51952 13.704 8.65909 14.3695 8.65909 15.0423V15.9091C8.65909 17.7542 10.1549 19.25 12 19.25C13.8451 19.25 15.3409 17.7536 15.3409 15.9085V15.0419C15.3409 14.3691 15.4805 13.704 15.6646 13.0569C15.9258 12.1392 16.25 10.6229 16.25 8.75V6.75M7.75 6.75C7.75 6.75 7.79805 10.25 12 10.25C16.2019 10.25 16.25 6.75 16.25 6.75M7.75 6.75H8.75M16.25 6.75H15.25M8.75 6.75V4.75M8.75 6.75H10.75M10.75 6.75V4.75M10.75 6.75H13.25M13.25 6.75V4.75M13.25 6.75H15.25M15.25 6.75V4.75M12 13.75V15.25" stroke="#141414" style="stroke:#141414;stroke:color(display-p3 0.0800 0.0800 0.0800);stroke-opacity:1;" stroke-width="1.5" stroke-linecap="round" stroke-linejoin="round"/>
</svg>
