<svg width="24" height="24" viewBox="0 0 24 24" fill="none" xmlns="http://www.w3.org/2000/svg">
<path d="M15.75 6.75V5.75C15.75 5.19772 16.1977 4.75 16.75 4.75H17.25C17.8023 4.75 18.25 5.19772 18.25 5.75V6.75M14.75 6.75V9.25C14.75 9.80228 15.1977 10.25 15.75 10.25H18.25C18.8023 10.25 19.25 9.80228 19.25 9.25V6.75H14.75Z" stroke="#141414" style="stroke:#141414;stroke:color(display-p3 0.0800 0.0800 0.0800);stroke-opacity:1;" stroke-width="1.5" stroke-linecap="round" stroke-linejoin="round"/>
<path d="M7.25 14V12.75H4.75V19.25H7.25M7.25 14V19.25M7.25 14L10.0118 12.3853C10.657 11.9705 11.4078 11.75 12.1748 11.75H13.25V13M7.25 19.25C13.75 19.25 19.25 14.75 19.25 14.75V13H13.25M13.25 13V14L10.75 15.25" stroke="#141414" style="stroke:#141414;stroke:color(display-p3 0.0800 0.0800 0.0800);stroke-opacity:1;" stroke-width="1.5" stroke-linecap="round" stroke-linejoin="round"/>
</svg>
