<svg width="24" height="24" viewBox="0 0 24 24" fill="none" xmlns="http://www.w3.org/2000/svg">
<path d="M7.25 14L10.05 12.32C10.6716 11.947 11.383 11.75 12.1079 11.75H13.25V14L10.75 15.25M7.25 18.25C13.75 18.25 19.25 14.75 19.25 14.75V12.75H13.25M4.75 12.75H7.25V19.25H4.75V12.75Z" stroke="#141414" style="stroke:#141414;stroke:color(display-p3 0.0800 0.0800 0.0800);stroke-opacity:1;" stroke-width="1.5" stroke-linecap="round" stroke-linejoin="round"/>
<path d="M19 5V6" stroke="#141414" style="stroke:#141414;stroke:color(display-p3 0.0800 0.0800 0.0800);stroke-opacity:1;" stroke-width="2" stroke-linecap="round" stroke-linejoin="round"/>
<path d="M19.5 9C19.5 9.27614 19.2761 9.5 19 9.5C18.7239 9.5 18.5 9.27614 18.5 9C18.5 8.72386 18.7239 8.5 19 8.5C19.2761 8.5 19.5 8.72386 19.5 9Z" stroke="#141414" style="stroke:#141414;stroke:color(display-p3 0.0800 0.0800 0.0800);stroke-opacity:1;"/>
</svg>
