<svg width="24" height="24" viewBox="0 0 24 24" fill="none" xmlns="http://www.w3.org/2000/svg">
<path d="M11.2503 8V11.25M11.2503 8V6C11.2503 5.30964 11.8099 4.75 12.5003 4.75C13.1906 4.75 13.7503 5.30964 13.7503 6V11.25M11.2503 8C11.2503 7.30964 10.6906 6.75 10.0003 6.75C9.30998 6.75 8.75034 7.30964 8.75034 8V13.25L7.14658 11.3273C6.53469 10.5937 5.41769 10.5731 4.75475 11.2609M4.75475 11.2609L6.7336 16.1319C7.49943 18.017 9.33121 19.25 11.3659 19.25H15.2503C17.4594 19.25 18.75 17.4591 18.75 15.25V9C18.75 8.30964 18.1903 7.75 17.5 7.75C16.8096 7.75 16.25 8.30964 16.25 9M4.75475 11.2609C4.75207 11.2543 4.74981 11.266 4.75475 11.2609ZM13.75 9V7C13.75 6.30964 14.3096 5.75 15 5.75C15.6903 5.75 16.25 6.30964 16.25 7V11.25" stroke="#141414" style="stroke:#141414;stroke:color(display-p3 0.0800 0.0800 0.0800);stroke-opacity:1;" stroke-width="1.5" stroke-linecap="round" stroke-linejoin="round"/>
</svg>
