<svg width="24" height="24" viewBox="0 0 24 24" fill="none" xmlns="http://www.w3.org/2000/svg">
<path d="M4.75 16C4.75 14.2051 6.20507 12.75 8 12.75H16C17.7949 12.75 19.25 14.2051 19.25 16C19.25 17.7949 17.7949 19.25 16 19.25H8C6.20507 19.25 4.75 17.7949 4.75 16Z" stroke="#141414" style="stroke:#141414;stroke:color(display-p3 0.0800 0.0800 0.0800);stroke-opacity:1;" stroke-width="1.5" stroke-linecap="round" stroke-linejoin="round"/>
<path d="M8.5 16C8.5 16.2761 8.27614 16.5 8 16.5C7.72386 16.5 7.5 16.2761 7.5 16C7.5 15.7239 7.72386 15.5 8 15.5C8.27614 15.5 8.5 15.7239 8.5 16Z" stroke="#141414" style="stroke:#141414;stroke:color(display-p3 0.0800 0.0800 0.0800);stroke-opacity:1;"/>
<path d="M4.75 16V14.2909C4.75 13.5999 4.83953 12.9118 5.01636 12.2438L6.60606 6.23821C6.83827 5.36096 7.63201 4.75 8.53947 4.75H15.4605C16.368 4.75 17.1617 5.36097 17.3939 6.23822L18.9836 12.2438C19.1605 12.9118 19.25 13.5999 19.25 14.2909V16" stroke="#141414" style="stroke:#141414;stroke:color(display-p3 0.0800 0.0800 0.0800);stroke-opacity:1;" stroke-width="1.5" stroke-linecap="round" stroke-linejoin="round"/>
<path d="M12.75 16H16.25" stroke="#141414" style="stroke:#141414;stroke:color(display-p3 0.0800 0.0800 0.0800);stroke-opacity:1;" stroke-width="1.5" stroke-linecap="round" stroke-linejoin="round"/>
</svg>
