<svg width="24" height="24" viewBox="0 0 24 24" fill="none" xmlns="http://www.w3.org/2000/svg">
<path d="M6.75 12V15C6.75 15 7.98728 16.25 12 16.25C16.0127 16.25 17.25 15 17.25 15V12M6.75 12V6.75C6.75 5.64543 7.64543 4.75 8.75 4.75H15.25C16.3546 4.75 17.25 5.64543 17.25 6.75V12M6.75 12C6.75 12 7.98728 13.25 12 13.25C16.0127 13.25 17.25 12 17.25 12M6.64649 14.6455C5.46853 15.1345 4.75 15.7854 4.75 16.5C4.75 18.0188 7.99594 19.25 12 19.25C16.0041 19.25 19.25 18.0188 19.25 16.5C19.25 15.7854 18.5315 15.1345 17.3535 14.6455" stroke="#141414" style="stroke:#141414;stroke:color(display-p3 0.0800 0.0800 0.0800);stroke-opacity:1;" stroke-width="1.5" stroke-linecap="round" stroke-linejoin="round"/>
</svg>
