<svg width="24" height="24" viewBox="0 0 24 24" fill="none" xmlns="http://www.w3.org/2000/svg">
<path d="M7.75 12.75H16.25M7.75 16.25H11.25M11.75 9.75H6.75C6.21957 9.75 5.71086 9.96071 5.33579 10.3358C4.96071 10.7109 4.75 11.2196 4.75 11.75V17.25C4.75 17.7804 4.96071 18.2891 5.33579 18.6642C5.71086 19.0393 6.21957 19.25 6.75 19.25H11M11.75 9.75H17.25C17.7804 9.75 18.2891 9.96071 18.6642 10.3358C19.0393 10.7109 19.25 11.2196 19.25 11.75V13.25M11.75 9.75V8.75C11.75 7.64543 12.6454 6.75 13.75 6.75H16.25C17.3546 6.75 18.25 5.85457 18.25 4.75M14.75 16.75L17 19.25L19.25 16.75" stroke="#141414" style="stroke:#141414;stroke:color(display-p3 0.0800 0.0800 0.0800);stroke-opacity:1;" stroke-width="1.5" stroke-linecap="round" stroke-linejoin="round"/>
</svg>
