<svg width="24" height="24" viewBox="0 0 24 24" fill="none" xmlns="http://www.w3.org/2000/svg">
<path d="M8.8501 12.2496C8.85006 12.2496 8.85013 12.2496 8.8501 12.2496ZM8.8501 12.2496C7.6903 12.2496 6.75 11.2902 6.75 10.1067C6.75 8.92326 7.6902 7.96387 8.85 7.96387C8.85022 6.18886 10.2604 4.75 12 4.75C13.7396 4.75 15.1498 6.18886 15.15 7.96387C16.3098 7.96387 17.25 8.92326 17.25 10.1067C17.25 11.2902 16.3099 12.2496 15.1501 12.2496H8.8501ZM9 12.25C9 12.25 10.5 19.25 12 19.25C13.5 19.25 15 12.25 15 12.25" stroke="#141414" style="stroke:#141414;stroke:color(display-p3 0.0800 0.0800 0.0800);stroke-opacity:1;" stroke-width="1.5" stroke-linecap="round" stroke-linejoin="round"/>
</svg>
