<svg width="24" height="24" viewBox="0 0 24 24" fill="none" xmlns="http://www.w3.org/2000/svg">
<path d="M12 8.75H5.75C5.19772 8.75 4.75 9.19772 4.75 9.75V18.25C4.75 18.8023 5.19771 19.25 5.75 19.25H18.25C18.8023 19.25 19.25 18.8023 19.25 18.25V9.75C19.25 9.19772 18.8023 8.75 18.25 8.75H12ZM12 8.75C12 8.75 15.25 7 15.25 4.75M12 8.75C12 8.75 8.75 7 8.75 4.75M14.75 15.75H16.25M14.75 12.75H16.25M6.99854 19C7.43267 17.4775 8.38945 15.75 9.49996 15.75C10.6105 15.75 11.5672 17.4775 12.0014 19M9.5 15.25C10.4665 15.25 11.25 14.4665 11.25 13.5C11.25 12.5335 10.4665 11.75 9.5 11.75C8.5335 11.75 7.75 12.5335 7.75 13.5C7.75 14.4665 8.5335 15.25 9.5 15.25Z" stroke="#141414" style="stroke:#141414;stroke:color(display-p3 0.0800 0.0800 0.0800);stroke-opacity:1;" stroke-width="1.5" stroke-linecap="round" stroke-linejoin="round"/>
</svg>
