<svg width="24" height="24" viewBox="0 0 24 24" fill="none" xmlns="http://www.w3.org/2000/svg">
<path d="M13.25 16.75L10.75 16.7501M4.75 12.75C4.75 12.75 5.15896 12.3964 6 11.9865M6 11.9865C7.15911 11.4217 9.13892 10.75 12 10.75C14.8611 10.75 16.8409 11.4217 18 11.9865M6 11.9865L6.56409 6.54382C6.66973 5.52454 7.52869 4.75 8.55343 4.75H15.4466C16.4713 4.75 17.3303 5.52454 17.4359 6.54382L18 11.9865M18 11.9865C18.841 12.3964 19.25 12.75 19.25 12.75M10.25 17C10.25 18.2426 9.24264 19.25 8 19.25C6.75736 19.25 5.75 18.2426 5.75 17C5.75 15.7574 6.75736 14.75 8 14.75C9.24264 14.75 10.25 15.7574 10.25 17ZM18.25 17C18.25 18.2426 17.2426 19.25 16 19.25C14.7574 19.25 13.75 18.2426 13.75 17C13.75 15.7574 14.7574 14.75 16 14.75C17.2426 14.75 18.25 15.7574 18.25 17Z" stroke="#141414" style="stroke:#141414;stroke:color(display-p3 0.0800 0.0800 0.0800);stroke-opacity:1;" stroke-width="1.5" stroke-linecap="round" stroke-linejoin="round"/>
</svg>
