<svg width="24" height="24" viewBox="0 0 24 24" fill="none" xmlns="http://www.w3.org/2000/svg">
<path d="M6.75 6.75V17.25C6.75 18.3546 7.64543 19.25 8.75 19.25H15.25C16.3546 19.25 17.25 18.3546 17.25 17.25V6.75C17.25 5.64543 16.3546 4.75 15.25 4.75H8.75C7.64543 4.75 6.75 5.64543 6.75 6.75Z" stroke="#141414" style="stroke:#141414;stroke:color(display-p3 0.0800 0.0800 0.0800);stroke-opacity:1;" stroke-width="1.5" stroke-linecap="round" stroke-linejoin="round"/>
<path d="M10.5 8C10.5 8.2761 10.2761 8.5 10 8.5C9.7239 8.5 9.5 8.2761 9.5 8C9.5 7.72386 9.7239 7.5 10 7.5C10.2761 7.5 10.5 7.72386 10.5 8Z" stroke="#141414" style="stroke:#141414;stroke:color(display-p3 0.0800 0.0800 0.0800);stroke-opacity:1;" stroke-linecap="round" stroke-linejoin="round"/>
<path d="M12.5 10C12.5 10.2761 12.2761 10.5 12 10.5C11.7239 10.5 11.5 10.2761 11.5 10C11.5 9.72386 11.7239 9.5 12 9.5C12.2761 9.5 12.5 9.72386 12.5 10Z" stroke="#141414" style="stroke:#141414;stroke:color(display-p3 0.0800 0.0800 0.0800);stroke-opacity:1;" stroke-linecap="round" stroke-linejoin="round"/>
<path d="M10.5 12C10.5 12.2761 10.2761 12.5 10 12.5C9.7239 12.5 9.5 12.2761 9.5 12C9.5 11.7239 9.7239 11.5 10 11.5C10.2761 11.5 10.5 11.7239 10.5 12Z" stroke="#141414" style="stroke:#141414;stroke:color(display-p3 0.0800 0.0800 0.0800);stroke-opacity:1;" stroke-linecap="round" stroke-linejoin="round"/>
</svg>
