<svg width="24" height="24" viewBox="0 0 24 24" fill="none" xmlns="http://www.w3.org/2000/svg">
<path d="M4.75 19.2501V10.75C4.75 7.43629 7.43629 4.75 10.75 4.75H19.25M10.75 19.25H16.25C17.9069 19.25 19.25 17.9069 19.25 16.25V10.75C19.25 9.09315 17.9069 7.75 16.25 7.75H10.75C9.09315 7.75 7.75 9.09315 7.75 10.75V16.25C7.75 17.9069 9.09315 19.25 10.75 19.25ZM12.25 11.5C12.25 11.9142 11.9142 12.25 11.5 12.25C11.0858 12.25 10.75 11.9142 10.75 11.5C10.75 11.0858 11.0858 10.75 11.5 10.75C11.9142 10.75 12.25 11.0858 12.25 11.5ZM12.25 15.5C12.25 15.9142 11.9142 16.25 11.5 16.25C11.0858 16.25 10.75 15.9142 10.75 15.5C10.75 15.0858 11.0858 14.75 11.5 14.75C11.9142 14.75 12.25 15.0858 12.25 15.5ZM16.25 13.5C16.25 13.9142 15.9142 14.25 15.5 14.25C15.0858 14.25 14.75 13.9142 14.75 13.5C14.75 13.0858 15.0858 12.75 15.5 12.75C15.9142 12.75 16.25 13.0858 16.25 13.5Z" stroke="#141414" style="stroke:#141414;stroke:color(display-p3 0.0800 0.0800 0.0800);stroke-opacity:1;" stroke-width="1.5" stroke-linecap="round" stroke-linejoin="round"/>
</svg>
