<svg width="24" height="24" viewBox="0 0 24 24" fill="none" xmlns="http://www.w3.org/2000/svg">
<path d="M4.75 13.25L4.99567 12.6358C5.45126 11.4969 6.55439 10.75 7.7811 10.75H13M19.25 10.75L18.25 13.25M19.25 10.75C19.25 10.75 18.25 6.75 13 6.75M19.25 10.75H13M13 6.75L11.75 5.75M13 6.75V10.75M4.75 16.75C4.75 17.5784 5.56148 18.25 6.5625 18.25C7.56352 18.25 8.375 17.5784 8.375 16.75C8.375 17.5784 9.18648 18.25 10.1875 18.25C11.1885 18.25 12 17.5784 12 16.75C12 17.5784 12.8115 18.25 13.8125 18.25C14.8135 18.25 15.625 17.5784 15.625 16.75C15.625 17.5784 16.4365 18.25 17.4375 18.25C18.4385 18.25 19.25 17.5784 19.25 16.75" stroke="#141414" style="stroke:#141414;stroke:color(display-p3 0.0800 0.0800 0.0800);stroke-opacity:1;" stroke-width="1.5" stroke-linecap="round" stroke-linejoin="round"/>
</svg>
