<svg width="24" height="24" viewBox="0 0 24 24" fill="none" xmlns="http://www.w3.org/2000/svg">
<path d="M5.75 10.225V15.25M5.75 15.25H4.75M5.75 15.25H6.75M18.25 15.25V10.225M18.25 15.25H19.25M18.25 15.25H17.25M6.75 15.25V19.25H17.25V15.25M6.75 15.25H17.25M4.75 8L6 4.75H18L19.25 8V9C19.25 9.69036 18.6904 10.25 18 10.25C17.3096 10.25 16.5 9.69036 16.5 9C16.5 9.69036 15.6904 10.25 15 10.25C14.3096 10.25 13.5 9.69036 13.5 9C13.5 9.69036 12.6904 10.25 12 10.25C11.3096 10.25 10.5 9.69036 10.5 9C10.5 9.69036 9.69036 10.25 9 10.25C8.30964 10.25 7.5 9.69036 7.5 9C7.5 9.69036 6.69036 10.25 6 10.25C5.30964 10.25 4.75 9.69036 4.75 9V8Z" stroke="#141414" style="stroke:#141414;stroke:color(display-p3 0.0800 0.0800 0.0800);stroke-opacity:1;" stroke-width="1.5" stroke-linecap="round" stroke-linejoin="round"/>
</svg>
