<svg width="24" height="24" viewBox="0 0 24 24" fill="none" xmlns="http://www.w3.org/2000/svg">
<path d="M10.25 15.25H8.75C8.19772 15.25 7.75 14.8023 7.75 14.25V12M10.25 8.75H8.75C8.19772 8.75 7.75 9.19772 7.75 9.75V12M7.75 12H10.25M12.75 15.25V8.75L16.25 15.25V8.75M19.25 8.75V15.25C19.25 17.4591 17.4591 19.25 15.25 19.25H8.75C6.54086 19.25 4.75 17.4591 4.75 15.25V8.75C4.75 6.54086 6.54086 4.75 8.75 4.75H15.25C17.4591 4.75 19.25 6.54086 19.25 8.75Z" stroke="#141414" style="stroke:#141414;stroke:color(display-p3 0.0800 0.0800 0.0800);stroke-opacity:1;" stroke-width="1.5" stroke-linecap="round" stroke-linejoin="round"/>
</svg>
