<svg width="24" height="24" viewBox="0 0 24 24" fill="none" xmlns="http://www.w3.org/2000/svg">
<path d="M6.88679 15.4309C6.79934 15.6016 6.75 15.795 6.75 16C6.75 16.6904 7.30964 17.25 8 17.25C8.42913 17.25 8.80775 17.0338 9.03284 16.7043M6.88679 15.4309C7.09386 15.0266 7.51462 14.75 8 14.75C8.69036 14.75 9.25 15.3096 9.25 16C9.25 16.2612 9.16987 16.5037 9.03284 16.7043M6.88679 15.4309C5.56697 14.2989 4.75 12.7317 4.75 11C4.75 7.54822 7.99594 4.75 12 4.75C16.0041 4.75 19.25 7.54822 19.25 11C19.25 14.4518 16.0041 17.25 12 17.25C10.9428 17.25 9.93852 17.0549 9.03284 16.7043M4.75 19.25C6.7605 19.25 7.15416 17.6332 7.23123 17" stroke="#141414" style="stroke:#141414;stroke:color(display-p3 0.0800 0.0800 0.0800);stroke-opacity:1;" stroke-width="1.5" stroke-linecap="round" stroke-linejoin="round"/>
</svg>
