<svg width="24" height="24" viewBox="0 0 24 24" fill="none" xmlns="http://www.w3.org/2000/svg">
<path d="M10.75 9.75C12.8726 9.75 12.8726 11.8611 12.8726 11.8611M12.8726 11.8611C19.7712 11.8611 19.2406 19.25 19.2406 19.25H17.184C13.3713 19.25 10.981 15.1535 12.8726 11.8611ZM12.8726 11.8611C12.8726 11.8611 13.75 14.25 15.25 15.25M9.25 4.75C8.12625 4.75 8.12625 5.97222 8.12625 5.97222M8.12625 5.97222C4.47406 5.97222 4.75499 10.25 4.75499 10.25H5.84377C7.86226 10.25 9.1277 7.87833 8.12625 5.97222ZM15.75 4.75C17.683 4.75 19.25 6.317 19.25 8.25M8.25 18.25C6.86929 18.25 5.75 17.1307 5.75 15.75" stroke="#141414" style="stroke:#141414;stroke:color(display-p3 0.0800 0.0800 0.0800);stroke-opacity:1;" stroke-width="1.5" stroke-linecap="round" stroke-linejoin="round"/>
</svg>
