<svg width="24" height="24" viewBox="0 0 24 24" fill="none" xmlns="http://www.w3.org/2000/svg">
<path d="M16.474 12.9972C16.9175 12.2753 17.25 11.3316 17.25 10C17.25 7.5 15.5 4.75 12 4.75C11.1458 4.75 10.3958 4.91382 9.75 5.19784M7.45233 7.30329C6.98411 8.13778 6.75 9.08561 6.75 10C6.75 14 9.75 14.5 9.75 16V18.2505C9.75 18.8028 10.1977 19.25 10.75 19.25H13.25C13.8023 19.25 14.25 18.8028 14.25 18.2505V16C14.25 15.7787 14.3153 15.5791 14.4267 15.3868" stroke="#141414" style="stroke:#141414;stroke:color(display-p3 0.0800 0.0800 0.0800);stroke-opacity:1;" stroke-width="1.5" stroke-linecap="round" stroke-linejoin="round"/>
<path d="M10 16.75H14" stroke="#141414" style="stroke:#141414;stroke:color(display-p3 0.0800 0.0800 0.0800);stroke-opacity:1;" stroke-width="1.5" stroke-linecap="round" stroke-linejoin="round"/>
<path d="M5.75 4.75L18.25 19.25" stroke="#141414" style="stroke:#141414;stroke:color(display-p3 0.0800 0.0800 0.0800);stroke-opacity:1;" stroke-width="1.5" stroke-linecap="round" stroke-linejoin="round"/>
</svg>
