<svg width="24" height="24" viewBox="0 0 24 24" fill="none" xmlns="http://www.w3.org/2000/svg">
<path d="M6.75 19.25H17.25C18.3546 19.25 19.25 18.3546 19.25 17.25V6.75C19.25 5.64543 18.3546 4.75 17.25 4.75H6.75C5.64543 4.75 4.75 5.64543 4.75 6.75V17.25C4.75 18.3546 5.64543 19.25 6.75 19.25Z" stroke="#141414" style="stroke:#141414;stroke:color(display-p3 0.0800 0.0800 0.0800);stroke-opacity:1;" stroke-width="1.5" stroke-linecap="round" stroke-linejoin="round"/>
<path d="M10.75 15.25H13.25C13.8023 15.25 14.25 14.8023 14.25 14.25V9.75C14.25 9.19772 13.8023 8.75 13.25 8.75H10.75C10.1977 8.75 9.75 9.19772 9.75 9.75V14.25C9.75 14.8023 10.1977 15.25 10.75 15.25Z" stroke="#141414" style="stroke:#141414;stroke:color(display-p3 0.0800 0.0800 0.0800);stroke-opacity:1;" stroke-width="1.5" stroke-linecap="round" stroke-linejoin="round"/>
<path d="M12 13H12.01" stroke="#141414" style="stroke:#141414;stroke:color(display-p3 0.0800 0.0800 0.0800);stroke-opacity:1;" stroke-width="1.5" stroke-linecap="round" stroke-linejoin="round"/>
</svg>
