<svg width="24" height="24" viewBox="0 0 24 24" fill="none" xmlns="http://www.w3.org/2000/svg">
<path d="M15.75 4.75H17.25C18.3546 4.75 19.25 5.64543 19.25 6.75V8.25M15.75 19.25H17.25C18.3546 19.25 19.25 18.3546 19.25 17.25V15.75M8.25 4.75H6.75C5.64543 4.75 4.75 5.64543 4.75 6.75V8.25M8.25 19.25H6.75C5.64543 19.25 4.75 18.3546 4.75 17.25V15.75M9.75 10.5V9.75C9.75 8.64543 10.6454 7.75 11.75 7.75H12.25C13.3546 7.75 14.25 8.64543 14.25 9.75V10.5M8.75 10.75H15.25V14.25C15.25 15.3546 14.3546 16.25 13.25 16.25H10.75C9.64543 16.25 8.75 15.3546 8.75 14.25V10.75Z" stroke="#141414" style="stroke:#141414;stroke:color(display-p3 0.0800 0.0800 0.0800);stroke-opacity:1;" stroke-width="1.5" stroke-linecap="round" stroke-linejoin="round"/>
</svg>
