<svg width="24" height="24" viewBox="0 0 24 24" fill="none" xmlns="http://www.w3.org/2000/svg">
<path d="M4.75 19.25C4.75 19.25 6.325 16.75 10 16.75C13.675 16.75 15.25 19.25 15.25 19.25" stroke="#141414" style="stroke:#141414;stroke:color(display-p3 0.0800 0.0800 0.0800);stroke-opacity:1;" stroke-width="1.5" stroke-linecap="round" stroke-linejoin="round"/>
<path d="M12.25 12C12.25 13.2426 11.2426 14.25 10 14.25C8.75736 14.25 7.75 13.2426 7.75 12C7.75 10.7574 8.75736 9.75 10 9.75C11.2426 9.75 12.25 10.7574 12.25 12Z" stroke="#141414" style="stroke:#141414;stroke:color(display-p3 0.0800 0.0800 0.0800);stroke-opacity:1;" stroke-width="1.5" stroke-linecap="round" stroke-linejoin="round"/>
<path fill-rule="evenodd" clip-rule="evenodd" d="M16.4981 5.40261C15.9483 4.6884 15.0314 4.49628 14.3425 5.15028C13.6537 5.80428 13.5567 6.89773 14.0977 7.67125L16.4981 10.25L18.8986 7.67125C19.4396 6.89773 19.3544 5.79741 18.6537 5.15028C17.9529 4.50316 17.0479 4.6884 16.4981 5.40261Z" stroke="#141414" style="stroke:#141414;stroke:color(display-p3 0.0800 0.0800 0.0800);stroke-opacity:1;" stroke-width="1.5" stroke-linecap="round" stroke-linejoin="round"/>
</svg>
