<svg width="24" height="24" viewBox="0 0 24 24" fill="none" xmlns="http://www.w3.org/2000/svg">
<path d="M17.25 15.75V9.75C17.25 9.19772 16.8023 8.75 16.25 8.75H14.25M6.75 15.75V9.75C6.75 9.19772 7.19772 8.75 7.75 8.75H9.75M9.75 8.75V7.75C9.75 6.64543 10.6454 5.75 11.75 5.75H12.25C13.3546 5.75 14.25 6.64543 14.25 7.75V8.75M9.75 8.75H14.25M6.5 19.25H17.5C18.4665 19.25 19.25 18.4665 19.25 17.5C19.25 16.5335 18.4665 15.75 17.5 15.75H6.5C5.5335 15.75 4.75 16.5335 4.75 17.5C4.75 18.4665 5.5335 19.25 6.5 19.25Z" stroke="#141414" style="stroke:#141414;stroke:color(display-p3 0.0800 0.0800 0.0800);stroke-opacity:1;" stroke-width="1.5" stroke-linecap="round" stroke-linejoin="round"/>
</svg>
