<svg width="24" height="24" viewBox="0 0 24 24" fill="none" xmlns="http://www.w3.org/2000/svg">
<path d="M9.24995 13C9.24995 14.2328 9.24995 15.3755 9.24995 16.125C9.24995 18.625 8.1805 19.25 7.45828 19.25C6.93372 19.25 6.28216 19.25 5.74958 19.25C5.19729 19.25 4.74756 18.7995 4.77194 18.2478C5.11074 10.5826 9.24995 6.75 9.24995 6.75C9.24995 6.75 9.24995 10.1207 9.24995 13ZM9.24995 13C9.24995 13 11.9999 12.75 11.9999 4.75C11.9999 12.75 14.7499 13 14.7499 13M14.7499 6.75C14.7499 6.75 18.8892 10.5826 19.228 18.2478C19.2523 18.7995 18.8026 19.25 18.2503 19.25H16.5416C15.8194 19.25 14.7499 18.625 14.7499 16.125V6.75Z" stroke="#141414" style="stroke:#141414;stroke:color(display-p3 0.0800 0.0800 0.0800);stroke-opacity:1;" stroke-width="1.5" stroke-linecap="round" stroke-linejoin="round"/>
</svg>
