<svg width="24" height="24" viewBox="0 0 24 24" fill="none" xmlns="http://www.w3.org/2000/svg">
<path d="M5.75 19.25V18.7412C5.75 17.7954 6.41249 16.9789 7.33798 16.7841L8.85943 16.4638C9.66987 16.2932 10.25 15.5782 10.25 14.75M18.25 19.25V18.7412C18.25 17.7954 17.5875 16.9789 16.662 16.7841L15.1406 16.4638C14.3301 16.2932 13.75 15.5782 13.75 14.75M9.84463 14.2828C8.5903 13.013 7.61429 11.1452 7.76547 9.33635C7.97676 6.8083 9.03543 4.75 11.9987 4.75C14.9619 4.75 16.0206 6.8083 16.2318 9.33635C16.3877 11.2009 15.5258 13.1281 14.2153 14.3984C12.9809 15.5949 11.0539 15.507 9.84463 14.2828Z" stroke="#141414" style="stroke:#141414;stroke:color(display-p3 0.0800 0.0800 0.0800);stroke-opacity:1;" stroke-width="1.5" stroke-linecap="round" stroke-linejoin="round"/>
</svg>
