<svg width="24" height="24" viewBox="0 0 24 24" fill="none" xmlns="http://www.w3.org/2000/svg">
<path d="M8.75 19.25V16C7.37501 14.8535 5.75 12.9302 5.75 11C5.75 10.1111 5.93556 9.26558 6.27005 8.5M14.25 16.25H16.25C17.3546 16.25 18.25 15.3546 18.25 14.25V11.75M14.25 16.25V19.25M14.25 16.25C13.5596 16.25 13 15.6904 13 15V11.75M13 11.75L6.27005 8.5M13 11.75H18.25M6.27005 8.5C7.2345 6.29262 9.4371 4.75 12 4.75C15.4518 4.75 18.25 7.54822 18.25 11V11.75" stroke="#141414" style="stroke:#141414;stroke:color(display-p3 0.0800 0.0800 0.0800);stroke-opacity:1;" stroke-width="1.5" stroke-linecap="round" stroke-linejoin="round"/>
<path d="M14.5 9C14.5 9.2761 14.2761 9.5 14 9.5C13.7239 9.5 13.5 9.2761 13.5 9C13.5 8.72386 13.7239 8.5 14 8.5C14.2761 8.5 14.5 8.72386 14.5 9Z" stroke="#141414" style="stroke:#141414;stroke:color(display-p3 0.0800 0.0800 0.0800);stroke-opacity:1;" stroke-linecap="round" stroke-linejoin="round"/>
</svg>
