<svg width="24" height="24" viewBox="0 0 24 24" fill="none" xmlns="http://www.w3.org/2000/svg">
<path d="M9.75 8V5.75C9.75 5.19772 10.1977 4.75 10.75 4.75L13.25 4.75C13.8023 4.75 14.25 5.19772 14.25 5.75V8M15.25 13.5H12M12 13.5H8.75M12 13.5L12 10.75M12 13.5V16.25M17.25 19.25H6.75C5.64543 19.25 4.75 18.3546 4.75 17.25L4.75 10C4.75 8.89543 5.64543 8 6.75 8L17.25 8C18.3546 8 19.25 8.89543 19.25 10V17.25C19.25 18.3546 18.3546 19.25 17.25 19.25Z" stroke="#141414" style="stroke:#141414;stroke:color(display-p3 0.0800 0.0800 0.0800);stroke-opacity:1;" stroke-width="1.5" stroke-linecap="round" stroke-linejoin="round"/>
</svg>
