<svg width="24" height="24" viewBox="0 0 24 24" fill="none" xmlns="http://www.w3.org/2000/svg">
<path d="M16.25 10.75H13.75M12.75 13.75V15.25C12.75 15.8023 13.1977 16.25 13.75 16.25H15.25C15.8023 16.25 16.25 15.8023 16.25 15.25V13.75H12.75ZM7.75 16.25H10.25V11.8C10.25 11.2719 10.1454 10.749 9.94231 10.2615L9 8L8.05769 10.2615C7.85458 10.749 7.75 11.2719 7.75 11.8V16.25ZM17.25 4.75H6.75C5.64543 4.75 4.75 5.64543 4.75 6.75V17.25C4.75 18.3546 5.64543 19.25 6.75 19.25H17.25C18.3546 19.25 19.25 18.3546 19.25 17.25V6.75C19.25 5.64543 18.3546 4.75 17.25 4.75Z" stroke="#141414" style="stroke:#141414;stroke:color(display-p3 0.0800 0.0800 0.0800);stroke-opacity:1;" stroke-width="1.5" stroke-linecap="round" stroke-linejoin="round"/>
</svg>
