<svg width="24" height="24" viewBox="0 0 24 24" fill="none" xmlns="http://www.w3.org/2000/svg">
<path d="M10 8.00003C10 8.00003 10.5 8.25003 12 8.25003C13.5 8.25003 14 8.00003 14 8.00003C14 8.00003 15.75 5.75003 18 5.75003M4.75 15C4.75 18 8 19.2498 12 19.2498C16 19.2498 19.25 17.9998 19.25 14.9998C19.25 13.4349 17.5494 10.87 15.9224 9.73093C14.3213 8.60997 13.4252 6.61786 14 4.74976H10C10.5748 6.61788 9.67878 8.61 8.07765 9.73102C6.45061 10.8702 4.75 13.4351 4.75 15Z" stroke="#141414" style="stroke:#141414;stroke:color(display-p3 0.0800 0.0800 0.0800);stroke-opacity:1;" stroke-width="1.5" stroke-linecap="round" stroke-linejoin="round"/>
</svg>
