<svg width="24" height="24" viewBox="0 0 24 24" fill="none" xmlns="http://www.w3.org/2000/svg">
<path d="M4.75 19.25C4.75 19.25 6.025 16.75 9 16.75C11.975 16.75 13.25 19.25 13.25 19.25" stroke="#141414" style="stroke:#141414;stroke:color(display-p3 0.0800 0.0800 0.0800);stroke-opacity:1;" stroke-width="1.5" stroke-linecap="round" stroke-linejoin="round"/>
<path d="M11.25 12C11.25 13.2426 10.2426 14.25 9 14.25C7.75736 14.25 6.75 13.2426 6.75 12C6.75 10.7574 7.75736 9.75 9 9.75C10.2426 9.75 11.25 10.7574 11.25 12Z" stroke="#141414" style="stroke:#141414;stroke:color(display-p3 0.0800 0.0800 0.0800);stroke-opacity:1;" stroke-width="1.5" stroke-linecap="round" stroke-linejoin="round"/>
<path d="M16.75 4.75V5C16.75 6.24264 17.7574 7.25 19 7.25H19.25M12.75 4.75V5C12.75 8.45178 15.5482 11.25 19 11.25H19.25" stroke="#141414" style="stroke:#141414;stroke:color(display-p3 0.0800 0.0800 0.0800);stroke-opacity:1;" stroke-width="1.5" stroke-linecap="round" stroke-linejoin="round"/>
</svg>
