<svg width="24" height="24" viewBox="0 0 24 24" fill="none" xmlns="http://www.w3.org/2000/svg">
<path d="M6.75003 19.25C6.75003 19.25 8.32503 16.75 12 16.75C15.675 16.75 17.25 19.25 17.25 19.25M12 4.75V5.25M15.625 5.72132L15.375 6.15433M18.2788 8.37489L17.8458 8.62489M19.2501 12.0001H18.7501M18.2787 15.625L17.8457 15.375M6.15434 15.375L5.72133 15.625M5.25 12H4.75M6.15436 8.625L5.72134 8.375M8.62498 6.15437L8.37498 5.72136M14.25 12C14.25 13.2426 13.2427 14.25 12 14.25C10.7574 14.25 9.75003 13.2426 9.75003 12C9.75003 10.7574 10.7574 9.75 12 9.75C13.2427 9.75 14.25 10.7574 14.25 12Z" stroke="#141414" style="stroke:#141414;stroke:color(display-p3 0.0800 0.0800 0.0800);stroke-opacity:1;" stroke-width="1.5" stroke-linecap="round" stroke-linejoin="round"/>
</svg>
