<svg width="24" height="24" viewBox="0 0 24 24" fill="none" xmlns="http://www.w3.org/2000/svg">
<path d="M5.39786 9C4.98178 9.91422 4.75 10.93 4.75 12C4.75 16.0041 7.99594 19.25 12 19.25C13.07 19.25 14.0858 19.0182 15 18.6021M17.3625 16.8792C18.5351 15.5912 19.25 13.8791 19.25 12C19.25 7.99594 16.0041 4.75 12 4.75C10.1054 4.75 8.38052 5.47674 7.08894 6.66666M9.87283 9.26488C10.1775 8.38322 11.0148 7.75 12 7.75C13.2426 7.75 14.25 8.75736 14.25 10C14.25 10.9767 13.6277 11.808 12.7579 12.1191M7.19745 17C8.14174 15.8675 9.47909 15.0742 10.9999 14.8296L11.2499 14.8008M4.75 4.75L19.25 19.25" stroke="#141414" style="stroke:#141414;stroke:color(display-p3 0.0800 0.0800 0.0800);stroke-opacity:1;" stroke-width="1.5" stroke-linecap="round" stroke-linejoin="round"/>
</svg>
