<svg width="24" height="24" viewBox="0 0 24 24" fill="none" xmlns="http://www.w3.org/2000/svg">
<path d="M12 19.25V15.75M12 19.25C9.68399 19.25 7.80067 17.3975 7.75101 15.0934M12 19.25C13.965 19.25 15.6185 17.9164 16.1049 16.1049M4.75 8.75V9.07649C4.75 9.81762 5.15985 10.498 5.81501 10.8445L7.88365 11.9385M19.25 7.75V9.07649C19.25 9.81762 18.8402 10.498 18.185 10.8445L16.1164 11.9385C15.8416 10.8698 15.1616 9.96377 14.25 9.39378M4.75 19.25V17.6048C4.75 16.7711 5.26715 16.0248 6.04775 15.7321L7.75101 15.0934M14.25 9.39378V7.25M14.25 9.39378C13.6638 9.02724 12.9817 8.79968 12.25 8.75723M14.25 7.25V6.75C14.25 5.64543 13.3546 4.75 12.25 4.75H11.75C10.997 4.75 10.3412 5.16614 10 5.781M14.25 7.25L15.1444 6.80279C15.822 6.464 16.25 5.77148 16.25 5.01393V4.75M7.75101 15.0934C7.75034 15.0623 7.75 15.0312 7.75 15V13C7.75 12.6335 7.7964 12.2778 7.88365 11.9385M7.88365 11.9385C8.13268 10.97 8.71452 10.135 9.5 9.5627M4.75 4.75L16.1049 16.1049M19.25 19.25L16.1049 16.1049" stroke="#141414" style="stroke:#141414;stroke:color(display-p3 0.0800 0.0800 0.0800);stroke-opacity:1;" stroke-width="1.5" stroke-linecap="round" stroke-linejoin="round"/>
</svg>
