<svg width="24" height="24" viewBox="0 0 24 24" fill="none" xmlns="http://www.w3.org/2000/svg">
<path d="M5.83128 10C5.77788 10.325 5.75 10.6589 5.75 11C5.75 15 12 19.25 12 19.25C12 19.25 12.6944 18.7778 13.6204 18M16.1625 15.5C17.3119 14.1369 18.25 12.5497 18.25 11C18.25 7.5 15.3137 4.75 12 4.75C10.2286 4.75 8.56507 5.53584 7.40027 6.80199" stroke="#141414" style="stroke:#141414;stroke:color(display-p3 0.0800 0.0800 0.0800);stroke-opacity:1;" stroke-width="1.5" stroke-linecap="round" stroke-linejoin="round"/>
<path d="M10.4091 9.40901C11.2877 8.53033 12.7124 8.53033 13.591 9.40901C14.4697 10.2877 14.4697 11.7123 13.591 12.591" stroke="#141414" style="stroke:#141414;stroke:color(display-p3 0.0800 0.0800 0.0800);stroke-opacity:1;" stroke-width="1.5" stroke-linecap="round" stroke-linejoin="round"/>
<path d="M4.75 4.75L19.25 19.25" stroke="#141414" style="stroke:#141414;stroke:color(display-p3 0.0800 0.0800 0.0800);stroke-opacity:1;" stroke-width="1.5" stroke-linecap="round" stroke-linejoin="round"/>
</svg>
