<svg width="24" height="24" viewBox="0 0 24 24" fill="none" xmlns="http://www.w3.org/2000/svg">
<path d="M16.25 10.75V13.25M16.25 10.75V11.25M16.25 10.75C16.25 9.64543 15.3546 8.75 14.25 8.75H12.75C12.1977 8.75 11.75 8.30228 11.75 7.75M10.25 10.75H8.75C8.19772 10.75 7.75 11.1977 7.75 11.75V12.25C7.75 12.8023 8.19772 13.25 8.75 13.25H13M7 7L17 17M19.25 12C19.25 16.0041 16.0041 19.25 12 19.25C7.99594 19.25 4.75 16.0041 4.75 12C4.75 7.99594 7.99594 4.75 12 4.75C16.0041 4.75 19.25 7.99594 19.25 12Z" stroke="#141414" style="stroke:#141414;stroke:color(display-p3 0.0800 0.0800 0.0800);stroke-opacity:1;" stroke-width="1.5" stroke-linecap="round" stroke-linejoin="round"/>
</svg>
