<svg width="24" height="24" viewBox="0 0 24 24" fill="none" xmlns="http://www.w3.org/2000/svg">
<path d="M9.75 4.75V9C9.75 10.5 7.75 10.5 7.75 12C7.75 13 10 13.25 10 13.25C10 13.25 10.5 14.25 12 14.25C13.5 14.25 14 13.25 14 13.25C14 13.25 16.25 13 16.25 12C16.25 10.5 14.25 10.5 14.25 9V4.75M15 15.75C14.5833 16.1389 13.75 17.5 13.75 18.0833C13.75 18.6667 14.375 19.25 15 19.25C15.625 19.25 16.25 18.6667 16.25 18.0833C16.25 17.5 15 15.75 15 15.75Z" stroke="#141414" style="stroke:#141414;stroke:color(display-p3 0.0800 0.0800 0.0800);stroke-opacity:1;" stroke-width="1.5" stroke-linecap="round" stroke-linejoin="round"/>
</svg>
