<svg width="24" height="24" viewBox="0 0 24 24" fill="none" xmlns="http://www.w3.org/2000/svg">
<path d="M15.25 12C15.25 16.0041 13.7949 19.25 12 19.25C10.2051 19.25 8.75 16.0041 8.75 12C8.75 7.99594 10.2051 4.75 12 4.75C13.7949 4.75 15.25 7.99594 15.25 12Z" stroke="#141414" style="stroke:#141414;stroke:color(display-p3 0.0800 0.0800 0.0800);stroke-opacity:1;" stroke-width="1.5" stroke-linecap="round" stroke-linejoin="round"/>
<path d="M10.1839 8.78043C6.3085 11.0705 3.97996 14.3685 4.98296 16.1466C5.98597 17.9247 9.94069 17.5097 13.8161 15.2196C17.6915 12.9295 20.02 9.63152 19.017 7.8534C18.014 6.07528 14.0593 6.49032 10.1839 8.78043Z" stroke="#141414" style="stroke:#141414;stroke:color(display-p3 0.0800 0.0800 0.0800);stroke-opacity:1;" stroke-width="1.5" stroke-linecap="round" stroke-linejoin="round"/>
<path d="M13.8161 8.78043C17.6915 11.0705 20.02 14.3685 19.017 16.1466C18.014 17.9247 14.0593 17.5097 10.1839 15.2196C6.3085 12.9295 3.97996 9.63152 4.98296 7.8534C5.98596 6.07528 9.94069 6.49032 13.8161 8.78043Z" stroke="#141414" style="stroke:#141414;stroke:color(display-p3 0.0800 0.0800 0.0800);stroke-opacity:1;" stroke-width="1.5" stroke-linecap="round" stroke-linejoin="round"/>
<path d="M12.5 12C12.5 12.2761 12.2761 12.5 12 12.5C11.7239 12.5 11.5 12.2761 11.5 12C11.5 11.7239 11.7239 11.5 12 11.5C12.2761 11.5 12.5 11.7239 12.5 12Z" stroke="#141414" style="stroke:#141414;stroke:color(display-p3 0.0800 0.0800 0.0800);stroke-opacity:1;" stroke-linecap="round" stroke-linejoin="round"/>
</svg>
