<svg width="24" height="24" viewBox="0 0 24 24" fill="none" xmlns="http://www.w3.org/2000/svg">
<path d="M12 16.75C11.3096 16.75 10.75 17.4216 10.75 18.25V19M12 16.75C12.6904 16.75 13.25 17.4216 13.25 18.25V19M12 16.75V14.75M13.0828 17.5C15.3426 16.5714 15.9138 11.2143 12.75 10.75M11.1306 17.1723C11.1306 17.1723 8.75 16 8.75 13M18.25 13C18.25 16.4518 15.4518 19.25 12 19.25C8.54822 19.25 5.75 16.4518 5.75 13C5.75 9 12 8 12 4.75C12 8 18.25 9 18.25 13Z" stroke="#141414" style="stroke:#141414;stroke:color(display-p3 0.0800 0.0800 0.0800);stroke-opacity:1;" stroke-width="1.5" stroke-linecap="round" stroke-linejoin="round"/>
</svg>
