<svg width="24" height="24" viewBox="0 0 24 24" fill="none" xmlns="http://www.w3.org/2000/svg">
<path d="M12 19.25C16.0041 19.25 19.25 16.0041 19.25 12C19.25 10.4486 18.7627 9.01107 17.9329 7.83201M12 4.75C7.99594 4.75 4.75 7.99594 4.75 12C4.75 13.5514 5.23727 14.9889 6.06711 16.168M17.9329 7.83201C18.1301 7.61102 18.25 7.31951 18.25 7C18.25 6.30964 17.6904 5.75 17 5.75C16.6805 5.75 16.389 5.86988 16.168 6.06711C15.9115 6.29603 15.75 6.62915 15.75 7C15.75 7.69036 16.3096 8.25 17 8.25C17.3708 8.25 17.704 8.08851 17.9329 7.83201ZM6.06711 16.168C5.86988 16.389 5.75 16.6805 5.75 17C5.75 17.6904 6.30964 18.25 7 18.25C7.31951 18.25 7.61102 18.1301 7.83201 17.9329C8.08851 17.704 8.25 17.3708 8.25 17C8.25 16.3096 7.69036 15.75 7 15.75C6.62915 15.75 6.29603 15.9115 6.06711 16.168ZM14.25 12C14.25 13.2426 13.2426 14.25 12 14.25C10.7574 14.25 9.75 13.2426 9.75 12C9.75 10.7574 10.7574 9.75 12 9.75C13.2426 9.75 14.25 10.7574 14.25 12Z" stroke="#141414" style="stroke:#141414;stroke:color(display-p3 0.0800 0.0800 0.0800);stroke-opacity:1;" stroke-width="1.5" stroke-linecap="round" stroke-linejoin="round"/>
</svg>
