<svg width="24" height="24" viewBox="0 0 24 24" fill="none" xmlns="http://www.w3.org/2000/svg">
<path d="M7.75 6.5V7.25C7.75 7.80228 8.19772 8.25 8.75 8.25H17.25C17.8023 8.25 18.25 7.80228 18.25 7.25V5.75C18.25 5.19772 17.8023 4.75 17.25 4.75H8.75C8.19772 4.75 7.75 5.19772 7.75 5.75V6.5ZM7.75 6.5H6.75C6.19772 6.5 5.75 6.94772 5.75 7.5V10.75C5.75 11.3023 6.19772 11.75 6.75 11.75H10C11.1046 11.75 12 12.6454 12 13.75V15.75M12 15.75H11C10.4477 15.75 10 16.1977 10 16.75V19.25M12 15.75H13C13.5523 15.75 14 16.1977 14 16.75V19.25" stroke="#141414" style="stroke:#141414;stroke:color(display-p3 0.0800 0.0800 0.0800);stroke-opacity:1;" stroke-width="1.5" stroke-linecap="round" stroke-linejoin="round"/>
</svg>
