<svg width="24" height="24" viewBox="0 0 24 24" fill="none" xmlns="http://www.w3.org/2000/svg">
<path d="M6.75 18.25L6.75 17.75C6.75 17.1977 7.19771 16.75 7.75 16.75L16.25 16.75C16.8023 16.75 17.25 17.1977 17.25 17.75V18.25C17.25 18.8023 16.8023 19.25 16.25 19.25L7.75 19.25C7.19772 19.25 6.75 18.8023 6.75 18.25Z" stroke="#141414" style="stroke:#141414;stroke:color(display-p3 0.0800 0.0800 0.0800);stroke-opacity:1;" stroke-width="1.5" stroke-linecap="round" stroke-linejoin="round"/>
<path d="M8.74998 16.6561L6.96376 12.2743C6.83114 11.9489 6.87898 11.5778 7.08978 11.2968L11.2 5.8165C11.6 5.28317 12.4 5.28317 12.8 5.8165L16.9102 11.2968C17.121 11.5778 17.1688 11.9489 17.0362 12.2743L15.25 16.6561" stroke="#141414" style="stroke:#141414;stroke:color(display-p3 0.0800 0.0800 0.0800);stroke-opacity:1;" stroke-width="1.5" stroke-linecap="round" stroke-linejoin="round"/>
<path d="M12 5L12 12.25" stroke="#141414" style="stroke:#141414;stroke:color(display-p3 0.0800 0.0800 0.0800);stroke-opacity:1;" stroke-width="1.5" stroke-linecap="round" stroke-linejoin="round"/>
</svg>
