<svg width="24" height="24" viewBox="0 0 24 24" fill="none" xmlns="http://www.w3.org/2000/svg">
<path d="M11.25 7C11.25 8.24264 10.2426 9.25 9 9.25C7.75736 9.25 6.75 8.24264 6.75 7C6.75 5.75736 7.75736 4.75 9 4.75C10.2426 4.75 11.25 5.75736 11.25 7Z" stroke="#141414" style="stroke:#141414;stroke:color(display-p3 0.0800 0.0800 0.0800);stroke-opacity:1;" stroke-width="1.5" stroke-linecap="round" stroke-linejoin="round"/>
<path fill-rule="evenodd" clip-rule="evenodd" d="M16.4981 5.40261C15.9483 4.6884 15.0314 4.49628 14.3425 5.15028C13.6537 5.80428 13.5567 6.89773 14.0977 7.67125L16.4981 10.25L18.8986 7.67125C19.4396 6.89773 19.3544 5.79741 18.6537 5.15028C17.9529 4.50316 17.0479 4.6884 16.4981 5.40261Z" stroke="#141414" style="stroke:#141414;stroke:color(display-p3 0.0800 0.0800 0.0800);stroke-opacity:1;" stroke-width="1.5" stroke-linecap="round" stroke-linejoin="round"/>
<path d="M9 9.75C5.6 9.75 4.75 11.5 4.75 14.25H6.75V17.25C6.75 18.3546 7.64543 19.25 8.75 19.25H9.25C10.3546 19.25 11.25 18.3546 11.25 17.25V14.25H13.25C13.25 11.5 12.4 9.75 9 9.75Z" stroke="#141414" style="stroke:#141414;stroke:color(display-p3 0.0800 0.0800 0.0800);stroke-opacity:1;" stroke-width="1.5" stroke-linecap="round" stroke-linejoin="round"/>
</svg>
