<svg width="24" height="24" viewBox="0 0 24 24" fill="none" xmlns="http://www.w3.org/2000/svg">
<path d="M14.25 14.25C14.25 11.5 13.4 9.75 10 9.75C6.6 9.75 5.75 11.5 5.75 14.25H7.75V17.25C7.75 18.3546 8.64543 19.25 9.75 19.25H12.25M14.25 14.25H12.25V19.25M14.25 14.25H18.25V19.25H12.25M12.25 7C12.25 8.24264 11.2426 9.25 10 9.25C8.75736 9.25 7.75 8.24264 7.75 7C7.75 5.75736 8.75736 4.75 10 4.75C11.2426 4.75 12.25 5.75736 12.25 7Z" stroke="#141414" style="stroke:#141414;stroke:color(display-p3 0.0800 0.0800 0.0800);stroke-opacity:1;" stroke-width="1.5" stroke-linecap="round" stroke-linejoin="round"/>
</svg>
