<svg width="24" height="24" viewBox="0 0 24 24" fill="none" xmlns="http://www.w3.org/2000/svg">
<path d="M15.75 4.75L17.5 6.5M17.5 6.5L19.25 8.25M17.5 6.5L19.25 4.75M17.5 6.5L15.75 8.25M11.25 7C11.25 8.24264 10.2426 9.25 9 9.25C7.75736 9.25 6.75 8.24264 6.75 7C6.75 5.75736 7.75736 4.75 9 4.75C10.2426 4.75 11.25 5.75736 11.25 7ZM4.75 14.25C4.75 11.5 5.6 9.75 9 9.75C12.4 9.75 13.25 11.5 13.25 14.25H11.25V17.25C11.25 18.3546 10.3546 19.25 9.25 19.25H8.75C7.64543 19.25 6.75 18.3546 6.75 17.25V14.25H4.75Z" stroke="#141414" style="stroke:#141414;stroke:color(display-p3 0.0800 0.0800 0.0800);stroke-opacity:1;" stroke-width="1.5" stroke-linecap="round" stroke-linejoin="round"/>
</svg>
