<svg width="24" height="24" viewBox="0 0 24 24" fill="none" xmlns="http://www.w3.org/2000/svg">
<path d="M4.75 7.75C4.75 6.09315 6.09315 4.75 7.75 4.75H16.25C17.9069 4.75 19.25 6.09315 19.25 7.75V16.25C19.25 17.9069 17.9069 19.25 16.25 19.25H7.75C6.09315 19.25 4.75 17.9069 4.75 16.25V7.75Z" stroke="#141414" style="stroke:#141414;stroke:color(display-p3 0.0800 0.0800 0.0800);stroke-opacity:1;" stroke-width="1.5" stroke-linecap="round" stroke-linejoin="round"/>
<path d="M12.7547 16.25H14.3484C14.9987 16.25 15.3928 15.6053 15.1986 15.0557C15.1228 14.841 14.8973 14.7345 14.6728 14.6965L13.3516 14.473C13.127 14.4351 12.9041 14.3285 12.8195 14.117C12.5715 13.4973 13.0133 12.75 13.7521 12.75H15.2547" stroke="#141414" style="stroke:#141414;stroke:color(display-p3 0.0800 0.0800 0.0800);stroke-opacity:1;" stroke-width="1.5" stroke-linecap="round" stroke-linejoin="round"/>
<path d="M7.75 16.25V12.25M7.75 12.25V8.75H9.5C10.4665 8.75 11.25 9.5335 11.25 10.5C11.25 11.4665 10.4665 12.25 9.5 12.25H7.75Z" stroke="#141414" style="stroke:#141414;stroke:color(display-p3 0.0800 0.0800 0.0800);stroke-opacity:1;" stroke-width="1.5" stroke-linecap="round" stroke-linejoin="round"/>
</svg>
