<svg width="24" height="24" viewBox="0 0 24 24" fill="none" xmlns="http://www.w3.org/2000/svg">
<path d="M7.75 5.75L5.75 5.75C5.19772 5.75 4.75 6.19771 4.75 6.75V17.25C4.75 17.8023 5.19771 18.25 5.75 18.25H18.25C18.8023 18.25 19.25 17.8023 19.25 17.25V6.75C19.25 6.19772 18.8023 5.75 18.25 5.75H16.25M7.75 5.75V12.25C7.75 12.8023 8.19772 13.25 8.75 13.25H9M7.75 5.75C7.75 5.19772 8.19772 4.75 8.75 4.75H9.25C9.80228 4.75 10.25 5.19772 10.25 5.75M16.25 5.75V12.25C16.25 12.8023 15.8023 13.25 15.25 13.25H15M16.25 5.75C16.25 5.19772 15.8023 4.75 15.25 4.75H14.75C14.1977 4.75 13.75 5.19772 13.75 5.75M10.25 5.75L13.75 5.75M10.25 5.75V12.25C10.25 12.8023 9.80228 13.25 9.25 13.25H9M13.75 5.75V12.25C13.75 12.8023 14.1977 13.25 14.75 13.25H15M9 13.25V18.25M15 13.25V18.25" stroke="#141414" style="stroke:#141414;stroke:color(display-p3 0.0800 0.0800 0.0800);stroke-opacity:1;" stroke-width="1.5" stroke-linecap="round" stroke-linejoin="round"/>
</svg>
