<svg width="24" height="24" viewBox="0 0 24 24" fill="none" xmlns="http://www.w3.org/2000/svg">
<path d="M12.5 9C12.5 9.2761 12.2761 9.5 12 9.5C11.7239 9.5 11.5 9.2761 11.5 9C11.5 8.72386 11.7239 8.5 12 8.5C12.2761 8.5 12.5 8.72386 12.5 9Z" stroke="#141414" style="stroke:#141414;stroke:color(display-p3 0.0800 0.0800 0.0800);stroke-opacity:1;" stroke-linecap="round" stroke-linejoin="round"/>
<path d="M5.74995 13.75L4.96429 18.0711C4.85269 18.685 5.32426 19.25 5.94816 19.25H18.0517C18.6756 19.25 19.1472 18.685 19.0356 18.0711L18.25 13.75M16.25 8.95C16.25 12 12 15.25 12 15.25C12 15.25 7.74995 12 7.74995 8.95C7.74995 6.6304 9.65274 4.75 12 4.75C14.3472 4.75 16.25 6.6304 16.25 8.95Z" stroke="#141414" style="stroke:#141414;stroke:color(display-p3 0.0800 0.0800 0.0800);stroke-opacity:1;" stroke-width="1.5" stroke-linecap="round" stroke-linejoin="round"/>
</svg>
