<svg width="24" height="24" viewBox="0 0 24 24" fill="none" xmlns="http://www.w3.org/2000/svg">
<path d="M15.75 5.75V4.75H18.25C18.8023 4.75 19.25 5.19772 19.25 5.75V10.25C19.25 10.8023 18.8023 11.25 18.25 11.25H16.75C16.1977 11.25 15.75 10.8023 15.75 10.25M15.75 5.75H9.75C7.54086 5.75 5.75 7.54086 5.75 9.75V15.75H4.75M15.75 5.75V10.25M15.75 10.25H11.25C10.6977 10.25 10.25 10.6977 10.25 11.25V15.75M10.25 15.75H4.75M10.25 15.75C10.8023 15.75 11.25 16.1977 11.25 16.75V18.25C11.25 18.8023 10.8023 19.25 10.25 19.25H5.75C5.19772 19.25 4.75 18.8023 4.75 18.25V15.75" stroke="#141414" style="stroke:#141414;stroke:color(display-p3 0.0800 0.0800 0.0800);stroke-opacity:1;" stroke-width="1.5" stroke-linecap="round" stroke-linejoin="round"/>
</svg>
