<svg width="24" height="24" viewBox="0 0 24 24" fill="none" xmlns="http://www.w3.org/2000/svg">
<path d="M4.75 19.25H19.25M13.7372 6.2863L16.3733 5.32952C17.3438 4.97725 18.417 5.47628 18.7703 6.44415L19.25 7.7585L14.8565 9.35312L12.2068 13.8318C11.9864 14.2042 11.6431 14.4887 11.2357 14.6366L9.54564 15.25L10.9024 10.7883L9.14506 11.4261C7.6892 11.9545 6.07943 11.206 5.54954 9.75419L4.75 7.5636L7.36669 8.59849L10.6618 7.40253M13.7372 6.2863L10.6618 7.40253M13.7372 6.2863L10.8137 4.89209C10.3815 4.71345 9.89776 4.70289 9.45808 4.86247L8.82363 5.09274L10.6618 7.40253" stroke="#141414" style="stroke:#141414;stroke:color(display-p3 0.0800 0.0800 0.0800);stroke-opacity:1;" stroke-width="1.5" stroke-linecap="round" stroke-linejoin="round"/>
</svg>
