<svg width="24" height="24" viewBox="0 0 24 24" fill="none" xmlns="http://www.w3.org/2000/svg">
<path d="M4.75 19.25H19.25M14.6706 9.38336L17.7183 10.2271C18.8405 10.5377 19.4893 11.6678 19.1676 12.7511L18.7306 14.2223L13.651 12.8161L8.24439 15.0813C7.7948 15.2697 7.29139 15.3014 6.82028 15.1709L4.86631 14.63L9.07933 11.5506L7.04748 10.9881C5.36424 10.5221 4.39098 8.82702 4.87364 7.20199L5.60192 4.75L7.30513 7.34438L11.1148 8.39902M14.6706 9.38336L11.1148 8.39902M14.6706 9.38336L12.9262 6.27414C12.65 5.83877 12.2147 5.51919 11.7064 5.37846L10.9729 5.1754L11.1148 8.39902" stroke="#141414" style="stroke:#141414;stroke:color(display-p3 0.0800 0.0800 0.0800);stroke-opacity:1;" stroke-width="1.5" stroke-linecap="round" stroke-linejoin="round"/>
</svg>
