<svg width="24" height="24" viewBox="0 0 24 24" fill="none" xmlns="http://www.w3.org/2000/svg">
<path d="M17.25 12C17.25 14.8995 14.8995 17.25 12 17.25C9.10051 17.25 6.75 14.8995 6.75 12C6.75 9.10051 9.10051 6.75 12 6.75C14.8995 6.75 17.25 9.10051 17.25 12Z" stroke="#141414" style="stroke:#141414;stroke:color(display-p3 0.0800 0.0800 0.0800);stroke-opacity:1;" stroke-width="1.5" stroke-linecap="round" stroke-linejoin="round"/>
<path d="M14.5 13C14.5 13.2761 14.2761 13.5 14 13.5C13.7239 13.5 13.5 13.2761 13.5 13C13.5 12.7239 13.7239 12.5 14 12.5C14.2761 12.5 14.5 12.7239 14.5 13Z" stroke="#141414" style="stroke:#141414;stroke:color(display-p3 0.0800 0.0800 0.0800);stroke-opacity:1;" stroke-linecap="round" stroke-linejoin="round"/>
<path d="M9.74036 7.02836C7.43859 5.28601 5.58836 4.43988 5.01552 5.01271C4.13772 5.89052 6.59194 9.76794 10.4972 13.6732C14.4024 17.5784 18.2799 20.0327 19.1577 19.1549C19.7443 18.5682 18.8428 16.6419 17.0145 14.2629" stroke="#141414" style="stroke:#141414;stroke:color(display-p3 0.0800 0.0800 0.0800);stroke-opacity:1;" stroke-width="1.5" stroke-linecap="round" stroke-linejoin="round"/>
</svg>
