<svg width="24" height="24" viewBox="0 0 24 24" fill="none" xmlns="http://www.w3.org/2000/svg">
<path d="M12.75 7H19.25M12.75 17H19.25M7 9.25C5.75736 9.25 4.75 8.24264 4.75 7C4.75 5.75736 5.75736 4.75 7 4.75C8.24264 4.75 9.25 5.75736 9.25 7C9.25 8.24264 8.24264 9.25 7 9.25ZM7 19.25C5.75736 19.25 4.75 18.2426 4.75 17C4.75 15.7574 5.75736 14.75 7 14.75C8.24264 14.75 9.25 15.7574 9.25 17C9.25 18.2426 8.24264 19.25 7 19.25Z" stroke="#141414" style="stroke:#141414;stroke:color(display-p3 0.0800 0.0800 0.0800);stroke-opacity:1;" stroke-width="1.5" stroke-linecap="round" stroke-linejoin="round"/>
</svg>
