<svg width="24" height="24" viewBox="0 0 24 24" fill="none" xmlns="http://www.w3.org/2000/svg">
<path d="M7 14.75H17C18.2426 14.75 19.25 15.7574 19.25 17C19.25 18.2426 18.2426 19.25 17 19.25H7C5.75736 19.25 4.75 18.2426 4.75 17C4.75 15.7574 5.75736 14.75 7 14.75Z" stroke="#141414" style="stroke:#141414;stroke:color(display-p3 0.0800 0.0800 0.0800);stroke-opacity:1;" stroke-width="1.5" stroke-linecap="round" stroke-linejoin="round"/>
<path d="M9.25 10.75H7.75C6.64543 10.75 5.75 11.6454 5.75 12.75C5.75 13.8546 6.64543 14.75 7.75 14.75H16.25C17.3546 14.75 18.25 13.8546 18.25 12.75C18.25 11.6454 17.3546 10.75 16.25 10.75H14.75" stroke="#141414" style="stroke:#141414;stroke:color(display-p3 0.0800 0.0800 0.0800);stroke-opacity:1;" stroke-width="1.5" stroke-linecap="round" stroke-linejoin="round"/>
<path d="M8 10.5C8 10.5 8.00003 7.75 11 7.75C14 7.75 14 4.75 14 4.75C14 4.75 17 6.5 17 10.5" stroke="#141414" style="stroke:#141414;stroke:color(display-p3 0.0800 0.0800 0.0800);stroke-opacity:1;" stroke-width="1.5" stroke-linecap="round" stroke-linejoin="round"/>
</svg>
