<svg width="24" height="24" viewBox="0 0 24 24" fill="none" xmlns="http://www.w3.org/2000/svg">
<path d="M16.9355 12.8461L16.3457 18.3564C16.2913 18.8646 15.8625 19.25 15.3514 19.25H8.64864C8.13759 19.25 7.70877 18.8647 7.65433 18.3565L7.00012 12.25M7.00012 12.25C7.87086 12.25 8.62607 11.7554 9.00012 11.0318C9.37418 11.7554 10.1294 12.25 11.0001 12.25C11.7723 12.25 12.4537 11.861 12.8589 11.2683C13.1913 12.4132 14.248 13.25 15.5001 13.25C17.0189 13.25 18.2501 12.0188 18.2501 10.5C18.2501 10.2259 18.21 9.96109 18.1353 9.71124C18.8117 9.21025 19.2501 8.40632 19.2501 7.5C19.2501 5.98122 18.0189 4.75 16.5001 4.75C15.5063 4.75 14.6357 5.27716 14.1525 6.06709C13.8154 5.86572 13.4213 5.75 13.0001 5.75C12.579 5.75 12.1848 5.86572 11.8478 6.06709C11.3646 5.27715 10.4939 4.75 9.50012 4.75C7.98134 4.75 6.75012 5.98122 6.75012 7.5C6.75012 7.58851 6.7543 7.67603 6.76248 7.7624C5.63155 7.88112 4.75012 8.83763 4.75012 10C4.75012 11.2426 5.75748 12.25 7.00012 12.25Z" stroke="#141414" style="stroke:#141414;stroke:color(display-p3 0.0800 0.0800 0.0800);stroke-opacity:1;" stroke-width="1.5" stroke-linecap="round" stroke-linejoin="round"/>
</svg>
