<svg width="24" height="24" viewBox="0 0 24 24" fill="none" xmlns="http://www.w3.org/2000/svg">
<path d="M12.75 9.75V4.75C18.5 4.75 19.25 9.75 19.25 9.75M12.75 9.75H5.75M12.75 9.75H19.25M19.25 9.75V12.25C19.25 13.9069 17.9069 15.25 16.25 15.25H8.75C7.09315 15.25 5.75 13.9069 5.75 12.25V9.75M5.75 9.75L4.75 7.75" stroke="#141414" style="stroke:#141414;stroke:color(display-p3 0.0800 0.0800 0.0800);stroke-opacity:1;" stroke-width="1.5" stroke-linecap="round" stroke-linejoin="round"/>
<path d="M10.25 17.5C10.25 18.4665 9.4665 19.25 8.5 19.25C7.5335 19.25 6.75 18.4665 6.75 17.5C6.75 16.5335 7.5335 15.75 8.5 15.75C9.4665 15.75 10.25 16.5335 10.25 17.5Z" stroke="#141414" style="stroke:#141414;stroke:color(display-p3 0.0800 0.0800 0.0800);stroke-opacity:1;" stroke-width="1.5" stroke-linecap="round" stroke-linejoin="round"/>
<path d="M18.25 17.5C18.25 18.4665 17.4665 19.25 16.5 19.25C15.5335 19.25 14.75 18.4665 14.75 17.5C14.75 16.5335 15.5335 15.75 16.5 15.75C17.4665 15.75 18.25 16.5335 18.25 17.5Z" stroke="#141414" style="stroke:#141414;stroke:color(display-p3 0.0800 0.0800 0.0800);stroke-opacity:1;" stroke-width="1.5" stroke-linecap="round" stroke-linejoin="round"/>
</svg>
