<svg width="24" height="24" viewBox="0 0 24 24" fill="none" xmlns="http://www.w3.org/2000/svg">
<path d="M9.75 13.25C10.3814 12.6211 11.159 12.2498 12 12.2498" stroke="#141414" style="stroke:#141414;stroke:color(display-p3 0.0800 0.0800 0.0800);stroke-opacity:1;" stroke-width="1.5" stroke-linecap="round" stroke-linejoin="round"/>
<path d="M6.75 10.25C8.23833 9.30448 10.0481 8.75 12 8.75C13.0505 8.75 14.0598 8.9106 15 9.20633" stroke="#141414" style="stroke:#141414;stroke:color(display-p3 0.0800 0.0800 0.0800);stroke-opacity:1;" stroke-width="1.5" stroke-linecap="round" stroke-linejoin="round"/>
<path d="M4.75 7.25C6.80507 5.67417 9.30437 4.75 12 4.75C14.6957 4.75 17.1949 5.67417 19.25 7.25" stroke="#141414" style="stroke:#141414;stroke:color(display-p3 0.0800 0.0800 0.0800);stroke-opacity:1;" stroke-width="1.5" stroke-linecap="round" stroke-linejoin="round"/>
<path d="M13.75 14.75V18.25C13.75 18.8023 14.1977 19.25 14.75 19.25H18.25C18.8023 19.25 19.25 18.8023 19.25 18.25V14.75H13.75Z" stroke="#141414" style="stroke:#141414;stroke:color(display-p3 0.0800 0.0800 0.0800);stroke-opacity:1;" stroke-width="1.5" stroke-linecap="round" stroke-linejoin="round"/>
<path d="M15 14.5V13.4286C15 12.6396 15.6716 12 16.5 12C17.3284 12 18 12.6396 18 13.4286V14.5" stroke="#141414" style="stroke:#141414;stroke:color(display-p3 0.0800 0.0800 0.0800);stroke-opacity:1;" stroke-width="1.5" stroke-linecap="round" stroke-linejoin="round"/>
</svg>
