<svg width="24" height="24" viewBox="0 0 24 24" fill="none" xmlns="http://www.w3.org/2000/svg">
<path d="M7.5 11.75H5.75C5.19772 11.75 4.75 12.1977 4.75 12.75V17.25C4.75 17.8023 5.19771 18.25 5.75 18.25H18.25C18.8023 18.25 19.25 17.8023 19.25 17.25V12.75C19.25 12.1977 18.8023 11.75 18.25 11.75H12.5M10 4.75V6.25M13.625 5.72168L12.875 7.02072M6.37524 5.72168L7.12524 7.02072M14.75 14.75H16.25M12.25 12C12.25 13.2426 11.2426 14.25 10 14.25C8.75736 14.25 7.75 13.2426 7.75 12C7.75 10.7574 8.75736 9.75 10 9.75C11.2426 9.75 12.25 10.7574 12.25 12Z" stroke="#141414" style="stroke:#141414;stroke:color(display-p3 0.0800 0.0800 0.0800);stroke-opacity:1;" stroke-width="1.5" stroke-linecap="round" stroke-linejoin="round"/>
</svg>
