<svg width="24" height="24" viewBox="0 0 24 24" fill="none" xmlns="http://www.w3.org/2000/svg">
<path d="M9.98389 9C10.0518 8.86333 10.1332 8.73454 10.2264 8.61538C10.6382 8.08862 11.2795 7.75 12 7.75C13.2426 7.75 14.25 8.75736 14.25 10C14.25 10.6275 13.9931 11.195 13.5788 11.6031C13.0782 12.0961 12.4712 12.6282 12.1769 13.2533M12 16.25V16.26M12 19.25C7.99594 19.25 4.75 16.0041 4.75 12C4.75 7.99594 7.99594 4.75 12 4.75C16.0041 4.75 19.25 7.99594 19.25 12C19.25 16.0041 16.0041 19.25 12 19.25Z" stroke="#141414" style="stroke:#141414;stroke:color(display-p3 0.0800 0.0800 0.0800);stroke-opacity:1;" stroke-width="1.5" stroke-linecap="round" stroke-linejoin="round"/>
</svg>
