<svg width="24" height="24" viewBox="0 0 24 24" fill="none" xmlns="http://www.w3.org/2000/svg">
<path d="M9.68912 4.75C7.06283 5.6411 5.09961 8.00949 4.75 10.8872L9.75 11.5236C9.8585 10.6306 10.4678 9.89556 11.2828 9.61901L9.68912 4.75Z" stroke="#141414" style="stroke:#141414;stroke:color(display-p3 0.0800 0.0800 0.0800);stroke-opacity:1;" stroke-width="1.5" stroke-linecap="round" stroke-linejoin="round"/>
<path d="M12.7172 9.61901L14.3109 4.75C16.9372 5.6411 18.9004 8.00949 19.25 10.8872L14.25 11.5236C14.1415 10.6306 13.5322 9.89556 12.7172 9.61901Z" stroke="#141414" style="stroke:#141414;stroke:color(display-p3 0.0800 0.0800 0.0800);stroke-opacity:1;" stroke-width="1.5" stroke-linecap="round" stroke-linejoin="round"/>
<path d="M13.3179 13.6891L16.2467 17.8647C15.0499 18.7367 13.5838 19.25 12 19.25C10.4162 19.25 8.9501 18.7367 7.75334 17.8647L10.6821 13.6891C11.0535 13.9597 11.5085 14.119 12 14.119C12.4915 14.119 12.9465 13.9597 13.3179 13.6891Z" stroke="#141414" style="stroke:#141414;stroke:color(display-p3 0.0800 0.0800 0.0800);stroke-opacity:1;" stroke-width="1.5" stroke-linecap="round" stroke-linejoin="round"/>
</svg>
