<svg width="24" height="24" viewBox="0 0 24 24" fill="none" xmlns="http://www.w3.org/2000/svg">
<path d="M4.74988 5.75012L4.74988 6.25013C4.74988 6.80241 5.19759 7.25013 5.74988 7.25013L18.2501 7.25013C18.8024 7.25013 19.2501 6.80241 19.2501 6.25013V5.75012C19.2501 5.19784 18.8024 4.75012 18.2501 4.75012L5.74988 4.75012C5.19759 4.75012 4.74988 5.19784 4.74988 5.75012Z" stroke="#141414" style="stroke:#141414;stroke:color(display-p3 0.0800 0.0800 0.0800);stroke-opacity:1;" stroke-width="1.5" stroke-linecap="round" stroke-linejoin="round"/>
<path d="M4.74988 11.7501L4.74988 12.2501C4.74988 12.8024 5.19759 13.2501 5.74988 13.2501L18.2501 13.2501C18.8024 13.2501 19.2501 12.8024 19.2501 12.2501V11.7501C19.2501 11.1978 18.8024 10.7501 18.2501 10.7501L5.74988 10.7501C5.19759 10.7501 4.74988 11.1978 4.74988 11.7501Z" stroke="#141414" style="stroke:#141414;stroke:color(display-p3 0.0800 0.0800 0.0800);stroke-opacity:1;" stroke-width="1.5" stroke-linecap="round" stroke-linejoin="round"/>
<path d="M4.74988 17.7501L4.74988 18.2501C4.74988 18.8024 5.19759 19.2501 5.74988 19.2501L18.2501 19.2501C18.8024 19.2501 19.2501 18.8024 19.2501 18.2501V17.7501C19.2501 17.1978 18.8024 16.7501 18.2501 16.7501L5.74988 16.7501C5.19759 16.7501 4.74988 17.1978 4.74988 17.7501Z" stroke="#141414" style="stroke:#141414;stroke:color(display-p3 0.0800 0.0800 0.0800);stroke-opacity:1;" stroke-width="1.5" stroke-linecap="round" stroke-linejoin="round"/>
</svg>
