<svg width="24" height="24" viewBox="0 0 24 24" fill="none" xmlns="http://www.w3.org/2000/svg">
<path d="M9.75 7.75L9.31063 5.99254C9.15285 5.36139 9.63021 4.75 10.2808 4.75H13.7192C14.3698 4.75 14.8472 5.36139 14.6894 5.99254L14.25 7.75M9.75 7.75H14.25M9.75 7.75C8.64543 7.75 7.75 8.64543 7.75 9.75V16.9503C7.75 17.7406 8.21555 18.4601 8.96836 18.7009C9.79778 18.9661 10.9344 19.25 12 19.25C13.0656 19.25 14.2022 18.9661 15.0316 18.7009C15.7845 18.4601 16.25 17.7406 16.25 16.9503V9.75C16.25 8.64543 15.3546 7.75 14.25 7.75M13.25 11.75H11.75C11.1977 11.75 10.75 12.1977 10.75 12.75V13C10.75 13.5523 11.1977 14 11.75 14H12.25C12.8023 14 13.25 14.4477 13.25 15V15.25C13.25 15.8023 12.8023 16.25 12.25 16.25H10.75" stroke="#141414" style="stroke:#141414;stroke:color(display-p3 0.0800 0.0800 0.0800);stroke-opacity:1;" stroke-width="1.5" stroke-linecap="round" stroke-linejoin="round"/>
</svg>
