<svg width="24" height="24" viewBox="0 0 24 24" fill="none" xmlns="http://www.w3.org/2000/svg">
<path d="M9.64145 9.76398C9.08894 10.3466 8.75 11.1337 8.75 12C8.75 13.7949 10.2051 15.25 12 15.25C13.7949 15.25 15.25 13.7949 15.25 12C15.25 10.4863 14.2151 9.21424 12.8143 8.85284L12.7546 8.83866M12.25 12.25L6.875 6.875L6.85792 6.88908C5.55507 8.19982 4.75 10.0059 4.75 12C4.75 16.0041 7.99594 19.25 12 19.25C16.0041 19.25 19.25 16.0041 19.25 12C19.25 7.99594 16.0041 4.75 12 4.75C11.2332 4.75 10.4942 4.86904 9.80054 5.08964" stroke="#141414" style="stroke:#141414;stroke:color(display-p3 0.0800 0.0800 0.0800);stroke-opacity:1;" stroke-width="1.5" stroke-linecap="round" stroke-linejoin="round"/>
</svg>
