<svg width="24" height="24" viewBox="0 0 24 24" fill="none" xmlns="http://www.w3.org/2000/svg">
<path d="M19.25 8.25V7.75C19.25 6.64543 18.3546 5.75 17.25 5.75H6.75C5.64543 5.75 4.75 6.64543 4.75 7.75V8.25M19.25 8.25H4.75M19.25 8.25V10.25M4.75 8.25V16.25C4.75 17.3546 5.64543 18.25 6.75 18.25H9.25M16.9927 16.9927L19.25 19.25M15.2353 17.7206C16.6079 17.7206 17.7206 16.6079 17.7206 15.2353C17.7206 13.8627 16.6079 12.75 15.2353 12.75C13.8627 12.75 12.75 13.8627 12.75 15.2353C12.75 16.6079 13.8627 17.7206 15.2353 17.7206Z" stroke="#141414" style="stroke:#141414;stroke:color(display-p3 0.0800 0.0800 0.0800);stroke-opacity:1;" stroke-width="1.5" stroke-linecap="round" stroke-linejoin="round"/>
</svg>
