<svg width="24" height="24" viewBox="0 0 24 24" fill="none" xmlns="http://www.w3.org/2000/svg">
<path d="M12 4.75C7.99594 4.75 4.75 7.99594 4.75 12C4.75 16.0041 7.99594 19.25 12 19.25C10.7574 19.25 8.75 16.5 8.75 12M12 4.75C16.0041 4.75 19.25 7.99594 19.25 12M12 4.75C10.7574 4.75 8.75 7.5 8.75 12M12 4.75C12.9533 4.75 14.3567 6.36851 14.9585 9.15402C14.9672 9.19414 14.9757 9.23451 14.984 9.27511M8.75 12H5M8.75 12H11.25" stroke="#141414" style="stroke:#141414;stroke:color(display-p3 0.0800 0.0800 0.0800);stroke-opacity:1;" stroke-width="1.5" stroke-linecap="round" stroke-linejoin="round"/>
<path d="M17.1471 17.1471L19.25 19.25M15.2353 17.7206C16.6079 17.7206 17.7206 16.6079 17.7206 15.2353C17.7206 13.8627 16.6079 12.75 15.2353 12.75C13.8627 12.75 12.75 13.8627 12.75 15.2353C12.75 16.6079 13.8627 17.7206 15.2353 17.7206Z" stroke="#141414" style="stroke:#141414;stroke:color(display-p3 0.0800 0.0800 0.0800);stroke-opacity:1;" stroke-width="1.5" stroke-linecap="round" stroke-linejoin="round"/>
</svg>
