<svg width="24" height="24" viewBox="0 0 24 24" fill="none" xmlns="http://www.w3.org/2000/svg">
<path d="M9 19.25C9 19.25 10 16 6.5 11.5M11.0106 8.24998C10.3191 8.24595 9.75473 7.60164 9.75001 6.81087C9.74529 6.02011 10.9897 4.75 10.9897 4.75C10.9897 4.75 12.2493 6.0347 12.254 6.82547C12.2587 7.61624 11.702 8.25401 11.0106 8.24998ZM11.0106 8.24998C11.0106 8.24998 13.75 11.25 12.75 19.25M17.5 8.5C14.5 14.5 16.25 19.25 16.25 19.25M7.19578 9.46415C7.40045 10.2462 7.02579 11.0285 6.35896 11.2114C5.69212 11.3944 4.98564 10.9087 4.78097 10.1266C4.5763 9.34459 5.45309 7.75 5.45309 7.75C5.45309 7.75 6.99112 8.68209 7.19578 9.46415ZM16.8059 6.46415C16.6013 7.24621 16.9759 8.0285 17.6428 8.21145C18.3096 8.39439 19.0161 7.90871 19.2207 7.12665C19.4254 6.34459 18.5486 4.75 18.5486 4.75C18.5486 4.75 17.0106 5.68209 16.8059 6.46415Z" stroke="#141414" style="stroke:#141414;stroke:color(display-p3 0.0800 0.0800 0.0800);stroke-opacity:1;" stroke-width="1.5" stroke-linecap="round" stroke-linejoin="round"/>
</svg>
