<svg width="24" height="24" viewBox="0 0 24 24" fill="none" xmlns="http://www.w3.org/2000/svg">
<path d="M13.5705 13.5704C12.4965 14.6443 12.4739 16.3629 13.52 17.409C14.566 18.455 17.7998 19.9476 18.8738 18.8737C19.9477 17.7998 18.4551 14.5659 17.4091 13.5199C16.363 12.4738 14.6444 12.4965 13.5705 13.5704ZM13.5705 13.5704L15.3383 15.3382L15.515 16.5756M5.57049 10.4245C4.49654 9.3506 4.47393 7.63201 5.51998 6.58597C6.56603 5.53992 9.79985 4.0473 10.8738 5.12124C11.9477 6.19519 10.4551 9.42901 9.40907 10.4751C8.36302 11.5211 6.64443 11.4985 5.57049 10.4245ZM5.57049 10.4245L7.33825 8.65678L7.51503 7.41934M19.25 5.24991V5.25991M15.25 8.24991V8.25991M19.25 10.2499V10.2599M4.75 14.2499V14.2599M9.75 14.2499V14.2599M9.25 19.2499V19.2599" stroke="#141414" style="stroke:#141414;stroke:color(display-p3 0.0800 0.0800 0.0800);stroke-opacity:1;" stroke-width="1.5" stroke-linecap="round" stroke-linejoin="round"/>
</svg>
