<svg width="24" height="24" viewBox="0 0 24 24" fill="none" xmlns="http://www.w3.org/2000/svg">
<path d="M13.25 19.25H6.75C5.64543 19.25 4.75 18.3546 4.75 17.25V10.75M8.75 9.75V10.25M19.25 9.75V10.25M8.75 13.75V14.25C8.75 14.8023 9.19772 15.25 9.75 15.25H10.25M8.75 6.25V5.75C8.75 5.19772 9.19772 4.75 9.75 4.75H10.25M19.25 6.25V5.75C19.25 5.19772 18.8023 4.75 18.25 4.75H17.75M19.25 13.75V14.25C19.25 14.8023 18.8023 15.25 18.25 15.25H17.75M13.75 15.25H14.25M13.75 4.75H14.25" stroke="#141414" style="stroke:#141414;stroke:color(display-p3 0.0800 0.0800 0.0800);stroke-opacity:1;" stroke-width="1.5" stroke-linecap="round" stroke-linejoin="round"/>
</svg>
