<svg width="24" height="24" viewBox="0 0 24 24" fill="none" xmlns="http://www.w3.org/2000/svg">
<path d="M17.25 10.75C18.3546 10.75 19.25 11.6454 19.25 12.75V17.25C19.25 18.3546 18.3546 19.25 17.25 19.25H12.75C11.6454 19.25 10.75 18.3546 10.75 17.25L10.75 12.75C10.75 11.6454 11.6454 10.75 12.75 10.75L17.25 10.75Z" stroke="#141414" style="stroke:#141414;stroke:color(display-p3 0.0800 0.0800 0.0800);stroke-opacity:1;" stroke-width="1.5" stroke-linecap="round" stroke-linejoin="round"/>
<path d="M6.25 4.75L5.75 4.75C5.19772 4.75 4.75 5.19772 4.75 5.75L4.75 6.25M6.25 13.25H5.75C5.19772 13.25 4.75 12.8023 4.75 12.25L4.75 11.75M13.25 6.25V5.75C13.25 5.19772 12.8023 4.75 12.25 4.75L11.75 4.75" stroke="#141414" style="stroke:#141414;stroke:color(display-p3 0.0800 0.0800 0.0800);stroke-opacity:1;" stroke-width="1.5" stroke-linecap="round" stroke-linejoin="round"/>
</svg>
