<svg width="24" height="24" viewBox="0 0 24 24" fill="none" xmlns="http://www.w3.org/2000/svg">
<path d="M7.25 13.25H6.75C5.64543 13.25 4.75 12.3546 4.75 11.25L4.75 6.75C4.75 5.64543 5.64543 4.75 6.75 4.75L11.25 4.75C12.3546 4.75 13.25 5.64543 13.25 6.75V7.25" stroke="#141414" style="stroke:#141414;stroke:color(display-p3 0.0800 0.0800 0.0800);stroke-opacity:1;" stroke-width="1.5" stroke-linecap="round" stroke-linejoin="round"/>
<path d="M17.75 19.25H18.25C18.8023 19.25 19.25 18.8023 19.25 18.25V17.75M17.75 10.75L18.25 10.75C18.8023 10.75 19.25 11.1977 19.25 11.75V12.25M10.75 17.75L10.75 18.25C10.75 18.8023 11.1977 19.25 11.75 19.25H12.25M12.25 10.75L11.75 10.75C11.1977 10.75 10.75 11.1977 10.75 11.75L10.75 12.25" stroke="#141414" style="stroke:#141414;stroke:color(display-p3 0.0800 0.0800 0.0800);stroke-opacity:1;" stroke-width="1.5" stroke-linecap="round" stroke-linejoin="round"/>
</svg>
