<svg width="24" height="24" viewBox="0 0 24 24" fill="none" xmlns="http://www.w3.org/2000/svg">
<path d="M19.25 12.25V8.75C19.25 7.64543 18.3546 6.75 17.25 6.75H6.75C5.64543 6.75 4.75 7.64543 4.75 8.75V15.25C4.75 16.3546 5.64543 17.25 6.75 17.25H19.25M19.25 17.25L17.75 15.75M19.25 17.25L17.75 19M14.25 12C14.25 13.7949 13.2426 15.25 12 15.25C10.7574 15.25 9.75 13.7949 9.75 12C9.75 10.2051 10.7574 8.75 12 8.75C13.2426 8.75 14.25 10.2051 14.25 12Z" stroke="#141414" style="stroke:#141414;stroke:color(display-p3 0.0800 0.0800 0.0800);stroke-opacity:1;" stroke-width="1.5" stroke-linecap="round" stroke-linejoin="round"/>
</svg>
