<svg width="24" height="24" viewBox="0 0 24 24" fill="none" xmlns="http://www.w3.org/2000/svg">
<path d="M9.25 5.22965L7.13355 4.79015C5.89843 4.53366 4.75 5.53873 4.75 6.87616V12M9.25 5.22965V18.7704M9.25 5.22965L15.25 6.54891M9.25 18.7704L7.13355 19.2099C5.89843 19.4663 4.75 18.4613 4.75 17.1238V12M9.25 18.7704L15.25 17.4511M15.25 6.54891L17.6794 7.11646C18.5966 7.33073 19.25 8.19434 19.25 9.19236V12M15.25 6.54891V17.4511M15.25 17.4511L17.6794 16.8835C18.5966 16.6693 19.25 15.8057 19.25 14.8076V12M4.75 12H19.25" stroke="#141414" style="stroke:#141414;stroke:color(display-p3 0.0800 0.0800 0.0800);stroke-opacity:1;" stroke-width="1.5" stroke-linecap="round" stroke-linejoin="round"/>
</svg>
