<svg width="24" height="24" viewBox="0 0 24 24" fill="none" xmlns="http://www.w3.org/2000/svg">
<path d="M13 19.25C10.6528 19.25 8.75 17.3472 8.75 15C8.75 12.6528 10.6528 10.75 13 10.75C15.3472 10.75 17.25 12.6528 17.25 15C17.25 17.3472 15.3472 19.25 13 19.25ZM13 19.25H19.25C19.25 19.25 19.3817 16 17.1317 16M13 19.25H7.75C6.09315 19.25 4.75 17.9069 4.75 16.25V10.75C4.75 10.1977 5.19772 9.75 5.75 9.75H6.07848C6.59914 9.75 7.0333 10.1479 7.08881 10.6656C7.25656 12.2299 7.65719 15.25 8.25 15.25H8.75723M13.1496 19.25C11.8243 19.25 10.75 18.2426 10.75 17C10.75 15.7574 11.8243 14.75 13.1496 14.75C13.5462 14.75 13.9204 14.8402 14.25 15M6.84766 10.106L8.25 8.75M5.25 9.88378V6.75" stroke="#141414" style="stroke:#141414;stroke:color(display-p3 0.0800 0.0800 0.0800);stroke-opacity:1;" stroke-width="1.5" stroke-linecap="round" stroke-linejoin="round"/>
</svg>
