<svg width="24" height="24" viewBox="0 0 24 24" fill="none" xmlns="http://www.w3.org/2000/svg">
<path d="M7.19734 8.96392L7.05087 10.0807C6.89667 9.98982 6.75254 9.91859 6.62498 9.87501C5.64701 9.54086 5.24525 9.92939 4.93889 10.3889C4.63254 10.8485 4.70995 11.817 5.16948 12.1233L6.67968 12.9111L5.942 18.5359C5.86779 19.1017 6.49797 19.4889 6.96918 19.1669L8.28773 18.2659C9.00914 17.7729 9.96704 17.8053 10.6535 18.3459L11.3813 18.919C11.7442 19.2049 12.2557 19.2049 12.6187 18.919L13.3465 18.3459C14.0329 17.8053 14.9908 17.7729 15.7122 18.2659L17.0308 19.1669C17.502 19.4889 18.1322 19.1017 18.058 18.5359L17.3223 12.9263L18.8438 12.1327C19.3033 11.8263 19.3807 10.8579 19.0743 10.3983C18.768 9.93877 18.3662 9.55023 17.3883 9.88439C17.2576 9.92902 17.1096 10.0026 16.9512 10.0967L16.8026 8.96392C16.4864 6.55289 14.4317 4.75 12 4.75C9.56831 4.75 7.51354 6.55289 7.19734 8.96392Z" stroke="#141414" style="stroke:#141414;stroke:color(display-p3 0.0800 0.0800 0.0800);stroke-opacity:1;" stroke-width="1.5" stroke-linecap="round" stroke-linejoin="round"/>
</svg>
