<svg width="24" height="24" viewBox="0 0 24 24" fill="none" xmlns="http://www.w3.org/2000/svg">
<path d="M4.75 9.75C4.75 8.64543 5.64543 7.75 6.75 7.75H13.25C14.3546 7.75 15.25 8.64543 15.25 9.75V13.25C15.25 13.8023 14.8023 14.25 14.25 14.25H12.3333C12.117 14.25 11.9064 14.1798 11.7333 14.05L10 12.75L8.26667 14.05C8.09357 14.1798 7.88304 14.25 7.66667 14.25H5.75C5.19772 14.25 4.75 13.8023 4.75 13.25V9.75Z" stroke="#141414" style="stroke:#141414;stroke:color(display-p3 0.0800 0.0800 0.0800);stroke-opacity:1;" stroke-width="1.5" stroke-linecap="round" stroke-linejoin="round"/>
<path d="M9.75 17V18.25C9.75 18.8023 10.1977 19.25 10.75 19.25H15.25C17.4591 19.25 19.25 17.4591 19.25 15.25V4.75" stroke="#141414" style="stroke:#141414;stroke:color(display-p3 0.0800 0.0800 0.0800);stroke-opacity:1;" stroke-width="1.5" stroke-linecap="round" stroke-linejoin="round"/>
</svg>
