<svg width="24" height="24" viewBox="0 0 24 24" fill="none" xmlns="http://www.w3.org/2000/svg">
<path d="M15.1071 6.75H15.8369C16.6839 6.75 17.4391 7.28355 17.722 8.0819L18.0071 8.88636M18.0071 8.88636L19.25 10.9773V13.25L17.1786 14.25H15.75M18.0071 8.88636L15.1071 10.9773L11.25 8.75H4.75V9.70601C4.75 11.0601 5.65707 12.2463 6.96382 12.6012L8 12.8825M13.0357 14.25L11.8587 15.9546C11.2987 16.7657 10.3758 17.25 9.39006 17.25H5.7706C4.79248 17.25 4.39604 15.9906 5.19781 15.4303L8 12.8825M13.0357 14.25H15.75M13.0357 14.25L8 12.8825M15.75 14.25V17.25H18.25" stroke="#141414" style="stroke:#141414;stroke:color(display-p3 0.0800 0.0800 0.0800);stroke-opacity:1;" stroke-width="1.5" stroke-linecap="round" stroke-linejoin="round"/>
</svg>
