<svg width="24" height="24" viewBox="0 0 24 24" fill="none" xmlns="http://www.w3.org/2000/svg">
<path d="M8.25 8.75H7.25C6.42157 8.75 5.75 9.42157 5.75 10.25V10.75C5.75 11.3023 6.19772 11.75 6.75 11.75C7.57843 11.75 8.25 12.4216 8.25 13.25V13.5C8.25 14.4665 7.4665 15.25 6.5 15.25H5.75M18.25 8.75H17.25C16.4216 8.75 15.75 9.42157 15.75 10.25V10.75C15.75 11.3023 16.1977 11.75 16.75 11.75C17.5784 11.75 18.25 12.4216 18.25 13.25V13.5C18.25 14.4665 17.4665 15.25 16.5 15.25H15.75M13.25 10V14C13.25 14.6904 12.6904 15.25 12 15.25C11.3096 15.25 10.75 14.6904 10.75 14V10C10.75 9.30964 11.3096 8.75 12 8.75C12.6904 8.75 13.25 9.30964 13.25 10Z" stroke="#141414" style="stroke:#141414;stroke:color(display-p3 0.0800 0.0800 0.0800);stroke-opacity:1;" stroke-width="1.5" stroke-linecap="round" stroke-linejoin="round"/>
</svg>
