<svg width="24" height="24" viewBox="0 0 24 24" fill="none" xmlns="http://www.w3.org/2000/svg">
<path d="M13.7637 15.75H10.2363M5.75 16C5.75 17.2426 6.75736 18.25 8 18.25C9.24264 18.25 10.25 17.2426 10.25 16C10.25 14.7574 9.24264 13.75 8 13.75C6.75736 13.75 5.75 14.7574 5.75 16ZM5.75 16L5.62868 15.8787C5.06607 15.3161 4.75 14.553 4.75 13.7574V8.82843C4.75 8.29799 4.96071 7.78929 5.33579 7.41421L7 5.75M18.25 16C18.25 17.2426 17.2426 18.25 16 18.25C14.7574 18.25 13.75 17.2426 13.75 16C13.75 14.7574 14.7574 13.75 16 13.75C17.2426 13.75 18.25 14.7574 18.25 16ZM18.25 16L18.3713 15.8787C18.9339 15.3161 19.25 14.553 19.25 13.7574V8.82843C19.25 8.29799 19.0393 7.78929 18.6642 7.41421L17 5.75" stroke="#141414" style="stroke:#141414;stroke:color(display-p3 0.0800 0.0800 0.0800);stroke-opacity:1;" stroke-width="1.5" stroke-linecap="round" stroke-linejoin="round"/>
</svg>
