<svg width="24" height="24" viewBox="0 0 24 24" fill="none" xmlns="http://www.w3.org/2000/svg">
<path d="M19 12C19 12 16.9811 13.817 14.0318 14.1853M14.0318 14.1853C13.6992 14.2269 13.3547 14.25 13 14.25C9.5 14.25 5 12 5 12M14.0318 14.1853C14.1666 13.5035 14.25 12.7703 14.25 12C14.25 8 12 5 12 5M14.0318 14.1853C13.4669 17.0442 12 19 12 19M12 19.25C16.0041 19.25 19.25 16.0041 19.25 12C19.25 7.99594 16.0041 4.75 12 4.75C7.99594 4.75 4.75 7.99594 4.75 12C4.75 16.0041 7.99594 19.25 12 19.25Z" stroke="#141414" style="stroke:#141414;stroke:color(display-p3 0.0800 0.0800 0.0800);stroke-opacity:1;" stroke-width="1.5" stroke-linecap="round" stroke-linejoin="round"/>
</svg>
