<svg width="24" height="24" viewBox="0 0 24 24" fill="none" xmlns="http://www.w3.org/2000/svg">
<path d="M7.74999 4.75L7.19868 6.40395C6.73196 7.80409 7.75511 9.25 9.23099 9.25M8.75361 12.25H6.74988C5.64531 12.25 4.74988 11.3546 4.74988 10.25V9.75M7.74988 19.25L7.19856 17.5961C6.73185 16.1959 7.75511 14.75 9.23099 14.75M15.2464 12.25H17.2499C18.3544 12.25 19.2499 11.3546 19.2499 10.25V9.75M16.25 4.75L16.8013 6.40395C17.268 7.80409 16.2449 9.25 14.769 9.25M16.269 19.25L16.8203 17.5961C17.287 16.1959 16.2449 14.75 14.769 14.75M15.25 12C15.25 14.8995 13.7949 17.25 12 17.25C10.2051 17.25 8.74999 14.8995 8.74999 12C8.74999 9.10051 10.2051 6.75 12 6.75C13.7949 6.75 15.25 9.10051 15.25 12Z" stroke="#141414" style="stroke:#141414;stroke:color(display-p3 0.0800 0.0800 0.0800);stroke-opacity:1;" stroke-width="1.5" stroke-linecap="round" stroke-linejoin="round"/>
</svg>
