<svg width="24" height="24" viewBox="0 0 24 24" fill="none" xmlns="http://www.w3.org/2000/svg">
<path d="M8.25 10.939L12.7043 17.7948C12.8887 18.0787 13.2043 18.25 13.5428 18.25H19.25V16.6834C19.25 14.9529 17.9011 13.5501 16.2442 13.5501C14.9747 13.5501 13.7848 12.9214 13.0337 11.8703C12.8886 11.6672 12.7469 11.4609 12.5827 11.2728L9.25 7.45581L6.19721 5.86161C5.53231 5.51439 4.75 6.01937 4.75 6.79577V10.939M8.25 10.939H4.75M8.25 10.939V17.2056C8.25 17.7824 7.80228 18.25 7.25 18.25H6.6173C6.11964 18.25 5.69772 17.8678 5.62735 17.3533L4.75 10.939" stroke="#141414" style="stroke:#141414;stroke:color(display-p3 0.0800 0.0800 0.0800);stroke-opacity:1;" stroke-width="1.5" stroke-linecap="round" stroke-linejoin="round"/>
</svg>
