<svg width="24" height="24" viewBox="0 0 24 24" fill="none" xmlns="http://www.w3.org/2000/svg">
<path d="M11.25 5.75H7.75C6.09315 5.75 4.75 7.09315 4.75 8.75V15.25C4.75 16.9069 6.09315 18.25 7.75 18.25H16.25C17.9069 18.25 19.25 16.9069 19.25 15.25V11.75M9.25 12.75H9C8.30964 12.75 7.75 13.3096 7.75 14C7.75 14.6904 8.30964 15.25 9 15.25H15.25M18.7391 7.72763L15.456 11.0108C15.1831 11.2836 14.8412 11.4772 14.4669 11.5708L11.75 12.25L12.4292 9.53312C12.5228 9.15876 12.7164 8.81687 12.9892 8.544L16.2724 5.26088C16.9535 4.57971 18.0579 4.57971 18.7391 5.26088C19.4203 5.94205 19.4203 7.04645 18.7391 7.72763Z" stroke="#141414" style="stroke:#141414;stroke:color(display-p3 0.0800 0.0800 0.0800);stroke-opacity:1;" stroke-width="1.5" stroke-linecap="round" stroke-linejoin="round"/>
</svg>
