<svg width="24" height="24" viewBox="0 0 24 24" fill="none" xmlns="http://www.w3.org/2000/svg">
<path d="M18 11.7578H16.75M18 11.7578L17.2658 6.48113C17.1175 5.41487 16.1518 4.65733 15.0809 4.76717L8.14797 5.47824C7.63787 5.53055 7.25 5.96024 7.25 6.47302L7.25 14.2578C9.27444 14.2578 9.70508 16.7731 9.77107 18.4089C9.79526 19.0085 10.4428 19.4349 10.9795 19.1665C11.7582 18.7772 12.25 17.9814 12.25 17.1108V14.2578H18C18.6904 14.2578 19.25 13.6982 19.25 13.0078C19.25 12.3175 18.6904 11.7578 18 11.7578Z" stroke="#141414" style="stroke:#141414;stroke:color(display-p3 0.0800 0.0800 0.0800);stroke-opacity:1;" stroke-width="1.5" stroke-linecap="round" stroke-linejoin="round"/>
<path d="M4.75 5.75C4.75 5.19772 5.19772 4.75 5.75 4.75H6.25C6.80228 4.75 7.25 5.19772 7.25 5.75V14.25C7.25 14.8023 6.80228 15.25 6.25 15.25H5.75C5.19772 15.25 4.75 14.8023 4.75 14.25V5.75Z" stroke="#141414" style="stroke:#141414;stroke:color(display-p3 0.0800 0.0800 0.0800);stroke-opacity:1;" stroke-width="1.5" stroke-linecap="round" stroke-linejoin="round"/>
</svg>
