<svg width="24" height="24" viewBox="0 0 24 24" fill="none" xmlns="http://www.w3.org/2000/svg">
<path d="M18 12.25H16.75M18 12.25L17.2658 17.5267C17.1175 18.593 16.1518 19.3505 15.0809 19.2407L8.14797 18.5296C7.63787 18.4773 7.25 18.0476 7.25 17.5348L7.25 9.75001C9.27444 9.75001 9.70508 7.23477 9.77107 5.59894C9.79526 4.99931 10.4428 4.57295 10.9795 4.84133C11.7582 5.23065 12.25 6.02647 12.25 6.897V9.75001H18C18.6904 9.75001 19.25 10.3097 19.25 11C19.25 11.6904 18.6904 12.25 18 12.25Z" stroke="#141414" style="stroke:#141414;stroke:color(display-p3 0.0800 0.0800 0.0800);stroke-opacity:1;" stroke-width="1.5" stroke-linecap="round" stroke-linejoin="round"/>
<path d="M4.75 9.75C4.75 9.19772 5.19772 8.75 5.75 8.75H6.25C6.80228 8.75 7.25 9.19772 7.25 9.75V18.25C7.25 18.8023 6.80228 19.25 6.25 19.25H5.75C5.19772 19.25 4.75 18.8023 4.75 18.25V9.75Z" stroke="#141414" style="stroke:#141414;stroke:color(display-p3 0.0800 0.0800 0.0800);stroke-opacity:1;" stroke-width="1.5" stroke-linecap="round" stroke-linejoin="round"/>
</svg>
