<svg width="24" height="24" viewBox="0 0 24 24" fill="none" xmlns="http://www.w3.org/2000/svg">
<path d="M8.25 5.75H5.75C5.19772 5.75 4.75 6.19772 4.75 6.75V12.25M14.8198 8.71699C13.0337 7.64291 14.2468 5.45424 14.2468 5.45424L13.3013 4.8856C12.8371 4.60645 12.2435 4.77211 11.9755 5.25562L6.88019 14.448C6.61218 14.9315 6.77123 15.5498 7.23543 15.829L12.6987 19.1144C13.1629 19.3936 13.7565 19.2279 14.0245 18.7444L19.1198 9.55196C19.3878 9.06845 19.2288 8.4502 18.7646 8.17104L17.819 7.60241C17.819 7.60241 16.6058 9.79108 14.8198 8.71699Z" stroke="#141414" style="stroke:#141414;stroke:color(display-p3 0.0800 0.0800 0.0800);stroke-opacity:1;" stroke-width="1.5" stroke-linecap="round" stroke-linejoin="round"/>
</svg>
