<svg width="24" height="24" viewBox="0 0 24 24" fill="none" xmlns="http://www.w3.org/2000/svg">
<path d="M19.25 10C19.25 12.8995 17.7949 15.25 16 15.25C14.2051 15.25 12.75 12.8995 12.75 10C12.75 7.10051 14.2051 4.75 16 4.75C17.7949 4.75 19.25 7.10051 19.25 10Z" stroke="#141414" style="stroke:#141414;stroke:color(display-p3 0.0800 0.0800 0.0800);stroke-opacity:1;" stroke-width="1.5" stroke-linecap="round" stroke-linejoin="round"/>
<path d="M16.25 10C16.25 10.6904 16.1381 11.25 16 11.25C15.8619 11.25 15.75 10.6904 15.75 10C15.75 9.30964 15.8619 8.75 16 8.75C16.1381 8.75 16.25 9.30964 16.25 10Z" stroke="#141414" style="stroke:#141414;stroke:color(display-p3 0.0800 0.0800 0.0800);stroke-opacity:1;" stroke-width="1.5" stroke-linecap="round" stroke-linejoin="round"/>
<path d="M16 4.75H8C6.20507 4.75 4.75 7.10051 4.75 10C4.75 12.8995 6.20507 15.25 8 15.25H16" stroke="#141414" style="stroke:#141414;stroke:color(display-p3 0.0800 0.0800 0.0800);stroke-opacity:1;" stroke-width="1.5" stroke-linecap="round" stroke-linejoin="round"/>
<path d="M19.25 10V19.25H9.75V15.5" stroke="#141414" style="stroke:#141414;stroke:color(display-p3 0.0800 0.0800 0.0800);stroke-opacity:1;" stroke-width="1.5" stroke-linecap="round" stroke-linejoin="round"/>
</svg>
