<svg width="24" height="24" viewBox="0 0 24 24" fill="none" xmlns="http://www.w3.org/2000/svg">
<path d="M8.75 8.75H6.75C5.64543 8.75 4.75 9.64543 4.75 10.75V12.75M8.75 8.75V6.75C8.75 5.64543 9.64543 4.75 10.75 4.75H13.25C14.3546 4.75 15.25 5.64543 15.25 6.75V8.75M8.75 8.75H15.25M15.25 8.75H17.25C18.3546 8.75 19.25 9.64543 19.25 10.75V12.75M4.75 12.75V17.25C4.75 18.3546 5.64543 19.25 6.75 19.25H17.25C18.3546 19.25 19.25 18.3546 19.25 17.25V12.75M4.75 12.75H10.75M19.25 12.75H13.25M10.75 12.75V12.75C10.75 12.1977 11.1977 11.75 11.75 11.75H12.25C12.8023 11.75 13.25 12.1977 13.25 12.75V12.75M10.75 12.75V14.25C10.75 14.8023 11.1977 15.25 11.75 15.25H12.25C12.8023 15.25 13.25 14.8023 13.25 14.25V12.75" stroke="#141414" style="stroke:#141414;stroke:color(display-p3 0.0800 0.0800 0.0800);stroke-opacity:1;" stroke-width="1.5" stroke-linecap="round" stroke-linejoin="round"/>
</svg>
