<svg width="24" height="24" viewBox="0 0 24 24" fill="none" xmlns="http://www.w3.org/2000/svg">
<path d="M8.375 4.75C10.4464 4.75 11.6548 5.44048 12 5.78571C12.3452 5.44048 13.5536 4.75 15.625 4.75C18.2143 4.75 19.25 6.82143 19.25 8.89286C19.25 10.9643 17.1786 15.1071 17.1786 15.1071C17.1786 15.1071 16.5536 19.25 15 19.25C13 19.25 12 13.75 12 13.75C12 13.75 11 19.25 9 19.25C7.44643 19.25 6.82143 15.1071 6.82143 15.1071C6.82143 15.1071 4.75 10.9643 4.75 8.89286C4.75 6.82143 5.78571 4.75 8.375 4.75Z" stroke="#141414" style="stroke:#141414;stroke:color(display-p3 0.0800 0.0800 0.0800);stroke-opacity:1;" stroke-width="1.5" stroke-linecap="round" stroke-linejoin="round"/>
</svg>
