<svg width="24" height="24" viewBox="0 0 24 24" fill="none" xmlns="http://www.w3.org/2000/svg">
<path d="M12 5.78571C11.6548 5.44048 10.4464 4.75 8.375 4.75C5.78571 4.75 4.75 6.82143 4.75 8.89286C4.75 10.9643 6.82143 15.1071 6.82143 15.1071C6.82143 15.1071 7.44643 19.25 9 19.25C11 19.25 12 13.75 12 13.75C12 13.75 13 19.25 15 19.25C16.5536 19.25 17.1786 15.1071 17.1786 15.1071L19.25 10.75M16 6.25V4.75M17.75 8H19.25M16 11.25V9.75M12.75 8H14.25" stroke="#141414" style="stroke:#141414;stroke:color(display-p3 0.0800 0.0800 0.0800);stroke-opacity:1;" stroke-width="1.5" stroke-linecap="round" stroke-linejoin="round"/>
</svg>
