<svg width="24" height="24" viewBox="0 0 24 24" fill="none" xmlns="http://www.w3.org/2000/svg">
<path d="M17 11.25L18.8639 12.6997C19.1075 12.8892 19.25 13.1805 19.25 13.4891V16.25C19.25 16.6642 18.9142 17 18.5 17H18.1775M17 11.25L16.1493 6.57112C16.0628 6.09563 15.6487 5.75 15.1654 5.75H11.75M17 11.25H13.75C12.6454 11.25 11.75 10.3546 11.75 9.25V5.75M5.82247 17H4.75V6.75C4.75 6.19772 5.19772 5.75 5.75 5.75H11.75M9.23228 17.25H14.7677M18.1775 17C17.9624 16.2771 17.2928 15.75 16.5 15.75C15.5335 15.75 14.75 16.5335 14.75 17.5C14.75 18.4665 15.5335 19.25 16.5 19.25C17.4665 19.25 18.25 18.4665 18.25 17.5C18.25 17.3263 18.2247 17.1584 18.1775 17ZM9.25 17.5C9.25 18.4665 8.4665 19.25 7.5 19.25C6.5335 19.25 5.75 18.4665 5.75 17.5C5.75 16.5335 6.5335 15.75 7.5 15.75C8.4665 15.75 9.25 16.5335 9.25 17.5Z" stroke="#141414" style="stroke:#141414;stroke:color(display-p3 0.0800 0.0800 0.0800);stroke-opacity:1;" stroke-width="1.5" stroke-linecap="round" stroke-linejoin="round"/>
</svg>
