<svg width="24" height="24" viewBox="0 0 24 24" fill="none" xmlns="http://www.w3.org/2000/svg">
<path d="M11.25 8V11.25M11.25 8V6C11.25 5.30964 11.8096 4.75 12.5 4.75C13.1903 4.75 13.75 5.30964 13.75 6V11.25H16.25C17.9068 11.25 19.25 12.5931 19.25 14.25V15.25C19.25 17.4591 17.4591 19.25 15.25 19.25H11.3656C9.33084 19.25 7.49906 18.017 6.73323 16.1319L4.75438 11.2609C4.7517 11.2543 4.75315 11.2467 4.7581 11.2416C5.42104 10.5538 6.53432 10.5937 7.14621 11.3273L8.74997 13.25V8C8.74997 7.30964 9.30961 6.75 9.99997 6.75C10.6903 6.75 11.25 7.30964 11.25 8Z" stroke="#141414" style="stroke:#141414;stroke:color(display-p3 0.0800 0.0800 0.0800);stroke-opacity:1;" stroke-width="1.5" stroke-linecap="round" stroke-linejoin="round"/>
</svg>
