<svg width="24" height="24" viewBox="0 0 24 24" fill="none" xmlns="http://www.w3.org/2000/svg">
<path fill-rule="evenodd" clip-rule="evenodd" d="M9.49672 10.8772C8.54705 9.6436 6.96338 9.31176 5.77348 10.4414C4.58358 11.571 4.41606 13.4597 5.35049 14.7958L9.49672 19.25L13.643 14.7958C14.5774 13.4597 14.4304 11.5592 13.22 10.4414C12.0096 9.32364 10.4465 9.6436 9.49672 10.8772Z" stroke="#141414" style="stroke:#141414;stroke:color(display-p3 0.0800 0.0800 0.0800);stroke-opacity:1;" stroke-width="1.5" stroke-linecap="round" stroke-linejoin="round"/>
<path fill-rule="evenodd" clip-rule="evenodd" d="M16.9984 5.28395C16.5486 4.6996 15.7984 4.54241 15.2348 5.0775C14.6712 5.6126 14.5918 6.50723 15.0344 7.14011L16.9984 9.25L18.9625 7.14011C19.4051 6.50723 19.3354 5.60697 18.7621 5.0775C18.1888 4.54804 17.4483 4.6996 16.9984 5.28395Z" stroke="#141414" style="stroke:#141414;stroke:color(display-p3 0.0800 0.0800 0.0800);stroke-opacity:1;" stroke-width="1.5" stroke-linecap="round" stroke-linejoin="round"/>
</svg>
