<svg width="24" height="24" viewBox="0 0 24 24" fill="none" xmlns="http://www.w3.org/2000/svg">
<path d="M19.25 4.75C19.25 6.68559 18 6.99779 18 6.99779M4.75 12.75C4.75 14.6856 6 14.9978 6 14.9978M18.8796 8.34892C18.7361 8.01748 18.4771 7.68002 18.1736 7.36277C17.0439 6.18201 15.2438 6.15018 13.7133 6.72459C12.0965 7.33135 12.5 7.9968 8.93448 7.9968C6.8556 7.9968 4.77672 8.87094 4.77672 8.87094C4.60348 9.99484 5.1925 11.2436 8.93448 11.2436C12.5319 11.2436 14.8184 11.4744 18.5439 9.16211C18.8301 8.98448 19.0134 8.65784 18.8796 8.34892ZM5.12041 16.3489C5.26395 16.0175 5.52291 15.68 5.82642 15.3628C6.95609 14.182 8.75622 14.1502 10.2867 14.7246C11.9035 15.3314 11.5 15.9968 15.0655 15.9968C17.1444 15.9968 19.2233 16.8709 19.2233 16.8709C19.3965 17.9948 18.8075 19.2436 15.0655 19.2436C11.4681 19.2436 9.18159 19.4744 5.45613 17.1621C5.16995 16.9845 4.98663 16.6578 5.12041 16.3489Z" stroke="#141414" style="stroke:#141414;stroke:color(display-p3 0.0800 0.0800 0.0800);stroke-opacity:1;" stroke-width="1.5" stroke-linecap="round" stroke-linejoin="round"/>
</svg>
