<svg width="24" height="24" viewBox="0 0 24 24" fill="none" xmlns="http://www.w3.org/2000/svg">
<path d="M4.75 4.75C4.75 4.75 7.66667 6.35714 8.25 12.25M4.75 19.25L5.75 18.875M5.75 18.875L7.75 18.125M5.75 18.875V17.75C5.75 16.6454 6.64543 15.75 7.75 15.75H8.25M13.75 9.75V10.25C13.75 11.3546 14.6454 12.25 15.75 12.25H19.25C19.25 12.25 18.75 5 13.75 5M12.5 16C12.5 16.2761 12.2761 16.5 12 16.5C11.7239 16.5 11.5 16.2761 11.5 16C11.5 15.7239 11.7239 15.5 12 15.5C12.2761 15.5 12.5 15.7239 12.5 16Z" stroke="#141414" style="stroke:#141414;stroke:color(display-p3 0.0800 0.0800 0.0800);stroke-opacity:1;" stroke-width="1.5" stroke-linecap="round" stroke-linejoin="round"/>
</svg>
