<svg width="24" height="24" viewBox="0 0 24 24" fill="none" xmlns="http://www.w3.org/2000/svg">
<path d="M9.25 4.75L4.75 9.25M12.25 5.75L5.75 12.25M13 9L8.75 13.25M15 11L10.75 15.25M19 15L14.75 19.25M18 12L11.5 18.5M4.75 11.25V6.75C4.75 5.64543 5.64543 4.75 6.75 4.75H11.25C12.3546 4.75 13.25 5.64543 13.25 6.75V10.75H17.25C18.3546 10.75 19.25 11.6454 19.25 12.75V17.25C19.25 18.3546 18.3546 19.25 17.25 19.25H12.75C11.6454 19.25 10.75 18.3546 10.75 17.25V13.25H6.75C5.64543 13.25 4.75 12.3546 4.75 11.25Z" stroke="#141414" style="stroke:#141414;stroke:color(display-p3 0.0800 0.0800 0.0800);stroke-opacity:1;" stroke-width="1.5" stroke-linecap="round" stroke-linejoin="round"/>
</svg>
