<svg width="24" height="24" viewBox="0 0 24 24" fill="none" xmlns="http://www.w3.org/2000/svg">
<path d="M19.2467 11.7503C19.1273 16.2304 15.796 18.25 12 18.25C11.5695 18.25 11.145 18.224 10.7305 18.1714C10.5134 18.1439 10.2933 18.1803 10.0954 18.2738C9.14752 18.722 8.0113 19.0263 6.99526 19.2297C6.07951 19.4131 5.45369 18.2242 5.90792 17.4082C6.01633 17.2134 6.12235 17.0079 6.2231 16.7926C6.38851 16.4392 6.29358 16.0292 6.05464 15.7206C5.23783 14.6659 4.75 13.2675 4.75 11.5C4.75 6.84483 8.13401 4.75 12 4.75H12.25M17 9.25C15.7574 9.25 14.75 8.24264 14.75 7C14.75 5.75736 15.7574 4.75 17 4.75C18.2426 4.75 19.25 5.75736 19.25 7C19.25 8.24264 18.2426 9.25 17 9.25Z" stroke="#141414" style="stroke:#141414;stroke:color(display-p3 0.0800 0.0800 0.0800);stroke-opacity:1;" stroke-width="1.5" stroke-linecap="round" stroke-linejoin="round"/>
</svg>
