<svg width="24" height="24" viewBox="0 0 24 24" fill="none" xmlns="http://www.w3.org/2000/svg">
<path d="M7.48798 17.6752L7.02085 18.262L7.48798 17.6752ZM12.25 20C12.6642 20 13 19.6642 13 19.25C13 18.8358 12.6642 18.5 12.25 18.5V20ZM18.5 12.25C18.5 12.6642 18.8358 13 19.25 13C19.6642 13 20 12.6642 20 12.25H18.5ZM12.25 16.5C12.6642 16.5 13 16.1642 13 15.75C13 15.3358 12.6642 15 12.25 15V16.5ZM16.3571 19.25L15.781 19.7301C15.9501 19.9331 16.2136 20.0321 16.4745 19.9908C16.7354 19.9494 16.9554 19.7738 17.0535 19.5285L16.3571 19.25ZM19.8011 15.2587C20.0821 14.9543 20.0631 14.4799 19.7587 14.1989C19.4543 13.9179 18.9799 13.9369 18.6989 14.2413L19.8011 15.2587ZM15.3262 16.8413C15.061 16.5231 14.5881 16.4801 14.2699 16.7453C13.9517 17.0104 13.9087 17.4834 14.1738 17.8016L15.3262 16.8413ZM5.5 12C5.5 8.41021 8.41021 5.5 12 5.5V4C7.58178 4 4 7.58178 4 12H5.5ZM12 5.5C15.5898 5.5 18.5 8.41021 18.5 12H20C20 7.58178 16.4182 4 12 4V5.5ZM13.5 11C13.5 11.8284 12.8284 12.5 12 12.5V14C13.6568 14 15 12.6568 15 11H13.5ZM12 12.5C11.1716 12.5 10.5 11.8284 10.5 11H9C9 12.6568 10.3432 14 12 14V12.5ZM10.5 11C10.5 10.1716 11.1716 9.5 12 9.5V8C10.3432 8 9 9.34316 9 11H10.5ZM12 9.5C12.8284 9.5 13.5 10.1716 13.5 11H15C15 9.34316 13.6568 8 12 8V9.5ZM8.02935 18.1942C9.03134 17.1492 10.4392 16.5 12 16.5V15C10.0138 15 8.21974 15.8282 6.9466 17.1561L8.02935 18.1942ZM12 18.5C10.47 18.5 9.06537 17.9723 7.95511 17.0884L7.02085 18.262C8.38705 19.3496 10.1186 20 12 20V18.5ZM7.95511 17.0884C6.45768 15.8963 5.5 14.0602 5.5 12H4C4 14.5365 5.18134 16.7975 7.02085 18.262L7.95511 17.0884ZM12 20H12.25V18.5H12V20ZM18.5 12V12.25H20V12H18.5ZM12 16.5H12.25V15H12V16.5ZM17.0535 19.5285C17.5029 18.4049 18.1863 17.3372 18.7705 16.5389C19.0604 16.1427 19.321 15.8193 19.5082 15.5961C19.6017 15.4846 19.6766 15.3984 19.7274 15.341C19.7527 15.3123 19.772 15.2908 19.7846 15.2769C19.7908 15.27 19.7954 15.265 19.7982 15.2619C19.7996 15.2604 19.8005 15.2594 19.801 15.2588C19.8013 15.2585 19.8014 15.2584 19.8014 15.2584C19.8014 15.2584 19.8014 15.2584 19.8013 15.2585C19.8013 15.2585 19.8013 15.2585 19.8012 15.2586C19.8012 15.2586 19.8011 15.2587 19.25 14.75C18.6989 14.2413 18.6988 14.2414 18.6987 14.2415C18.6987 14.2415 18.6986 14.2416 18.6985 14.2417C18.6983 14.2419 18.6981 14.2421 18.6979 14.2424C18.6974 14.2429 18.6969 14.2435 18.6962 14.2442C18.6948 14.2457 18.693 14.2477 18.6907 14.2502C18.6861 14.2552 18.6798 14.2622 18.6717 14.2712C18.6555 14.2891 18.6324 14.3149 18.6031 14.348C18.5446 14.4142 18.4613 14.5101 18.3589 14.6322C18.1544 14.876 17.8727 15.2256 17.5599 15.6531C16.9387 16.5021 16.1756 17.6844 15.6608 18.9715L17.0535 19.5285ZM14.1738 17.8016L15.781 19.7301L16.9333 18.7699L15.3262 16.8413L14.1738 17.8016Z" fill="#141414" style="fill:#141414;fill:color(display-p3 0.0800 0.0800 0.0800);fill-opacity:1;"/>
</svg>
