<svg width="24" height="24" viewBox="0 0 24 24" fill="none" xmlns="http://www.w3.org/2000/svg">
<path d="M7.48798 17.6752L7.02085 18.262L7.48798 17.6752ZM12.25 20C12.6642 20 13 19.6642 13 19.25C13 18.8358 12.6642 18.5 12.25 18.5V20ZM18.5 12.25C18.5 12.6642 18.8358 13 19.25 13C19.6642 13 20 12.6642 20 12.25H18.5ZM12.25 16.5C12.6642 16.5 13 16.1642 13 15.75C13 15.3358 12.6642 15 12.25 15V16.5ZM19.25 18C19.6642 18 20 17.6642 20 17.25C20 16.8358 19.6642 16.5 19.25 16.5V18ZM15.75 16.5C15.3358 16.5 15 16.8358 15 17.25C15 17.6642 15.3358 18 15.75 18V16.5ZM5.5 12C5.5 8.41021 8.41021 5.5 12 5.5V4C7.58178 4 4 7.58178 4 12H5.5ZM12 5.5C15.5898 5.5 18.5 8.41021 18.5 12H20C20 7.58178 16.4182 4 12 4V5.5ZM13.5 11C13.5 11.8284 12.8284 12.5 12 12.5V14C13.6568 14 15 12.6568 15 11H13.5ZM12 12.5C11.1716 12.5 10.5 11.8284 10.5 11H9C9 12.6568 10.3432 14 12 14V12.5ZM10.5 11C10.5 10.1716 11.1716 9.5 12 9.5V8C10.3432 8 9 9.34316 9 11H10.5ZM12 9.5C12.8284 9.5 13.5 10.1716 13.5 11H15C15 9.34316 13.6568 8 12 8V9.5ZM8.02935 18.1942C9.03134 17.1492 10.4392 16.5 12 16.5V15C10.0138 15 8.21974 15.8282 6.9466 17.1561L8.02935 18.1942ZM12 18.5C10.47 18.5 9.06537 17.9723 7.95511 17.0884L7.02085 18.262C8.38705 19.3496 10.1186 20 12 20V18.5ZM7.95511 17.0884C6.45768 15.8963 5.5 14.0602 5.5 12H4C4 14.5365 5.18134 16.7975 7.02085 18.262L7.95511 17.0884ZM12 20H12.25V18.5H12V20ZM18.5 12V12.25H20V12H18.5ZM12 16.5H12.25V15H12V16.5ZM19.25 16.5H15.75V18H19.25V16.5Z" fill="#141414" style="fill:#141414;fill:color(display-p3 0.0800 0.0800 0.0800);fill-opacity:1;"/>
</svg>
