<svg width="24" height="24" viewBox="0 0 24 24" fill="none" xmlns="http://www.w3.org/2000/svg">
<path d="M4.75 4.75C4.75 4.75 12 11 12 19C12 11 15.75 8.25 15.75 8.25M16.1527 6.05638C15.6337 7.01588 15.7648 8.23524 15.7648 8.23524C15.7648 8.23524 16.9841 8.36631 17.9436 7.8473M16.1527 6.05638C16.2538 5.86939 16.3797 5.69228 16.536 5.53598C17.4943 4.57763 19.2352 4.76476 19.2352 4.76476C19.2352 4.76476 19.4224 6.50568 18.464 7.46402C18.3077 7.62032 18.1306 7.74615 17.9436 7.8473M16.1527 6.05638C14.9765 5.23307 13.5447 4.75 12 4.75C7.99594 4.75 4.75 7.99594 4.75 12C4.75 16.0041 7.99594 19.25 12 19.25C16.0041 19.25 19.25 16.0041 19.25 12C19.25 10.4553 18.7669 9.02348 17.9436 7.8473" stroke="#141414" style="stroke:#141414;stroke:color(display-p3 0.0800 0.0800 0.0800);stroke-opacity:1;" stroke-width="1.5" stroke-linecap="round" stroke-linejoin="round"/>
</svg>
