<svg width="24" height="24" viewBox="0 0 24 24" fill="none" xmlns="http://www.w3.org/2000/svg">
<path d="M9.75 12.75L11.25 14.25C12 11.5 14.25 9.75 14.25 9.75M9.53694 17.9466C8.5511 18.0896 7.56979 17.823 6.87348 17.1266C6.17715 16.4303 5.9105 15.449 6.05348 14.4631C5.25532 13.8671 4.75 12.9847 4.75 12C4.75 11.0153 5.2553 10.1329 6.05345 9.53687C5.91054 8.55109 6.17721 7.56987 6.87348 6.87359C7.56975 6.17732 8.55099 5.91065 9.53678 6.05357C10.1328 5.25536 11.0152 4.75 12 4.75C12.9848 4.75 13.8672 5.25536 14.4632 6.05357C15.449 5.91065 16.4302 6.17732 17.1265 6.87359C17.8228 7.56987 18.0895 8.5511 17.9466 9.53687C18.7447 10.1329 19.25 11.0153 19.25 12C19.25 12.9847 18.7447 13.8672 17.9465 14.4632C18.0895 15.449 17.8228 16.4303 17.1265 17.1266C16.4302 17.823 15.4489 18.0896 14.4631 17.9466C13.8671 18.7447 12.9847 19.25 12 19.25C11.0153 19.25 10.1329 18.7447 9.53694 17.9466Z" stroke="#141414" style="stroke:#141414;stroke:color(display-p3 0.0800 0.0800 0.0800);stroke-opacity:1;" stroke-width="1.5" stroke-linecap="round" stroke-linejoin="round"/>
</svg>
