<svg width="24" height="24" viewBox="0 0 24 24" fill="none" xmlns="http://www.w3.org/2000/svg">
<path d="M7.75 7.85714C7.75 7.85714 9.9 9.25 12 9.25C14.1 9.25 16.25 7.85714 16.25 7.85714M7.75 7.85714C7.4 8.375 6.75 9.75714 6.75 11C6.75 12.5536 7.75 13.4464 7.75 15C7.75 16.5536 7.45 18.3869 6.75 19.25H17.25C16.55 18.3869 16.25 16.5536 16.25 15C16.25 13.4464 17.25 12.5536 17.25 11C17.25 9.75714 16.6 8.375 16.25 7.85714M7.75 7.85714V4.75M16.25 7.85714V4.75" stroke="#141414" style="stroke:#141414;stroke:color(display-p3 0.0800 0.0800 0.0800);stroke-opacity:1;" stroke-width="1.5" stroke-linecap="round" stroke-linejoin="round"/>
</svg>
