<svg width="24" height="24" viewBox="0 0 24 24" fill="none" xmlns="http://www.w3.org/2000/svg">
<path d="M18.75 8.75L19.25 10L18.8713 11.5149C18.7916 11.8334 18.7916 12.1666 18.8713 12.4851L19.25 14L18.75 15.25M5.25 8.75L4.75 10L5.12873 11.5149C5.20835 11.8334 5.20835 12.1666 5.12873 12.4851L4.75 14L5.25 15.25M11.75 7.75H12.25M7.25 17.25V6.75C7.25 5.64543 8.14543 4.75 9.25 4.75H14.75C15.8546 4.75 16.75 5.64543 16.75 6.75V17.25C16.75 18.3546 15.8546 19.25 14.75 19.25H9.25C8.14543 19.25 7.25 18.3546 7.25 17.25Z" stroke="#141414" style="stroke:#141414;stroke:color(display-p3 0.0800 0.0800 0.0800);stroke-opacity:1;" stroke-width="1.5" stroke-linecap="round" stroke-linejoin="round"/>
</svg>
