<svg width="24" height="24" viewBox="0 0 24 24" fill="none" xmlns="http://www.w3.org/2000/svg">
<path d="M7.75 10.75L9.5 14.25L11.25 10.75M13.75 13V10.75H15.25C15.8023 10.75 16.25 11.1977 16.25 11.75V12C16.25 12.5523 15.8023 13 15.25 13H14.625M13.75 13V14.25M13.75 13H14.625M14.625 13L16.25 14.25M7.75 19.25H16.25C17.9069 19.25 19.25 17.9069 19.25 16.25V7.75C19.25 6.09315 17.9069 4.75 16.25 4.75H7.75C6.09315 4.75 4.75 6.09315 4.75 7.75V16.25C4.75 17.9069 6.09315 19.25 7.75 19.25Z" stroke="#141414" style="stroke:#141414;stroke:color(display-p3 0.0800 0.0800 0.0800);stroke-opacity:1;" stroke-width="1.5" stroke-linecap="round" stroke-linejoin="round"/>
</svg>
