<svg width="24" height="24" viewBox="0 0 24 24" fill="none" xmlns="http://www.w3.org/2000/svg">
<path d="M16.25 11.75H7.75C6.09315 11.75 4.75 13.0931 4.75 14.75V16.25C4.75 17.9069 6.09315 19.25 7.75 19.25H10L10.4383 18.7022C11.2389 17.7014 12.7611 17.7014 13.5617 18.7022L14 19.25H16.25C17.9069 19.25 19.25 17.9069 19.25 16.25V14.75C19.25 13.0931 17.9069 11.75 16.25 11.75Z" stroke="#141414" style="stroke:#141414;stroke:color(display-p3 0.0800 0.0800 0.0800);stroke-opacity:1;" stroke-width="1.5" stroke-linecap="round" stroke-linejoin="round"/>
<path d="M4.75 14.5V12.25L5.51858 6.48567C5.65106 5.49206 6.49863 4.75 7.50103 4.75H16.499C17.5014 4.75 18.3489 5.49206 18.4814 6.48567L19.25 12.25V14.5" stroke="#141414" style="stroke:#141414;stroke:color(display-p3 0.0800 0.0800 0.0800);stroke-opacity:1;" stroke-width="1.5" stroke-linecap="round" stroke-linejoin="round"/>
</svg>
