<svg width="24" height="24" viewBox="0 0 24 24" fill="none" xmlns="http://www.w3.org/2000/svg">
<path d="M17.25 4.75C17.25 4.75 16 8.5 16 12.75M16 12.75H8M16 12.75C16 12.75 16.6953 13.6953 17.3129 15M8 12.75C8 12.75 7.3047 13.6953 6.68713 15M8 12.75C8 8.5 6.75 4.75 6.75 4.75M6.68713 15C6.19376 16.0423 5.75 17.4736 5.75 19.25M6.68713 15C11 15 12 19.25 12 19.25C12 19.25 13 15 17.3129 15M17.3129 15C17.8062 16.0423 18.25 17.4736 18.25 19.25" stroke="#141414" style="stroke:#141414;stroke:color(display-p3 0.0800 0.0800 0.0800);stroke-opacity:1;" stroke-width="1.5" stroke-linecap="round" stroke-linejoin="round"/>
</svg>
