<svg width="24" height="24" viewBox="0 0 24 24" fill="none" xmlns="http://www.w3.org/2000/svg">
<path d="M12 19.25V4.75M12.75 10.25V8.75C12.75 7.09315 14.0931 5.75 15.75 5.75H17.25V7.25C17.25 8.90685 15.9069 10.25 14.25 10.25H12.75ZM11.25 10.25V8.75C11.25 7.09315 9.90685 5.75 8.25 5.75H6.75V7.25C6.75 8.90685 8.09315 10.25 9.75 10.25H11.25ZM12.75 17.25V15.75C12.75 14.0931 14.0931 12.75 15.75 12.75H17.25V14.25C17.25 15.9069 15.9069 17.25 14.25 17.25H12.75ZM11.25 17.25V15.75C11.25 14.0931 9.90685 12.75 8.25 12.75H6.75V14.25C6.75 15.9069 8.09315 17.25 9.75 17.25H11.25Z" stroke="#141414" style="stroke:#141414;stroke:color(display-p3 0.0800 0.0800 0.0800);stroke-opacity:1;" stroke-width="1.5" stroke-linecap="round" stroke-linejoin="round"/>
</svg>
