<svg width="24" height="24" viewBox="0 0 24 24" fill="none" xmlns="http://www.w3.org/2000/svg">
<path d="M4.75 8.25V16.25C4.75 17.3546 5.64543 18.25 6.75 18.25H10.25M4.75 8.25V7.75C4.75 6.64543 5.64543 5.75 6.75 5.75H17.25C18.3546 5.75 19.25 6.64543 19.25 7.75V8.25H4.75ZM15 14.5V13.4286C15 12.6396 15.6716 12 16.5 12C17.3284 12 18 12.6396 18 13.4286V14.5M13.75 14.75V18.25C13.75 18.8023 14.1977 19.25 14.75 19.25H18.25C18.8023 19.25 19.25 18.8023 19.25 18.25V14.75H13.75Z" stroke="#141414" style="stroke:#141414;stroke:color(display-p3 0.0800 0.0800 0.0800);stroke-opacity:1;" stroke-width="1.5" stroke-linecap="round" stroke-linejoin="round"/>
</svg>
