<svg width="24" height="24" viewBox="0 0 24 24" fill="none" xmlns="http://www.w3.org/2000/svg">
<path d="M19.25 8.25V7.75C19.25 6.64543 18.3546 5.75 17.25 5.75H6.75C5.64543 5.75 4.75 6.64543 4.75 7.75V8.25M19.25 8.25H4.75M19.25 8.25V11.25M4.75 8.25V16.25C4.75 17.3546 5.64543 18.25 6.75 18.25H11.25M15.4557 15.3636C15.8587 14.9832 16.4021 14.75 17 14.75C18.2426 14.75 19.25 15.7574 19.25 17C19.25 17.5979 19.0168 18.1413 18.6364 18.5443M15.4557 15.3636C15.0212 15.7739 14.75 16.3553 14.75 17C14.75 18.2426 15.7574 19.25 17 19.25C17.6447 19.25 18.2261 18.9788 18.6364 18.5443M15.4557 15.3636L18.6364 18.5443" stroke="#141414" style="stroke:#141414;stroke:color(display-p3 0.0800 0.0800 0.0800);stroke-opacity:1;" stroke-width="1.5" stroke-linecap="round"/>
</svg>
