<svg width="24" height="24" viewBox="0 0 24 24" fill="none" xmlns="http://www.w3.org/2000/svg">
<path d="M14.75 18.25H17.25C18.3546 18.25 19.25 17.3546 19.25 16.25V7.75C19.25 6.64543 18.3546 5.75 17.25 5.75H6.75C5.64543 5.75 4.75 6.64543 4.75 7.75V8.25M16.25 8.75L13.75 11.25M13.75 11.25H16.125M13.75 11.25V8.875M4.75 16.25V13.75C4.75 12.6454 5.64543 11.75 6.75 11.75H9.25C10.3546 11.75 11.25 12.6454 11.25 13.75V16.25C11.25 17.3546 10.3546 18.25 9.25 18.25H6.75C5.64543 18.25 4.75 17.3546 4.75 16.25Z" stroke="#141414" style="stroke:#141414;stroke:color(display-p3 0.0800 0.0800 0.0800);stroke-opacity:1;" stroke-width="1.5" stroke-linecap="round" stroke-linejoin="round"/>
</svg>
