<svg width="24" height="24" viewBox="0 0 24 24" fill="none" xmlns="http://www.w3.org/2000/svg">
<path d="M18.7523 14.567L19.1889 12.371C19.2295 12.1665 19.25 11.9585 19.25 11.75M5.24771 14.567L4.78668 12.0635C4.46676 9.12799 6.2701 6.48356 9 5.34357L9.25 5.24982M12.75 6.22087C14.5449 4.25971 17.4551 4.25971 19.25 6.22087M14.6071 8.25C15.3764 7.40951 16.6236 7.40951 17.3929 8.25M8.4423 19.0536L7.91616 19.1819C6.75386 19.4655 5.55915 18.8374 5.24771 17.7792L4.82478 16.342C4.51334 15.2837 5.20311 14.196 6.36541 13.9124L6.89154 13.784C7.4727 13.6423 8.07005 13.9563 8.22577 14.4854L9.21261 17.8387C9.36833 18.3679 9.02345 18.9118 8.4423 19.0536ZM15.5577 19.0536L16.0838 19.1819C17.2461 19.4655 18.4408 18.8374 18.7523 17.7792L19.1752 16.342C19.4867 15.2837 18.7969 14.196 17.6346 13.9124L17.1085 13.784C16.5273 13.6423 15.93 13.9563 15.7742 14.4854L14.7874 17.8387C14.6317 18.3679 14.9766 18.9118 15.5577 19.0536Z" stroke="#141414" style="stroke:#141414;stroke:color(display-p3 0.0800 0.0800 0.0800);stroke-opacity:1;" stroke-width="1.5" stroke-linecap="round" stroke-linejoin="round"/>
</svg>
