<svg width="24" height="24" viewBox="0 0 24 24" fill="none" xmlns="http://www.w3.org/2000/svg">
<path d="M19.25 10.25V6.75C19.25 5.64543 18.3546 4.75 17.25 4.75H6.75C5.64543 4.75 4.75 5.64543 4.75 6.75V17.25C4.75 18.3546 5.64543 19.25 6.75 19.25H11.25M8.75 8.75H15.25M8.75 12.75H11.25M16.4981 14.4026C15.9483 13.6884 15.0314 13.4963 14.3425 14.1503C13.6537 14.8043 13.5567 15.8977 14.0977 16.6713L16.4981 19.25L18.8986 16.6713C19.4396 15.8977 19.3544 14.7974 18.6537 14.1503C17.9529 13.5032 17.0479 13.6884 16.4981 14.4026Z" stroke="#141414" style="stroke:#141414;stroke:color(display-p3 0.0800 0.0800 0.0800);stroke-opacity:1;" stroke-width="1.5" stroke-linecap="round" stroke-linejoin="round"/>
</svg>
