<svg width="24" height="24" viewBox="0 0 24 24" fill="none" xmlns="http://www.w3.org/2000/svg">
<path d="M14.4645 8.94978C14.0739 8.55926 14.0739 7.92609 14.4645 7.53557L16.8347 5.16532C16.2793 4.8991 15.6571 4.75 15 4.75C12.6528 4.75 10.75 6.65279 10.75 9C10.75 9.65705 10.8991 10.2793 11.1653 10.8347L5.16409 16.8359C4.61181 17.3882 4.61181 18.2837 5.16409 18.8359C5.71638 19.3882 6.61181 19.3882 7.16409 18.8359L13.1653 12.8347C13.7208 13.1009 14.343 13.25 15 13.25C17.3472 13.25 19.25 11.3472 19.25 9C19.25 8.35127 19.1047 7.73649 18.8448 7.18645L16.4801 9.55116C16.0895 9.94169 15.4564 9.94169 15.0658 9.55117L14.4645 8.94978Z" stroke="#141414" style="stroke:#141414;stroke:color(display-p3 0.0800 0.0800 0.0800);stroke-opacity:1;" stroke-width="1.5" stroke-linecap="round" stroke-linejoin="round"/>
</svg>
