<svg width="24" height="24" viewBox="0 0 24 24" fill="none" xmlns="http://www.w3.org/2000/svg">
<path d="M9.75 5.10596H10.5C10.5 4.86573 10.3849 4.64004 10.1905 4.49895C9.99608 4.35786 9.74583 4.31843 9.51744 4.39292L9.75 5.10596ZM14.25 5.10596L14.4826 4.39292C14.2542 4.31843 14.0039 4.35786 13.8095 4.49895C13.6151 4.64004 13.5 4.86573 13.5 5.10596H14.25ZM5.5 12C5.5 9.11552 7.37944 6.668 9.98256 5.81899L9.51744 4.39292C6.31536 5.43729 4 8.4473 4 12H5.5ZM12 18.5C8.41015 18.5 5.5 15.5899 5.5 12H4C4 16.4183 7.58172 20 12 20V18.5ZM18.5 12C18.5 15.5899 15.5899 18.5 12 18.5V20C16.4183 20 20 16.4183 20 12H18.5ZM14.0174 5.81899C16.6206 6.668 18.5 9.11552 18.5 12H20C20 8.4473 17.6846 5.43729 14.4826 4.39292L14.0174 5.81899ZM13.5 5.10596V11.25H15V5.10596H13.5ZM13.5 11.25C13.5 11.3881 13.3881 11.5 13.25 11.5V13C14.2165 13 15 12.2165 15 11.25H13.5ZM13.25 11.5H10.75V13H13.25V11.5ZM10.75 11.5C10.6119 11.5 10.5 11.3881 10.5 11.25H9C9 12.2165 9.7835 13 10.75 13V11.5ZM10.5 11.25V5.10596H9V11.25H10.5Z" fill="#141414" style="fill:#141414;fill:color(display-p3 0.0800 0.0800 0.0800);fill-opacity:1;"/>
</svg>
