<svg width="24" height="24" viewBox="0 0 24 24" fill="none" xmlns="http://www.w3.org/2000/svg">
<path d="M17.25 15.75V16.25C17.25 17.9069 15.9069 19.25 14.25 19.25H7.75C6.09315 19.25 4.75 17.9069 4.75 16.25V7.75C4.75 6.09315 6.09315 4.75 7.75 4.75H10.25" stroke="#141414" style="stroke:#141414;stroke:color(display-p3 0.0800 0.0800 0.0800);stroke-opacity:1;" stroke-width="1.5" stroke-linecap="round" stroke-linejoin="round"/>
<path d="M15.456 11.0108L18.7391 7.72763C19.4203 7.04645 19.4203 5.94205 18.7391 5.26088C18.0579 4.57971 16.9535 4.57971 16.2724 5.26088L12.9892 8.544C12.7164 8.81687 12.5228 9.15876 12.4292 9.53312L11.75 12.25L14.4669 11.5708C14.8412 11.4772 15.1831 11.2836 15.456 11.0108Z" stroke="#141414" style="stroke:#141414;stroke:color(display-p3 0.0800 0.0800 0.0800);stroke-opacity:1;" stroke-width="1.5" stroke-linecap="round" stroke-linejoin="round"/>
<path d="M7.75 15.25H14.25" stroke="#141414" style="stroke:#141414;stroke:color(display-p3 0.0800 0.0800 0.0800);stroke-opacity:1;" stroke-width="1.5" stroke-linecap="round" stroke-linejoin="round"/>
<path d="M7.75 12.25H9.25" stroke="#141414" style="stroke:#141414;stroke:color(display-p3 0.0800 0.0800 0.0800);stroke-opacity:1;" stroke-width="1.5" stroke-linecap="round" stroke-linejoin="round"/>
<path d="M7.75 9.25H9.25" stroke="#141414" style="stroke:#141414;stroke:color(display-p3 0.0800 0.0800 0.0800);stroke-opacity:1;" stroke-width="1.5" stroke-linecap="round" stroke-linejoin="round"/>
</svg>
