<svg width="24" height="24" viewBox="0 0 24 24" fill="none" xmlns="http://www.w3.org/2000/svg">
<path d="M19.25 12C19.25 7.99594 16.0041 4.75 12 4.75M19.25 12H4.75M19.25 12C19.25 12.6937 19.1526 13.3647 18.9706 14M4.75 12C4.75 7.99594 7.99594 4.75 12 4.75M4.75 12C4.75 12.6937 4.84744 13.3647 5.02937 14M12 4.75C10.7574 4.75 8.75 7.5 8.75 12C8.75 12.7118 8.80022 13.3798 8.88969 14M12 4.75C13.2426 4.75 15.25 7.5 15.25 12C15.25 12.7118 15.1998 13.3798 15.1103 14M5.25 16.75L5.75 19.25L7 17.75L8.25 19.25L8.75 16.75M10.25 16.75L10.75 19.25L12 17.75L13.25 19.25L13.75 16.75M15.25 16.75L15.75 19.25L17 17.75L18.25 19.25L18.75 16.75" stroke="#141414" style="stroke:#141414;stroke:color(display-p3 0.0800 0.0800 0.0800);stroke-opacity:1;" stroke-width="1.5" stroke-linecap="round" stroke-linejoin="round"/>
</svg>
