<svg xmlns="http://www.w3.org/2000/svg" width="0" height="0"><defs><symbol id="apple" fill="none" viewBox="0 0 17 18"><g id="Group"><g id="Group_2" fill="currentColor" fill-opacity="1"><path id="Vector" d="M12.3765 0h.1396c.1121 1.26937-.4162 2.21784-1.0582 2.90469-.63.68211-1.49267 1.34367-2.88791 1.24329-.09307-1.25119.43607-2.12932 1.07724-2.81459C10.2419.69475 11.332.12646 12.3765 0"/><path id="Vector_2" d="M16.6001 13.2126v.0356c-.3921 1.0891-.9514 2.0226-1.634 2.8888-.623.7865-1.3866 1.8448-2.7499 1.8448-1.1781 0-1.9606-.6947-3.16797-.7137-1.27718-.019-1.97953.5809-3.14726.7319h-.39815c-.85748-.1138-1.5495-.7367-2.05364-1.2978C1.96259 15.0439.81382 12.902.6001 10.1609v-.80543C.69059 7.39371 1.7299 5.7987 3.11135 5.0257c.72908-.41101 1.73134-.76115 2.84736-.60465.47829.06797.96693.21815 1.39524.36674.4059.14306.9135.39678 1.39438.38334.32575-.00869.64979-.1644.97813-.27427.96174-.31852 1.90454-.68369 3.14724-.51217 1.4935.20708 2.5535.81568 3.2085 1.75467-1.2634.73744-2.2622 1.84873-2.0916 3.74646.1517 1.72388 1.2444 2.73238 2.6095 3.32678"/></g></g></symbol><symbol id="close" fill="none" viewBox="0 0 20 20"><g id="close" stroke="currentColor" stroke-linecap="round" stroke-linejoin="round" stroke-opacity="1" stroke-width="1.5"><path id="Vector" d="m14.375 5.625-8.75 8.75"/><path id="Vector_2" d="m5.625 5.625 8.75 8.75"/></g></symbol><symbol id="discord" fill="none" viewBox="0 0 24 24"><g id="Discord"><path id="Vector" fill="currentColor" fill-opacity="1" d="M18.6536 5.99368c-1.224-.552-2.536-.96-3.908-1.192a.0597.0597 0 0 0-.0361.00432.06.06 0 0 0-.0271.02448c-.168.2952-.3552.68-.4864.984a14.853 14.853 0 0 0-4.38956 0 9.89 9.89 0 0 0-.4936-.984.0616.0616 0 0 0-.0632-.0304c-1.3712.232-2.6832.64-3.908 1.1928a.056.056 0 0 0-.0256.0216c-2.4896 3.66-3.172 7.22962-2.8368 10.75442a.064.064 0 0 0 .00788.0245.064.064 0 0 0 .01692.0195 16.026 16.026 0 0 0 4.7944 2.384.0616.0616 0 0 0 .03681-.0001.0623.0623 0 0 0 .03039-.0207 11.07 11.07 0 0 0 .9808-1.5704.05925.05925 0 0 0-.0114-.07.059.059 0 0 0-.0214-.0132 10.56 10.56 0 0 1-1.4976-.7024.0594.0594 0 0 1-.02115-.0204.06.06 0 0 1-.00898-.0279.06.06 0 0 1 .00534-.0289.06.06 0 0 1 .01839-.0228c.1008-.0744.2016-.152.2976-.2296a.0607.0607 0 0 1 .03007-.0129.06.06 0 0 1 .03233.0049c3.14156 1.4112 6.54396 1.4112 9.64876 0a.0595.0595 0 0 1 .0327-.0055.06.06 0 0 1 .0305.0127c.096.0784.196.156.2976.2304a.059.059 0 0 1 .0187.0225c.0043.009.0063.0189.0058.0288a.059.059 0 0 1-.0085.028.06.06 0 0 1-.0208.0207c-.4784.2752-.976.508-1.4984.7016a.0605.0605 0 0 0-.0214.0134.06.06 0 0 0-.014.0212.0604.0604 0 0 0 .0026.0494c.288.5496.6176 1.0728.98 1.5696a.0618.0618 0 0 0 .0672.0224 15.971 15.971 0 0 0 4.8016-2.3848.061.061 0 0 0 .0175-.0189.06.06 0 0 0 .0081-.0243c.4-4.0752-.6704-7.61602-2.8392-10.75362a.0478.0478 0 0 0-.0248-.0224M8.81604 14.6225c-.9456 0-1.7256-.8552-1.7256-1.904 0-1.0496.7648-1.904 1.7256-1.904.968 0 1.74076.8616 1.72556 1.904 0 1.0496-.76476 1.904-1.72556 1.904m6.37996 0c-.9464 0-1.7256-.8552-1.7256-1.904 0-1.0496.764-1.904 1.7256-1.904.968 0 1.7408.8616 1.7256 1.904 0 1.0496-.7568 1.904-1.7256 1.904"/></g></symbol><symbol id="google" fill="none" viewBox="0 0 25 24"><g id="google"><path id="Vector" fill="currentColor" fill-opacity="1" d="M12.7991 16.25c1.9122 0 3.5294-1.2628 4.0632-3H13.55v-2.5h6.3917c.0706.4061.1074.8237.1074 1.25s-.0368.8439-.1074 1.25c-.5923 3.4084-3.5648 6-7.1426 6-4.00409 0-7.25003-3.2459-7.25003-7.25 0-4.00406 3.24594-7.25 7.25003-7.25 1.8111 0 3.4672.66412 4.7378 1.76213l-2.131 2.13101c-.7198-.55978-1.6244-.89314-2.6068-.89314-2.3472 0-4.25003 1.90279-4.25003 4.25 0 2.3472 1.90283 4.25 4.25003 4.25"/></g></symbol><symbol id="passkey" fill="none" viewBox="0 0 25 24"><g id="key"><path id="Subtract" fill="currentColor" fill-opacity="1" fill-rule="evenodd" d="M19.45 9c0 2.3472-1.9028 4.25-4.25 4.25-.3102 0-.6125-.0332-.9038-.0963L13.7 13.75h-1.75v1.75l-1.25 1.25H8.94995v1.75l-.75.75h-3.25V16l6.09625-6.09628c-.063-.29124-.0962-.5936-.0962-.90372 0-2.34721 1.9027-4.25 4.25-4.25 2.3472 0 4.25 1.90279 4.25 4.25m-3.75.12891c.5522 0 1-.44772 1-1s-.4478-1-1-1c-.5523 0-1 .44771-1 1s.4477 1 1 1" clip-rule="evenodd"/></g></symbol><symbol id="telegram" fill="none" viewBox="0 0 25 24"><g id="telegram"><path id="Vector" fill="currentColor" fill-opacity="1" d="M5.06864 10.9575C9.6329 8.84082 12.6757 7.44535 14.1972 6.77105c4.349-1.92525 5.2516-2.25962 5.841-2.27095.1297-.00221.4183.0319.6067.19401.1565.13672.2005.32161.2225.45143.0196.12968.0465.42525.0245.65598-.2348 2.6354-1.2548 9.03068-1.7734 11.98248-.2177 1.2489-.6506 1.6677-1.0689 1.7086-.9099.089-1.5997-.6396-2.4802-1.2539-1.3771-.9617-2.155-1.5602-3.4929-2.4984-1.5459-1.0844-.543-1.6805.3375-2.6545.2299-.2549 4.2365-4.13378 4.3123-4.4856.0098-.04401.0196-.20807-.0733-.29453-.0905-.08672-.2251-.05703-.3229-.03359-.1394.03333-2.3384 1.58228-6.60425 4.64662-.62373.4567-1.18876.6794-1.69753.6677-.5577-.0128-1.63394-.3365-2.43379-.6131-.9784-.3393-1.75868-.5187-1.69019-1.095.03424-.3.42316-.607 1.1643-.9208"/></g></symbol><symbol id="wallet" fill="none" viewBox="0 0 24 24"><g id="wallet"><g id="Subtract" fill="currentColor"><path fill-rule="evenodd" d="M19.25 9.91667V17.25c0 1.1046-.8954 2-2 2H6.75c-1.10457 0-2-.8954-2-2V6.75c0 1.29688.83333 1.54036 1.25 1.5h11.5833c.9205 0 1.6667.74619 1.6667 1.66667M16 15.1289c1.1046 0 2-.8954 2-2s-.8954-2-2-2-2 .8954-2 2 .8954 2 2 2" clip-rule="evenodd"/><path d="M5.375 6.75c0-.34518-.27982-.625-.625-.625s-.625.27982-.625.625zM6 8.25v-.625a.63.63 0 0 0-.06026.00291zm13.875 9V9.91667h-1.25V17.25zm-2.625 2.625c1.4497 0 2.625-1.1753 2.625-2.625h-1.25c0 .7594-.6156 1.375-1.375 1.375zm-10.5 0h10.5v-1.25H6.75zM4.125 17.25c0 1.4497 1.17525 2.625 2.625 2.625v-1.25c-.75939 0-1.375-.6156-1.375-1.375zm0-10.5v10.5h1.25V6.75zm1.81474.87791c-.07247.00702-.20987-.01369-.31987-.10575C5.53136 7.44809 5.375 7.25648 5.375 6.75h-1.25c0 .7904.26031 1.36896.69263 1.73077.41083.34381.89843.42466 1.24263.39132zM17.5833 7.625H6v1.25h11.5833zm2.2917 2.29167c0-1.26566-1.026-2.29167-2.2917-2.29167v1.25c.5753 0 1.0417.46637 1.0417 1.04167zm-2.5 3.21223c0 .7594-.6156 1.375-1.375 1.375v1.25c1.4497 0 2.625-1.1752 2.625-2.625zM16 11.7539c.7594 0 1.375.6156 1.375 1.375h1.25c0-1.4497-1.1753-2.625-2.625-2.625zm-1.375 1.375c0-.7594.6156-1.375 1.375-1.375v-1.25c-1.4497 0-2.625 1.1753-2.625 2.625zM16 14.5039c-.7594 0-1.375-.6156-1.375-1.375h-1.25c0 1.4498 1.1753 2.625 2.625 2.625z"/></g><path id="Vector" stroke="currentColor" stroke-linecap="round" stroke-linejoin="round" stroke-opacity="1" stroke-width="1.25" d="M17.25 8.25H6.5c-.9665 0-1.75-.7835-1.75-1.75s.7835-1.75 1.75-1.75h8.75c1.1046 0 2 .89543 2 2zm0 0h.25"/></g></symbol></defs></svg>