<svg width="32" height="32" viewBox="0 0 32 32" fill="none" xmlns="http://www.w3.org/2000/svg">
<path d="M3.19995 9.96371V22.0062C3.19995 23.9999 4.28488 25.8388 6.03842 26.8294L14.1249 31.4111C15.4243 32.1479 17.0201 32.1479 18.3195 31.4111L26.406 26.8294C28.1596 25.8326 29.2445 23.9937 29.2445 22.0062V9.96371C29.2445 7.97004 28.1596 6.13116 26.406 5.14051L18.3195 0.552594C17.0201 -0.184198 15.4243 -0.184198 14.1249 0.552594L6.03842 5.13432C4.28488 6.13116 3.19995 7.97004 3.19995 9.96371Z" fill="#DC2626" style="fill:#DC2626;fill:color(display-p3 0.8627 0.1490 0.1490);fill-opacity:1;"/>
<path d="M26.0971 15.6662L23.1262 14.6755C22.035 14.3102 21.2213 13.4063 20.9942 12.298L19.739 6.2179C19.7074 6.06311 19.5687 5.95166 19.4047 5.95166C19.2407 5.95166 19.1019 6.06311 19.0704 6.2179L17.8151 12.298C17.588 13.4063 16.7744 14.3102 15.6831 14.6755L12.7122 15.6662C12.5734 15.7095 12.4851 15.8395 12.4851 15.9819C12.4851 16.1243 12.5797 16.2482 12.7122 16.2977L15.6831 17.2883C16.7744 17.6536 17.588 18.5576 17.8151 19.6659L19.0704 25.746C19.1019 25.9007 19.2407 26.0122 19.4047 26.0122C19.5687 26.0122 19.7074 25.9007 19.739 25.746L20.9942 19.6659C21.2213 18.5576 22.035 17.6536 23.1262 17.2883L26.0971 16.2977C26.2359 16.2544 26.3242 16.1243 26.3242 15.9819C26.3242 15.8395 26.2296 15.7157 26.0971 15.6662Z" fill="#FFFCF5" style="fill:#FFFCF5;fill:color(display-p3 1.0000 0.9882 0.9608);fill-opacity:1;"/>
<path d="M10.1133 10.0876L11.1603 10.4343C11.5451 10.5643 11.8353 10.8801 11.9109 11.2763L12.3525 13.4248C12.3651 13.4805 12.4156 13.5177 12.4723 13.5177C12.5291 13.5177 12.5796 13.4805 12.5922 13.4248L13.0337 11.2763C13.1157 10.8863 13.3996 10.5643 13.7906 10.4343L14.8377 10.0876C14.8882 10.069 14.9197 10.0257 14.9197 9.97612C14.9197 9.92659 14.8882 9.88325 14.8377 9.86467L13.7906 9.51795C13.4059 9.38793 13.1157 9.07216 13.0337 8.6759L12.5922 6.52744C12.5796 6.47172 12.5291 6.43457 12.4723 6.43457C12.4156 6.43457 12.3651 6.47172 12.3525 6.52744L11.9109 8.6759C11.8289 9.06597 11.5451 9.38793 11.1603 9.51795L10.1133 9.86467C10.0628 9.88325 10.0312 9.92659 10.0312 9.97612C10.0312 10.0257 10.0628 10.069 10.1133 10.0876Z" fill="#FFFCF5" style="fill:#FFFCF5;fill:color(display-p3 1.0000 0.9882 0.9608);fill-opacity:1;"/>
<path d="M12.561 20.6378L11.1544 20.1734C10.6372 20.0001 10.2524 19.5729 10.1452 19.0466L9.55224 16.1675C9.53963 16.0932 9.47024 16.0437 9.39455 16.0437C9.31886 16.0437 9.24947 16.0932 9.23686 16.1675L8.64393 19.0466C8.5367 19.5729 8.15193 20.0001 7.6347 20.1734L6.22808 20.6378C6.165 20.6564 6.12085 20.7183 6.12085 20.7864C6.12085 20.8545 6.165 20.9164 6.22808 20.935L7.6347 21.3994C8.15193 21.5727 8.5367 21.9999 8.64393 22.5262L9.23686 25.4053C9.24947 25.4796 9.31886 25.5291 9.39455 25.5291C9.47024 25.5291 9.53332 25.4734 9.55224 25.4053L10.1452 22.5262C10.2524 21.9999 10.6372 21.5727 11.1544 21.3994L12.561 20.935C12.6241 20.9164 12.6683 20.8545 12.6683 20.7864C12.6683 20.7183 12.6241 20.6564 12.561 20.6378Z" fill="#FFFCF5" style="fill:#FFFCF5;fill:color(display-p3 1.0000 0.9882 0.9608);fill-opacity:1;"/>
</svg>
